<?xml version="1.0" standalone="no"?>
<!DOCTYPE svg PUBLIC "-//W3C//DTD SVG 1.1//EN" "http://www.w3.org/Graphics/SVG/1.1/DTD/svg11.dtd" >
<svg xmlns="http://www.w3.org/2000/svg" xmlns:xlink="http://www.w3.org/1999/xlink" version="1.1">
<metadata>
Created by FontForge 20170731 at Sun Jul 24 19:25:15 2016
 By ,,,
Copyright (c) 2014 Swiss Typefaces. All rights reserved.
</metadata>
<defs>
<font id="SuisseWorks-Regular" horiz-adv-x="678" >
  <font-face 
    font-family="Suisse Works"
    font-weight="400"
    font-stretch="normal"
    units-per-em="1000"
    panose-1="2 2 5 4 6 0 0 0 0 0"
    ascent="800"
    descent="-200"
    x-height="537"
    cap-height="725"
    bbox="-157 -312 1400 974"
    underline-thickness="60"
    underline-position="-230"
    unicode-range="U+0020-FB02"
  />
<missing-glyph horiz-adv-x="500" 
d="M0 0v725h500v-725h-500zM239 362l-220 334v-667zM260 362l221 -333v667zM250 346l-217 -327h433zM33 706l217 -328l216 328h-433z" />
    <glyph glyph-name=".notdef" horiz-adv-x="500" 
d="M0 0v725h500v-725h-500zM239 362l-220 334v-667zM260 362l221 -333v667zM250 346l-217 -327h433zM33 706l217 -328l216 328h-433z" />
    <glyph glyph-name=".null" horiz-adv-x="0" 
 />
    <glyph glyph-name="nonmarkingreturn" horiz-adv-x="260" 
 />
    <glyph glyph-name="space" unicode=" " horiz-adv-x="260" 
 />
    <glyph glyph-name="exclam" unicode="!" horiz-adv-x="358" 
d="M123 503v222q0 17 27.5 24.5t55.5 0t28 -24.5v-223l-45 -290h-20zM107 59q0 29 21.5 50.5t50.5 21.5t50.5 -21.5t21.5 -50.5t-21.5 -50.5t-50.5 -21.5t-50.5 21.5t-21.5 50.5z" />
    <glyph glyph-name="quotedbl" unicode="&#x22;" horiz-adv-x="370" 
d="M214 725h114l-36 -254h-41zM44 725h114l-36 -254h-41z" />
    <glyph glyph-name="numbersign" unicode="#" horiz-adv-x="713" 
d="M85 527h142l28 198h67l-28 -198h171l28 198h67l-28 -198h138l-9 -64h-138l-24 -171h138l-10 -65h-137l-31 -227h-69l32 227h-170l-31 -227h-68l32 227h-141l9 65h141l24 171h-141zM285 463l-24 -171h170l25 171h-171z" />
    <glyph glyph-name="dollar" unicode="$" horiz-adv-x="633" 
d="M282 -102v1v91q-94 8 -168.5 62.5t-82.5 143.5h107q0 -64 39.5 -110.5t103.5 -58.5v306l-24 6q-38 11 -71.5 27t-65 41t-50 62t-18.5 81q0 88 64.5 137.5t164.5 53.5v104h47v-104q92 -6 159 -60t76 -147h-107q-1 69 -33 115t-94 55v-279l29 -8q48 -12 84.5 -27.5
t72.5 -40.5t55.5 -62.5t19.5 -86.5q0 -101 -74.5 -156t-186.5 -57v-89h-47zM339 318l-10 2v-296q83 2 128.5 39t45.5 107q0 64 -41.5 95.5t-122.5 52.5zM136 578q0 -99 146 -139v267q-76 -3 -111 -39t-35 -89z" />
    <glyph glyph-name="percent" unicode="%" horiz-adv-x="1039" 
d="M114 523q0 -37 4 -69.5t12.5 -61.5t25 -45.5t39.5 -16.5t39.5 16.5t25 45.5t12.5 61.5t4 69.5q0 192 -81 192t-81 -192zM30 523q0 86 46.5 149t118.5 63t119 -63t47 -149q0 -85 -47 -149t-119 -64t-118.5 64t-46.5 149zM299 0h-66l508 725h65zM763 206q0 -37 4 -69.5
t12.5 -61.5t25 -45.5t39.5 -16.5t39.5 16.5t25 45.5t12.5 61.5t4 69.5q0 192 -81 192t-81 -192zM679 206q0 86 46.5 149t118.5 63t119 -63t47 -149q0 -85 -47 -149t-119 -64t-118.5 64t-46.5 149z" />
    <glyph glyph-name="ampersand" unicode="&#x26;" horiz-adv-x="716" 
d="M294 -13l-1 1q-110 0 -182.5 66t-72.5 159q0 41 16.5 75t47 59t61 42t71.5 33q-75 94 -75 166t51 113.5t133 41.5q67 0 114.5 -35.5t47.5 -98.5q0 -53 -45.5 -97.5t-112.5 -73.5l196 -227q47 103 36 234h74q-6 -146 -81 -268l111 -128l-72 -60l-94 108q-51 -58 -102 -84
t-121 -26zM149 231q0 -84 44.5 -141t122.5 -57q100 0 174 95l-239 275q-49 -23 -75.5 -69.5t-26.5 -102.5zM442 609v1q0 98 -103 98q-45 0 -67.5 -24.5t-22.5 -62.5q0 -42 19.5 -77t62.5 -85q111 52 111 150z" />
    <glyph glyph-name="quotesingle" unicode="'" horiz-adv-x="201" 
d="M44 725h114l-36 -254h-41z" />
    <glyph glyph-name="parenleft" unicode="(" horiz-adv-x="307" 
d="M157 276l-1 2q0 -177 27 -307.5t102 -201.5l-14 -17q-106 83 -161 223t-55 302q0 163 55 302t162 225l14 -18q-75 -72 -102 -202t-27 -308z" />
    <glyph glyph-name="parenright" unicode=")" horiz-adv-x="307" 
d="M152 276l-1 -1q0 385 -130 509l14 18q107 -86 162 -225t55 -302q0 -162 -55 -302t-161 -223l-14 17q130 124 130 509z" />
    <glyph glyph-name="asterisk" unicode="*" horiz-adv-x="379" 
d="M216 726v-120l120 40l19 -52l-120 -39l73 -102l-44 -33l-75 103l-73 -102l-46 32l73 101l-118 40l16 53l119 -41v120h56z" />
    <glyph glyph-name="plus" unicode="+" 
d="M374 0h-70v242h-242v66h242v230h70v-230h242v-66h-242v-242z" />
    <glyph glyph-name="comma" unicode="," horiz-adv-x="354" 
d="M105 58q0 30 21 51.5t52 21.5q33 0 52.5 -22.5t19.5 -59.5q0 -66 -53 -139.5t-121 -106.5l-7 12q41 31 74.5 79t33.5 93q-30 1 -51 20.5t-21 50.5z" />
    <glyph glyph-name="hyphen" unicode="-" horiz-adv-x="391" 
d="M55 233v88h281v-88h-281z" />
    <glyph glyph-name="period" unicode="." horiz-adv-x="358" 
d="M107 59q0 29 21.5 50.5t50.5 21.5t50.5 -21.5t21.5 -50.5t-21.5 -50.5t-50.5 -21.5t-50.5 21.5t-21.5 50.5z" />
    <glyph glyph-name="slash" unicode="/" horiz-adv-x="397" 
d="M51 -32h-51l343 808h54z" />
    <glyph glyph-name="zero" unicode="0" horiz-adv-x="656" 
d="M162 366q0 -64 8.5 -121.5t27 -109t52 -82t78.5 -30.5q44 0 77.5 30.5t52 81.5t27.5 109t9 122q0 63 -9 120t-27.5 108t-52 81.5t-77.5 30.5q-45 0 -78.5 -30.5t-52 -81.5t-27 -108t-8.5 -120zM50 366q0 69 17.5 134.5t50.5 120t87.5 88t122.5 33.5t122.5 -33.5t87.5 -88
t50.5 -120t17.5 -134.5q0 -94 -29 -178t-94.5 -142.5t-154.5 -58.5t-154.5 58.5t-94.5 142.5t-29 178z" />
    <glyph glyph-name="one" unicode="1" horiz-adv-x="449" 
d="M295 743v-1v-598q0 -81 12.5 -100t76.5 -27v-18h-297v20q29 3 46 5.5t30.5 9.5t19 13t9.5 22.5t4.5 30.5t0.5 45v472h-142v25q92 8 140.5 32.5t77.5 68.5h22z" />
    <glyph glyph-name="two" unicode="2" horiz-adv-x="512" 
d="M448 563l-1 1q0 -74 -48.5 -147.5t-134.5 -164.5q-22 -23 -71 -77t-74 -80h341v-95h-460v16q192 200 266.5 308.5t74.5 194.5q0 147 -139 147q-61 0 -105 -35.5t-56 -93.5h-29q17 98 77.5 151.5t154.5 53.5q86 0 145 -46.5t59 -132.5z" />
    <glyph glyph-name="three" unicode="3" horiz-adv-x="534" 
d="M219 -13v2q-115 0 -184 28v146h20q16 -56 65 -95t112 -39q68 0 108.5 38t40.5 103q0 24 -7.5 50t-27 56.5t-62.5 54.5t-103 32v22l23 10q70 30 106.5 77t36.5 86q0 50 -32.5 79.5t-96.5 29.5q-59 0 -102.5 -35.5t-55.5 -93.5h-29q17 98 77.5 151.5t154.5 53.5
q81 0 133 -37t52 -100q0 -52 -44 -101.5t-102 -79.5v-3q181 -66 181 -215q0 -98 -81 -159t-183 -61z" />
    <glyph glyph-name="four" unicode="4" horiz-adv-x="599" 
d="M435 0h-100v199h-332v13l351 513h81v-442h131v-84h-131v-199zM335 283v337l-230 -337h230z" />
    <glyph glyph-name="five" unicode="5" horiz-adv-x="532" 
d="M60 412l110 313h317l-32 -95h-275l-46 -130q171 -26 253.5 -97.5t82.5 -168.5q0 -112 -80.5 -179.5t-186.5 -67.5q-50 0 -100.5 10.5t-77.5 25.5v152h20q17 -72 64 -110t110 -38t107.5 43.5t44.5 113.5q0 181 -311 228z" />
    <glyph glyph-name="six" unicode="6" horiz-adv-x="602" 
d="M313 -13h1q-126 0 -194.5 84.5t-68.5 222.5q0 168 121 294t316 162l5 -25q-150 -39 -227.5 -117.5t-95.5 -202.5q65 78 163 78q96 0 157.5 -61.5t61.5 -169.5q0 -107 -70.5 -186t-168.5 -79zM300 424q-80 0 -134 -48q-3 -35 -3 -71q0 -120 38 -201t113 -81q65 0 97 50
t32 137q0 38 -7 73t-22 68t-44.5 53t-69.5 20z" />
    <glyph glyph-name="seven" unicode="7" horiz-adv-x="525" 
d="M28 630v-1v95h488v-95q-64 -63 -105.5 -108.5t-87 -108.5t-71 -121t-40.5 -133.5t-12 -158.5h-111q1 74 17 142t46.5 125.5t63 104.5t80 94t83.5 79t86 73l6 4.5t5 4t5 4.5h-453z" />
    <glyph glyph-name="eight" unicode="8" horiz-adv-x="623" 
d="M302 -13q-66 0 -121.5 20t-93 65t-37.5 108t48 113t122 78q-138 77 -138 191q0 80 67.5 129.5t165.5 49.5q94 0 159.5 -43t65.5 -116q0 -108 -161 -172l18 -8q82 -41 129 -88t47 -116q0 -100 -79 -155.5t-192 -55.5zM143 185l1 -2q0 -72 41.5 -117t117.5 -45
q80 0 127.5 36.5t47.5 96.5q0 51 -32.5 86t-108.5 72l-82 41l-6 2q-106 -50 -106 -170zM453 575q0 64 -37.5 96t-102.5 32t-104.5 -32t-39.5 -80t35.5 -80.5t102.5 -65.5l47 -24q99 60 99 154z" />
    <glyph glyph-name="nine" unicode="9" horiz-adv-x="594" 
d="M279 742h-1q126 0 194.5 -84.5t68.5 -222.5q0 -168 -121 -294t-316 -162l-5 25q149 37 226.5 116.5t95.5 202.5q-64 -77 -162 -77q-95 0 -157 64t-62 173q0 106 70 182.5t169 76.5zM292 305q80 0 133 47q4 31 4 72q0 120 -38 201t-113 81q-65 0 -97 -50t-32 -137
q0 -38 7 -73t22 -68t44.5 -53t69.5 -20z" />
    <glyph glyph-name="colon" unicode=":" horiz-adv-x="358" 
d="M107 472q0 29 21.5 50.5t50.5 21.5t50.5 -21.5t21.5 -50.5t-21.5 -50.5t-50.5 -21.5t-50.5 21.5t-21.5 50.5zM107 59q0 29 21.5 50.5t50.5 21.5t50.5 -21.5t21.5 -50.5t-21.5 -50.5t-50.5 -21.5t-50.5 21.5t-21.5 50.5z" />
    <glyph glyph-name="semicolon" unicode=";" horiz-adv-x="354" 
d="M107 472q0 29 21.5 50.5t50.5 21.5t50.5 -21.5t21.5 -50.5t-21.5 -50.5t-50.5 -21.5t-50.5 21.5t-21.5 50.5zM105 58q0 30 21 51.5t52 21.5q33 0 52.5 -22.5t19.5 -59.5q0 -66 -53 -139.5t-121 -106.5l-7 12q41 31 74.5 79t33.5 93q-30 1 -51 20.5t-21 50.5z" />
    <glyph glyph-name="less" unicode="&#x3c;" 
d="M69 307l521 237v-76l-438 -194l438 -192v-75l-521 235v65z" />
    <glyph glyph-name="equal" unicode="=" 
d="M581 349h-483v66h483v-66zM581 142h-483v67h483v-67z" />
    <glyph glyph-name="greater" unicode="&#x3e;" 
d="M610 307v-65l-521 -235v75l439 192l-439 194v76z" />
    <glyph glyph-name="question" unicode="?" horiz-adv-x="553" 
d="M258 717q-126 0 -158 -165h-20v170q27 12 83 21t94 9q112 0 172 -38t60 -103q0 -43 -17.5 -82t-44.5 -66.5t-57.5 -58t-57.5 -57t-44.5 -63.5t-17.5 -78v-12h-29v9q0 57 15.5 105.5t37.5 83t44.5 66t38 69.5t15.5 79q0 55 -30.5 83t-83.5 28zM166 59q0 29 21.5 50.5
t50.5 21.5t50.5 -21.5t21.5 -50.5t-21.5 -50.5t-50.5 -21.5t-50.5 21.5t-21.5 50.5z" />
    <glyph glyph-name="at" unicode="@" horiz-adv-x="846" 
d="M630 159h-1q-45 0 -73.5 29t-30.5 77q-51 -101 -161 -101q-64 0 -105 44.5t-41 131.5q0 96 58.5 167t151.5 71q46 0 76.5 -25.5t42.5 -66.5l10 73h55l-32 -228q-3 -25 -1.5 -50.5t17 -45t42.5 -19.5q47 0 78.5 52.5t31.5 142.5q0 131 -83 200.5t-219 69.5
q-148 0 -241 -94t-93 -235q0 -136 80.5 -220.5t216.5 -84.5q112 0 201 43l21 -57q-101 -46 -222 -46q-161 0 -260.5 103t-99.5 264q0 163 113.5 273t285.5 110q160 0 260 -83.5t100 -239.5q0 -117 -53.5 -186t-124.5 -69zM429 519q-63 0 -103.5 -53t-40.5 -128
q0 -116 96 -116q63 0 103 54.5t40 129.5q0 54 -25 83.5t-70 29.5z" />
    <glyph glyph-name="A" unicode="A" horiz-adv-x="783" 
d="M5 0h1v18q50 4 70.5 30.5t65.5 139.5l217 544q32 3 51 31h4l258 -645q23 -61 41 -79.5t65 -20.5v-18h-290v18q53 6 69.5 23t1.5 55l-56 140h-296l-5 -14q-37 -94 -43.5 -134.5t8 -53t62.5 -16.5v-18h-224zM356 610l-128 -325h257z" />
    <glyph glyph-name="B" unicode="B" horiz-adv-x="713" 
d="M248 357v-288q0 -21 8 -28t32 -7h43q112 0 162.5 42.5t50.5 128.5q0 76 -43 114t-146 38h-107zM248 689v-297h105q86 0 123.5 43.5t37.5 111.5q0 79 -42 110.5t-152 31.5h-72zM39 725h119q44 0 107 1t73 1q154 0 222 -40.5t68 -123.5q0 -61 -44 -108t-110 -66v-2
q74 -15 132 -58.5t58 -115.5q0 -42 -15.5 -78t-50 -68t-99 -50.5t-153.5 -18.5q-11 0 -75 1t-115 1h-117v18q68 8 83.5 27t15.5 101v433q0 30 -0.5 48t-6 33t-9.5 21t-19 12t-25.5 8t-38.5 6v18z" />
    <glyph glyph-name="C" unicode="C" horiz-adv-x="738" 
d="M172 366h-1q0 -155 69 -243t186 -88q99 0 162 50.5t90 119.5l27 -10q-21 -85 -100 -146.5t-196 -61.5q-166 0 -263 109.5t-97 270.5q0 171 112.5 274.5t275.5 103.5q112 0 213 -40l21 -219h-18q-27 121 -84 172t-151 51q-101 0 -173.5 -86t-72.5 -257z" />
    <glyph glyph-name="D" unicode="D" horiz-adv-x="794" 
d="M248 36h117q112 0 184.5 86t72.5 241q0 154 -72.5 240t-184.5 86h-117v-653zM39 725h326q73 0 139 -21t120.5 -63t87 -114t32.5 -164t-32.5 -164t-87 -114t-120.5 -63.5t-139 -21.5h-326v18q68 8 83.5 27t15.5 101v433q0 30 -0.5 48t-6 33t-9.5 21t-19 12t-25.5 8
t-38.5 6v18z" />
    <glyph glyph-name="E" unicode="E" horiz-adv-x="711" 
d="M667 219l-39 -220q-76 1 -221 1h-368v18q68 8 83.5 27t15.5 101v433q0 30 -0.5 48t-6 33t-9.5 21t-19 12t-25.5 8t-38.5 6v18h353q146 0 221 3l29 -219h-18q-12 38 -26.5 66t-28.5 47.5t-37.5 32.5t-41 19.5t-52.5 10t-59 4t-73 0.5h-58v-293h141q45 0 70 25.5t33 86.5
h18v-268h-18q-8 61 -33 86.5t-70 25.5h-141v-272q0 -29 8 -37.5t37 -8.5h16q64 0 104 3t80 13.5t65.5 31t48.5 54t41 83.5h19z" />
    <glyph glyph-name="F" unicode="F" horiz-adv-x="687" 
d="M39 0v18q68 8 83.5 27t15.5 101v433q0 30 -0.5 48t-6 33t-9.5 21t-19 12t-25.5 8t-38.5 6v18h378q146 0 221 3l29 -219h-18q-12 38 -26.5 66t-28.5 47.5t-37.5 32.5t-41 19.5t-52.5 10t-59 4t-73 0.5h-83v-293h144q45 0 70 25.5t33 86.5h18v-268h-18q-8 61 -33 86.5
t-70 25.5h-144v-207q0 -44 1.5 -62t13 -34.5t32 -21.5t61.5 -8v-19h-317z" />
    <glyph glyph-name="G" unicode="G" horiz-adv-x="814" 
d="M526 340h263v-22q-44 -6 -54 -27.5t-10 -98.5v-123q-58 -41 -143.5 -61.5t-158.5 -20.5q-90 0 -162.5 31t-117.5 83.5t-69 119.5t-24 142q0 171 112 276.5t284 105.5q133 0 233 -38l16 -221h-18q-29 122 -89.5 172.5t-156.5 50.5q-49 0 -92.5 -17.5t-82 -56t-61.5 -109
t-23 -165.5q0 -152 72.5 -244t189.5 -92q179 0 179 98v69q0 79 -13 100.5t-74 25.5v22z" />
    <glyph glyph-name="H" unicode="H" horiz-adv-x="838" 
d="M700 579v-433q0 -82 15.5 -101t83.5 -27v-18h-308v18q68 8 83.5 27t15.5 101v206h-342v-206q0 -82 15.5 -101t83.5 -27v-18h-308v18q68 8 83.5 27t15.5 101v433q0 30 -0.5 48t-6 33t-9.5 21t-19 12t-25.5 8t-38.5 6v18h308v-18q-28 -4 -38.5 -6t-25.5 -8t-19 -12
t-9.5 -21t-6 -33t-0.5 -48v-183h342v183q0 30 -0.5 48t-6 33t-9.5 21t-19 12t-25.5 8t-38.5 6v18h308v-18q-28 -4 -38.5 -6t-25.5 -8t-19 -12t-9.5 -21t-6 -33t-0.5 -48z" />
    <glyph glyph-name="I" unicode="I" horiz-adv-x="386" 
d="M248 579v-433q0 -82 15.5 -101t83.5 -27v-18h-308v18q68 8 83.5 27t15.5 101v433q0 30 -0.5 48t-6 33t-9.5 21t-19 12t-25.5 8t-38.5 6v18h308v-18q-28 -4 -38.5 -6t-25.5 -8t-19 -12t-9.5 -21t-6 -33t-0.5 -48z" />
    <glyph glyph-name="J" unicode="J" horiz-adv-x="427" 
d="M201 227v352q0 30 -0.5 48t-6 33t-9.5 21t-19 12t-25.5 8t-38.5 6v18h308v-18q-28 -4 -38.5 -6t-25.5 -8t-19 -12t-9.5 -21t-6 -33t-0.5 -48v-345q0 -247 -182 -247q-71 0 -118 14v134h11q25 -43 57 -77.5t60 -34.5q19 0 30.5 9.5t21.5 57t10 137.5z" />
    <glyph glyph-name="K" unicode="K" horiz-adv-x="772" 
d="M248 579v-433q0 -82 15.5 -101t83.5 -27v-18h-308v18q68 8 83.5 27t15.5 101v433q0 30 -0.5 48t-6 33t-9.5 21t-19 12t-25.5 8t-38.5 6v18h308v-18q-28 -4 -38.5 -6t-25.5 -8t-19 -12t-9.5 -21t-6 -33t-0.5 -48zM250 373l-1 -1l224 201q93 84 94 109q1 20 -47 24h-6v18
h233v-18q-47 -6 -81.5 -28t-134.5 -107l-178 -155l265 -299q50 -56 76.5 -75.5t65.5 -23.5v-18h-289v18q29 1 43 7.5t12 18.5t-9 23.5t-22 28.5z" />
    <glyph glyph-name="L" unicode="L" horiz-adv-x="623" 
d="M39 0h1v18q68 8 83.5 27t15.5 101v433q0 30 -0.5 48t-6 33t-9.5 21t-19 12t-25.5 8t-38.5 6v18h308v-18q-28 -4 -38.5 -6t-25.5 -8t-19 -12t-9.5 -21t-6 -33t-0.5 -48v-499q0 -29 8 -37.5t37 -8.5h13q59 0 94.5 3.5t69 13t54.5 31t40 54t38 83.5h19l-39 -220
q-75 1 -221 1h-323z" />
    <glyph glyph-name="M" unicode="M" horiz-adv-x="961" 
d="M922 725v-18q-28 -4 -38.5 -6t-25.5 -8t-19 -12t-9.5 -21t-6 -33t-0.5 -48v-433q0 -82 15.5 -101t83.5 -27v-18h-308v18q68 8 83.5 27t15.5 101v483l-248 -602h-19l-262 617v-498q0 -82 15.5 -101t83.5 -27v-18h-244v18q68 8 83.5 27t15.5 101v433q0 30 -0.5 48t-6 33
t-9.5 21t-19 12t-25.5 8t-38.5 6v18h240l210 -513l209 513h224z" />
    <glyph glyph-name="N" unicode="N" horiz-adv-x="804" 
d="M641 175v-1v404q0 30 -0.5 48t-6 33t-9.5 21t-19 12t-25.5 8t-38.5 6v18h244v-18q-28 -4 -38.5 -6t-25.5 -8t-19 -12t-9.5 -21t-6 -33t-0.5 -48v-589h-41l-464 582v-426q0 -82 15.5 -101t83.5 -27v-18h-244v18q68 8 83.5 27t15.5 101v484q-48 63 -84 80v16h151z" />
    <glyph glyph-name="O" unicode="O" horiz-adv-x="844" 
d="M50 366q0 117 54.5 205t138 131t179.5 43t179.5 -43t138 -131t54.5 -205t-54.5 -205t-138 -131t-179.5 -43t-179.5 43t-138 131t-54.5 205zM671 366q0 152 -70 247.5t-179 95.5t-179 -95.5t-70 -247.5t70 -247.5t179 -95.5t179 95.5t70 247.5z" />
    <glyph glyph-name="P" unicode="P" horiz-adv-x="662" 
d="M530 515q0 101 -47.5 137.5t-148.5 36.5h-86v-348h86q101 0 148.5 36.5t47.5 137.5zM39 0v18q68 8 83.5 27t15.5 101v433q0 30 -0.5 48t-6 33t-9.5 21t-19 12t-25.5 8t-38.5 6v18h106q41 0 108.5 0.5t88.5 0.5q310 0 310 -211t-310 -211h-94v-159q0 -44 1.5 -62t13 -34.5
t32 -21.5t61.5 -8v-19h-317z" />
    <glyph glyph-name="Q" unicode="Q" horiz-adv-x="844" 
d="M50 366h1q0 117 54.5 205t138 131t179.5 43t179.5 -43t138 -131t54.5 -205q0 -160 -95.5 -260.5t-232.5 -115.5l-49 -32q-2 -1 -10 -6.5t-13 -7.5l-14 -8l1 -2q32 13 87 13q41 0 72 -14.5t51 -35t38.5 -41.5t43.5 -35.5t57 -14.5q40 0 57 7l6 -18q-59 -22 -123 -22
q-52 0 -90.5 15t-60.5 37t-40 43.5t-40.5 36.5t-50.5 15q-8 0 -16 -1.5t-13 -3t-14 -6.5t-12 -6.5t-15.5 -10t-16.5 -10.5l-11 19l134 86h-3q-96 0 -179.5 43t-138 131t-54.5 205zM672 366q0 152 -70 247.5t-179 95.5t-179 -95.5t-70 -247.5t70 -247.5t179 -95.5t179 95.5
t70 247.5z" />
    <glyph glyph-name="R" unicode="R" horiz-adv-x="730" 
d="M39 0v18q68 8 83.5 27t15.5 101v433q0 30 -0.5 48t-6 33t-9.5 21t-19 12t-25.5 8t-38.5 6v18h118q35 0 100.5 0.5t84.5 0.5q93 0 158 -15t108.5 -59t43.5 -117q0 -151 -190 -182l150 -232q36 -55 65 -76.5t71 -25.5v-18h-198q-37 73 -82 142l-54 85q-19 29 -42 67t-30 49
h-94v-199q0 -81 15.5 -100t83.5 -27v-18h-308zM530 535q0 93 -46.5 123.5t-149.5 30.5h-86v-308h86q103 0 149.5 30.5t46.5 123.5z" />
    <glyph glyph-name="S" unicode="S" horiz-adv-x="610" 
d="M294 -13l1 1q-138 0 -230 54v246h20q7 -67 23 -116.5t35.5 -77t46.5 -44t51 -21.5t54 -5q69 0 120 37.5t51 105.5q0 49 -37.5 82t-107.5 64l-78 34q-173 76 -173 210q0 82 70 137t170 55q128 0 201 -46l4 -210h-20q-17 124 -65.5 172t-123.5 48q-63 0 -106.5 -32
t-43.5 -88q0 -85 114 -133l78 -34q102 -44 154 -93t52 -129q0 -101 -77.5 -159t-182.5 -58z" />
    <glyph glyph-name="T" unicode="T" horiz-adv-x="766" 
d="M218 0h-1v19q73 6 91.5 28t18.5 99v548h-33q-62 0 -96 -5.5t-64.5 -25t-49.5 -55t-41 -99.5h-19l29 219q76 -3 221 -3h216q145 0 221 3l29 -219h-18q-17 51 -33.5 83t-35 53.5t-46 31.5t-57.5 13.5t-79 3.5h-33v-548q0 -77 18.5 -99t91.5 -28v-19h-330z" />
    <glyph glyph-name="U" unicode="U" horiz-adv-x="785" 
d="M121 273v306q0 30 -0.5 48t-6 33t-9.5 21t-19 12t-25.5 8t-38.5 6v18h308v-18q-28 -4 -38.5 -6t-25.5 -8t-19 -12t-9.5 -21t-6 -33t-0.5 -48v-296q0 -248 188 -248q199 0 199 263v281q0 30 -0.5 48t-6 33t-9.5 21t-19 12t-25.5 8t-38.5 6v18h244v-18q-28 -4 -38.5 -6
t-25.5 -8t-19 -12t-9.5 -21t-6 -33t-0.5 -48v-280q0 -158 -66 -235t-207 -77q-145 0 -207.5 75t-62.5 211z" />
    <glyph glyph-name="V" unicode="V" horiz-adv-x="769" 
d="M371 -13h-1l-258 622q-27 64 -38 76q-18 19 -65 22v18h287v-18q-53 -6 -69.5 -22.5t-1.5 -53.5l199 -484l134 356q22 59 32 92t14 56.5t-6 34t-23.5 14.5t-43.5 7v18h228v-18q-54 -4 -73.5 -29t-63.5 -141l-206 -550h-45z" />
    <glyph glyph-name="W" unicode="W" horiz-adv-x="1070" 
d="M1059 725l1 1v-18q-39 -3 -58.5 -13.5t-37.5 -45.5t-40 -111l-164 -550h-45l-181 524l-156 -524h-45l-216 623q-21 59 -38.5 75.5t-67.5 20.5v18h290v-18q-53 -6 -68.5 -21t-3.5 -54l152 -456l122 419l-45 130h123l182 -549l100 339q37 132 36 156t-27 31q-11 2 -40 5v18
h227z" />
    <glyph glyph-name="X" unicode="X" horiz-adv-x="827" 
d="M545 94h-2l-145 223l-118 -159q-29 -39 -43 -64t-19 -40t4 -22.5t20.5 -9.5t36.5 -4v-18h-258v18q50 3 100 37t125 133l127 170l-163 251q-31 48 -70 72.5t-75 25.5v18h310v-18q-57 -2 -66.5 -22t16.5 -54l117 -181l87 117q29 39 43.5 64t19.5 39.5t-4 22t-20 10t-36 4.5
v18h258v-18q-50 -3 -101 -37t-124 -133l-96 -128l191 -293q30 -48 69 -72.5t76 -25.5v-18h-310v18q56 2 65.5 22t-15.5 54z" />
    <glyph glyph-name="Y" unicode="Y" horiz-adv-x="727" 
d="M409 289v-143q0 -77 18.5 -99t91.5 -28v-19h-330v19q73 6 91.5 28t18.5 99v139l-188 325q-31 54 -51 72.5t-55 24.5v18h290v-18q-53 -6 -69 -23t2 -52l163 -289l133 224q46 81 39 108.5t-60 31.5v18h219v-18q-41 -6 -69 -30t-60 -78z" />
    <glyph glyph-name="Z" unicode="Z" horiz-adv-x="670" 
d="M180 36h100q49 0 73 0.5t59 4t52.5 10t41 19.5t37.5 32.5t28.5 47.5t26.5 66h18l-29 -219q-76 3 -221 3h-322v11l435 678h-50q-43 0 -64.5 -0.5t-54 -2.5t-48 -6.5t-38.5 -13t-35.5 -21.5t-28 -32t-26.5 -44.5t-22 -59.5h-19l30 219q75 -3 220 -3h278v-10z" />
    <glyph glyph-name="bracketleft" unicode="[" horiz-adv-x="288" 
d="M87 -216v988h190v-38h-92v-912h92v-38h-190z" />
    <glyph glyph-name="backslash" unicode="\" horiz-adv-x="397" 
d="M54 776l343 -808h-51l-346 808h54z" />
    <glyph glyph-name="bracketright" unicode="]" horiz-adv-x="289" 
d="M202 772v-988h-189v38h91v912h-91v38h189z" />
    <glyph glyph-name="asciicircum" unicode="^" horiz-adv-x="471" 
d="M270 725l201 -393h-78l-158 306l-157 -306h-78l200 393h70z" />
    <glyph glyph-name="underscore" unicode="_" horiz-adv-x="488" 
d="M23 -71v71h442v-71h-442z" />
    <glyph glyph-name="grave" unicode="`" horiz-adv-x="224" 
d="M12 772h124l74 -169h-16z" />
    <glyph glyph-name="a" unicode="a" horiz-adv-x="551" 
d="M356 64q-43 -40 -74 -58q-29 -19 -84 -19q-59 0 -108.5 38t-49.5 94q0 46 37.5 78.5t123.5 74.5q55 26 157 70v23q0 76 -25.5 109t-77.5 33q-64 0 -84 -36.5t-16 -102.5h-101q0 66 66 122t159 56q79 0 127 -38.5t46 -131.5l-5 -259q-1 -40 7 -52.5t30 -12.5q17 0 44 20
l10 -10q-2 -3 -11 -14t-12.5 -15t-12 -13t-14 -12.5t-14.5 -8.5t-18 -7t-19 -2q-33 0 -55.5 19t-25.5 55zM353 92l3 216q-93 -34 -142 -66q-34 -22 -49 -42.5t-13 -51.5q2 -40 32 -72.5t73 -32.5q49 0 96 49z" />
    <glyph glyph-name="b" unicode="b" horiz-adv-x="594" 
d="M147 48l1 1l-57 -57h-16q4 76 4 171v482q0 43 -0.5 58.5t-10.5 27.5t-22 12.5t-47 0.5v18l182 61q-2 -106 -2 -219v-146q71 89 157 89q97 0 156 -76t59 -185q0 -125 -76 -212t-178 -87q-89 0 -150 61zM300 28q74 0 109.5 61t35.5 161q0 104 -45.5 166t-118.5 62
q-70 0 -102 -46v-341q18 -29 51.5 -46t69.5 -17z" />
    <glyph glyph-name="c" unicode="c" horiz-adv-x="504" 
d="M316 547h1q62 0 104 -30.5t42 -70.5q0 -24 -15.5 -39t-41.5 -15q-35 0 -48 28l-32 66q-10 20 -37 20q-63 0 -111.5 -49t-48.5 -151q0 -97 49.5 -164.5t142.5 -67.5q81 0 145 58l11 -10q-79 -135 -211 -135q-111 0 -169.5 77.5t-58.5 192.5q0 130 81.5 210t196.5 80z" />
    <glyph glyph-name="d" unicode="d" horiz-adv-x="604" 
d="M411 502v148q0 70 -11.5 82t-78.5 12v18l192 61q-2 -106 -2 -219v-441q0 -71 10 -84.5t68 -15.5v-17l-162 -54l-13 86q-25 -41 -66.5 -66t-93.5 -25q-98 0 -157 74.5t-59 188.5q0 125 76 211t177 86q75 0 120 -45zM290 512q-72 0 -109 -62.5t-37 -161.5q0 -104 46.5 -169
t119.5 -65q68 0 102 49v340q-34 69 -122 69z" />
    <glyph glyph-name="e" unicode="e" horiz-adv-x="532" 
d="M277 -13q-118 0 -178.5 77t-60.5 201q0 117 72 199.5t174 82.5q80 0 137 -55.5t66 -161.5h-359v-4q0 -112 51 -182t145 -70t161 67l11 -10q-30 -57 -85.5 -100.5t-133.5 -43.5zM260 511q-49 0 -85 -35t-45 -107h236q-1 68 -29 105t-77 37z" />
    <glyph glyph-name="f" unicode="f" horiz-adv-x="410" 
d="M362 702h-1l-33 46q-11 14 -23 14q-20 0 -42.5 -11t-44 -37.5t-22 -69.5t22.5 -106h170v-39h-167v-355q0 -32 0.5 -48t5.5 -32.5t11 -22.5t21.5 -12t33 -7.5t49.5 -2.5v-19h-301v18q57 6 68.5 26t11.5 100v355h-88v39h88v13q0 113 67.5 181.5t163.5 68.5q43 0 70.5 -20
t27.5 -47q0 -21 -13.5 -35.5t-36.5 -14.5q-26 0 -39 18z" />
    <glyph glyph-name="g" unicode="g" horiz-adv-x="591" 
d="M271 212v1q-44 0 -68 8q-54 -46 -54 -79t66 -38l102 -4q99 -4 163.5 -37.5t64.5 -97.5q0 -27 -15.5 -57t-46.5 -60t-89.5 -50t-133.5 -20q-101 0 -163.5 37.5t-62.5 91.5q0 76 137 109q-45 7 -70.5 29t-25.5 55q0 9 1.5 17t5.5 16t6.5 14t10.5 14t12 12.5t15 13.5
t15.5 12.5l18 14t18.5 14.5q-52 20 -81.5 60t-29.5 91q0 72 56.5 120t146.5 48q64 0 113 -25h187v-44h-131q35 -41 35 -98q0 -73 -56.5 -120.5t-146.5 -47.5zM340 9l-140 6q-35 -14 -54.5 -40t-19.5 -54q0 -48 52.5 -74t127.5 -26t122 30.5t47 79.5q0 73 -135 78zM275 247
q47 0 75 29.5t28 84.5q0 63 -29.5 109t-82.5 46q-47 0 -75 -29.5t-28 -84.5q0 -63 29.5 -109t82.5 -46z" />
    <glyph glyph-name="h" unicode="h" horiz-adv-x="607" 
d="M198 604v-147q73 90 159 90q69 0 111.5 -47.5t42.5 -142.5v-213q0 -80 11.5 -100t68.5 -26v-18h-260v18q57 6 68.5 26t11.5 100v193q0 140 -104 140q-76 0 -109 -47v-286q0 -80 11.5 -100t68.5 -26v-18h-260v18q57 6 68.5 26t11.5 100v501q0 74 -10 86.5t-70 12.5v18
l182 61q-2 -106 -2 -219z" />
    <glyph glyph-name="i" unicode="i" horiz-adv-x="338" 
d="M223 328v-184q0 -80 11.5 -100t68.5 -26v-18h-260v18q57 6 68.5 26t11.5 100v225q0 74 -10 86.5t-70 12.5v18l182 61q-2 -106 -2 -219zM168 671q-30 0 -50.5 19.5t-20.5 48.5t20.5 48.5t50.5 19.5t50 -19.5t20 -48.5t-20 -48.5t-50 -19.5z" />
    <glyph glyph-name="j" unicode="j" horiz-adv-x="304" 
d="M110 80v289q0 74 -10 86.5t-70 12.5v18l182 61q-2 -106 -2 -219v-232q0 -112 -38.5 -189t-151.5 -140l-8 10q61 65 79.5 133t18.5 170zM152 671q-30 0 -50.5 19.5t-20.5 48.5t20.5 48.5t50.5 19.5t50 -19.5t20 -48.5t-20 -48.5t-50 -19.5z" />
    <glyph glyph-name="k" unicode="k" horiz-adv-x="623" 
d="M98 144v501q0 74 -10 86.5t-70 12.5v18l182 61q-2 -106 -2 -219v-460q0 -80 11.5 -100t68.5 -26v-18h-260v18q57 6 68.5 26t11.5 100zM353 0v-1v18q27 1 40.5 6t13 15.5t-7 21t-21.5 28.5l-177 203l171 142q22 18 34 32t15.5 27t-9.5 20t-44 8v18h231v-18
q-43 0 -72.5 -15.5t-83.5 -58.5q-10 -9 -16 -13l-135 -106l225 -251q26 -29 49.5 -42.5t54.5 -15.5v-18h-268z" />
    <glyph glyph-name="l" unicode="l" horiz-adv-x="335" 
d="M123 144v501q0 74 -10 86.5t-70 12.5v18l182 61q-2 -106 -2 -219v-460q0 -80 11.5 -100t68.5 -26v-18h-260v18q57 6 68.5 26t11.5 100z" />
    <glyph glyph-name="m" unicode="m" horiz-adv-x="918" 
d="M20 468h-1v18l178 61l2 -90q73 90 159 90q51 0 88 -26.5t54 -79.5q76 106 172 106q69 0 111.5 -47.5t42.5 -142.5v-213q0 -80 11.5 -100t68.5 -26v-18h-260v18q57 6 68.5 26t11.5 100v193q0 140 -104 140q-31 0 -63 -15t-52 -42q6 -28 6 -63v-213q0 -80 11.5 -100
t68.5 -26v-18h-260v18q57 6 68.5 26t11.5 100v193q0 140 -104 140q-76 0 -109 -47v-286q0 -80 11.5 -100t68.5 -26v-18h-260v18q57 6 68.5 26t11.5 100v225q0 74 -10 86.5t-70 12.5z" />
    <glyph glyph-name="n" unicode="n" horiz-adv-x="600" 
d="M18 468v18l178 61l2 -90q73 90 159 90q69 0 110 -47.5t41 -142.5v-213q0 -80 11.5 -100t68.5 -26v-18h-260v18q57 6 68.5 26t11.5 100v193q0 72 -24 106t-77 34q-76 0 -109 -47v-286q0 -80 11.5 -100t68.5 -26v-18h-260v18q57 6 68.5 26t11.5 100v225q0 74 -10 86.5
t-70 12.5z" />
    <glyph glyph-name="o" unicode="o" horiz-adv-x="624" 
d="M296 507q-146 0 -146 -204q0 -41 9.5 -86t29 -89t55 -72.5t81.5 -28.5q71 0 107 53t36 151q0 41 -9.5 86t-28.5 89t-54 72.5t-80 28.5zM306 547q110 0 191.5 -79.5t81.5 -199.5q0 -117 -78 -199t-188 -82q-109 0 -191 80t-82 200q0 118 77 199t189 81z" />
    <glyph glyph-name="p" unicode="p" horiz-adv-x="604" 
d="M8 -216v18q57 6 68.5 26t11.5 100v441q0 74 -10 86.5t-70 12.5v18l178 61v-87q75 87 159 87q97 0 156 -76t59 -185q0 -125 -76 -212t-176 -87q-75 0 -120 45v-104q0 -85 13 -102.5t87 -23.5v-18h-280zM309 22h-1q72 0 108.5 63t36.5 164q0 104 -45.5 166t-118.5 62
q-71 0 -102 -42v-344q34 -69 122 -69z" />
    <glyph glyph-name="q" unicode="q" horiz-adv-x="598" 
d="M311 -216l-1 1v18q74 6 87 23.5t13 102.5v147q-57 -88 -157 -88q-98 0 -157 74.5t-59 188.5q0 125 76 211t177 86q70 0 121 -33l102 29q-2 -36 -2 -235v-381q0 -80 11.5 -100t68.5 -26v-18h-280zM289 513h-1q-72 0 -109 -62.5t-37 -161.5q0 -104 46.5 -169t119.5 -65
q68 0 102 49v352q-16 26 -49 41.5t-72 15.5z" />
    <glyph glyph-name="r" unicode="r" horiz-adv-x="425" 
d="M18 0h2v18q57 6 68.5 26t11.5 100v225q0 74 -10 86.5t-70 12.5v18l178 61l2 -101q24 31 41 49.5t46 35.5t58 17q33 0 52.5 -17.5t19.5 -45.5q0 -27 -15.5 -44t-41.5 -17q-18 0 -32 13l-33 29q-9 9 -18 9q-15 0 -37 -16t-42 -42v-273q0 -32 0.5 -48t5.5 -32.5t11 -22.5
t21.5 -12t33 -7.5t49.5 -2.5v-19h-301z" />
    <glyph glyph-name="s" unicode="s" horiz-adv-x="470" 
d="M257 547h3q75 0 128 -24v-149h-21q-26 133 -131 133q-40 0 -68.5 -19.5t-28.5 -52.5q0 -29 21.5 -49.5t63.5 -41.5l57 -30q72 -37 104 -71.5t32 -97.5q0 -72 -58 -115t-137 -43q-93 0 -161 38v187h20q23 -179 147 -179q44 0 75.5 21.5t31.5 66.5q0 31 -22.5 53t-69.5 45
l-57 30q-63 31 -93 65t-30 91q0 69 60.5 105.5t133.5 36.5z" />
    <glyph glyph-name="t" unicode="t" horiz-adv-x="339" 
d="M206 -13h-1q-123 0 -123 153v359h-88v39h88v94l100 67v-161h129v-39h-129v-341q0 -58 15.5 -81.5t54.5 -23.5q46 0 77 31l9 -8q-47 -89 -132 -89z" />
    <glyph glyph-name="u" unicode="u" horiz-adv-x="583" 
d="M490 345v1v-182q0 -71 10 -84.5t68 -15.5v-17l-163 -54l-12 96q-26 -42 -66 -71.5t-88 -29.5q-71 0 -114.5 49t-43.5 152q0 32 1 109.5t1 109.5q0 66 -11 81.5t-67 19.5v18l179 16q-2 -104 -2 -198v-138q0 -151 98 -151q69 0 110 65v287q0 66 -11 81.5t-67 19.5v18
l180 16q-2 -104 -2 -198z" />
    <glyph glyph-name="v" unicode="v" horiz-adv-x="569" 
d="M288 -13v-1h-20l-195 466q-16 38 -29 52t-39 16v18h236v-18q-28 -2 -43.5 -7t-19 -16.5t-1 -23t10.5 -32.5l121 -301l105 247q32 73 27 101t-54 32v18h177v-18q-32 -4 -48 -23t-40 -76z" />
    <glyph glyph-name="w" unicode="w" horiz-adv-x="803" 
d="M530 -13v-1l-134 399l-137 -399h-19l-167 465q-15 38 -28 51t-41 17v18h236v-18q-53 -3 -61.5 -23t8.5 -57l90 -276l128 374h37l125 -374l81 226q27 73 23 99.5t-51 30.5v18h177v-18q-33 -4 -49.5 -23t-37.5 -73l-160 -436h-20z" />
    <glyph glyph-name="x" unicode="x" horiz-adv-x="616" 
d="M179 146l2 1l83 113l-135 201q-23 33 -39.5 44t-48.5 15v18h239v-18q-47 -4 -51 -16.5t25 -55.5l71 -106l42 58q28 38 39 55t14 33t-10.5 22t-44.5 9v18h213v-18q-45 -6 -78 -32t-85 -96l-65 -88l153 -226q21 -32 38.5 -43.5t49.5 -15.5v-18h-239v18q46 4 50 17.5
t-25 54.5l-88 131l-61 -83q-18 -25 -27.5 -39t-17.5 -29t-8 -22t5 -14t17.5 -10.5t32.5 -5.5v-18h-213v18q45 6 77.5 32t84.5 96z" />
    <glyph glyph-name="y" unicode="y" horiz-adv-x="592" 
d="M151 -221v-2q-41 0 -64.5 17.5t-23.5 47.5q0 25 14.5 40.5t31.5 15.5t31 -16l49 -51q20 31 57 119l19 45l-192 456q-16 38 -29 52t-39 16v18h236v-18q-53 -4 -62.5 -23t10.5 -55l134 -319l111 266q18 47 21.5 71t-10 39t-49.5 22v18h192v-18q-38 -8 -51 -24t-38 -74
l-211 -496q-37 -84 -62.5 -115.5t-74.5 -31.5z" />
    <glyph glyph-name="z" unicode="z" horiz-adv-x="581" 
d="M495 0h-446v9l332 488h-84q-46 0 -71.5 -2t-48.5 -9t-34.5 -22t-19.5 -38t-13 -61h-20v173h423v-10l-327 -487h102q46 0 71.5 2t48.5 9t34.5 22t19.5 38t13 61h20v-173z" />
    <glyph glyph-name="braceleft" unicode="{" horiz-adv-x="342" 
d="M315 -216h-44q-88 0 -117.5 27.5t-29.5 95.5v239q0 117 -80 117v33q80 0 80 117v236q0 68 29.5 95.5t117.5 27.5h44v-38h-13q-51 0 -66 -17.5t-15 -66.5v-227q0 -119 -110 -142v-3q110 -23 110 -142v-230q0 -49 15 -66.5t66 -17.5h13v-38z" />
    <glyph glyph-name="bar" unicode="|" horiz-adv-x="242" 
d="M157 -90h-72v815h72v-815z" />
    <glyph glyph-name="braceright" unicode="}" horiz-adv-x="342" 
d="M121 -94v230q0 119 110 142v3q-110 23 -110 142v227q0 49 -15 66.5t-66 17.5h-13v38h44q88 0 117.5 -27.5t29.5 -95.5v-242q0 -50 16 -80.5t64 -30.5v-33q-48 0 -64 -30.5t-16 -80.5v-245q0 -68 -29.5 -95.5t-117.5 -27.5h-44v38h13q51 0 66 17.5t15 66.5z" />
    <glyph glyph-name="asciitilde" unicode="~" horiz-adv-x="693" 
d="M462 269h1q29 0 48.5 18.5t21.5 55.5h69q-5 -66 -42.5 -101.5t-97.5 -35.5q-43 0 -119.5 37t-109.5 37q-29 0 -48.5 -18.5t-21.5 -55.5h-70q4 66 41.5 101.5t98.5 35.5q52 0 127.5 -37t101.5 -37z" />
    <glyph glyph-name="uni00A0" unicode="&#xa0;" horiz-adv-x="260" 
 />
    <glyph glyph-name="exclamdown" unicode="&#xa1;" horiz-adv-x="358" 
d="M124 -194v226l45 290h20l46 -291v-225q0 -17 -27.5 -24.5t-55.5 0t-28 24.5zM107 475q0 29 21.5 50.5t50.5 21.5t50.5 -21.5t21.5 -50.5t-21.5 -50.5t-50.5 -21.5t-50.5 21.5t-21.5 50.5z" />
    <glyph glyph-name="cent" unicode="&#xa2;" horiz-adv-x="578" 
d="M276 -102l1 -2v90q-104 8 -167.5 85t-63.5 193q0 117 63.5 194t167.5 85v88h47v-88q82 -6 139 -52t72 -128h-97q-5 64 -35.5 100.5t-79.5 42.5v-482q49 6 79.5 42.5t35.5 101.5h97q-14 -82 -72 -128t-140 -52v-90h-47zM152 263v1q0 -219 125 -241v481q-125 -22 -125 -241
z" />
    <glyph glyph-name="sterling" unicode="&#xa3;" horiz-adv-x="661" 
d="M356 706v-1q-72 0 -111.5 -38t-39.5 -110q0 -28 7.5 -58t14 -45t21.5 -50h205v-45h-185q21 -51 21 -91q0 -104 -141 -178l1 -3q61 27 99 27t98.5 -22.5t99.5 -22.5q55 0 128 30l30 -80q-25 -14 -68 -24.5t-83 -10.5q-43 0 -112 20t-107 20q-65 0 -159 -41l-31 73
q144 54 144 198q0 45 -24 106h-119v45h98q-42 90 -42 139q0 66 39.5 112.5t95.5 66t120 19.5q104 0 178.5 -51.5t83.5 -151.5h-107q0 77 -38.5 122t-116.5 45z" />
    <glyph glyph-name="currency" unicode="&#xa4;" horiz-adv-x="645" 
d="M80 352h-2q0 80 46 143l-69 71l46 44l68 -68q65 52 149 52q88 0 154 -54l70 70l46 -44l-72 -73q46 -63 46 -141q0 -77 -47 -142l73 -72l-46 -45l-72 70q-65 -52 -150 -52q-83 0 -148 51l-69 -69l-46 45l70 71q-47 61 -47 143zM146 352q0 -77 48.5 -129t122.5 -52
q78 0 128 52t50 129q0 78 -50 130.5t-128 52.5q-74 0 -122.5 -52.5t-48.5 -130.5z" />
    <glyph glyph-name="yen" unicode="&#xa5;" horiz-adv-x="697" 
d="M589 142v-1h-201q0 -74 19 -96.5t92 -30.5v-16h-319v16q71 8 90.5 30.5t19.5 96.5h-183v45h183v75h-183v44h171l-170 312q-29 56 -43 70.5t-49 20.5v16h274v-16q-55 -6 -72 -20.5t1 -48.5l156 -297l101 182q41 76 52 115t-1 53t-49 17v16h202v-16q-41 -6 -68.5 -37.5
t-84.5 -134.5l-128 -231h190v-44h-201v-75h201v-45z" />
    <glyph glyph-name="brokenbar" unicode="&#xa6;" horiz-adv-x="242" 
d="M85 725h72v-305h-72v305zM85 215h72v-305h-72v305z" />
    <glyph glyph-name="section" unicode="&#xa7;" horiz-adv-x="605" 
d="M296 -183q56 0 90 29.5t34 77.5q0 43 -25.5 72t-86.5 62l-131 70q-71 38 -107.5 77t-36.5 99q0 52 41 90t104 58q-91 62 -91 145q0 67 61 106t144 39q88 0 147.5 -43t73.5 -127h-93q-3 52 -37.5 93t-91.5 41q-48 0 -82 -24.5t-34 -67.5q0 -58 98 -110l142 -75
q38 -21 59.5 -34.5t46 -34t35 -44.5t10.5 -53q0 -114 -146 -163q90 -64 90 -145t-62 -128.5t-151 -47.5q-95 0 -159.5 49.5t-76.5 140.5h95q5 -70 41.5 -111t98.5 -41zM361 352v-1l-131 69q-16 8 -24 13q-36 -15 -60.5 -45t-24.5 -66t23.5 -60t75.5 -52l136 -73
q19 -9 37 -21q36 19 60 48.5t24 62.5q0 35 -28.5 63.5t-87.5 61.5z" />
    <glyph glyph-name="dieresis" unicode="&#xa8;" horiz-adv-x="382" 
d="M20 710q0 26 17.5 44t44.5 18q26 0 43.5 -18t17.5 -44q0 -28 -17.5 -45.5t-43.5 -17.5q-27 0 -44.5 17.5t-17.5 45.5zM238 710q0 26 18 44t45 18q25 0 43 -18t18 -44q0 -27 -18 -45t-43 -18q-27 0 -45 17.5t-18 45.5z" />
    <glyph glyph-name="copyright" unicode="&#xa9;" horiz-adv-x="837" 
d="M44 361q0 164 109 270t267 106q157 0 265.5 -106t108.5 -270t-108.5 -269t-265.5 -105q-159 0 -267.5 105t-108.5 269zM108 361q0 -139 89 -228t223 -89q133 0 221.5 88.5t88.5 228.5t-88.5 229t-221.5 89q-134 0 -223 -89t-89 -229zM416 214h-1q40 0 71.5 19.5
t42.5 59.5l62 -18q-17 -51 -62 -84.5t-114 -33.5q-88 0 -136.5 55.5t-48.5 153.5q0 96 51 150.5t139 54.5q68 0 111 -33.5t58 -89.5l-61 -20q-9 41 -40 63t-72 22q-51 0 -85 -38t-34 -109t34.5 -111.5t84.5 -40.5z" />
    <glyph glyph-name="ordfeminine" unicode="&#xaa;" horiz-adv-x="306" 
d="M258 642l2 -1l-3 -130q-1 -43 18 -43q9 0 23 14l8 -7q-27 -43 -66 -43q-48 0 -52 55q-31 -57 -88 -57q-34 0 -58 22t-24 53q0 53 81 87q36 14 88 30v23q4 78 -51 78t-51 -74h-63q8 45 45.5 71t82.5 26q46 0 78 -25.5t30 -78.5zM138 478v2q32 0 49 21l1 97
q-48 -10 -73 -26q-26 -17 -26 -45q0 -23 14 -36t35 -13z" />
    <glyph glyph-name="guillemotleft" unicode="&#xab;" horiz-adv-x="566" 
d="M440 38l-203 235l203 234h49l-133 -234l133 -235h-49zM236 38l-203 235l203 234h49l-133 -234l133 -235h-49z" />
    <glyph glyph-name="logicalnot" unicode="&#xac;" 
d="M533 371h-459v66h530v-338h-71v272z" />
    <glyph glyph-name="uni00AD" unicode="&#xad;" horiz-adv-x="391" 
d="M55 233v88h281v-88h-281z" />
    <glyph glyph-name="registered" unicode="&#xae;" horiz-adv-x="837" 
d="M44 361q0 164 109 270t267 106q157 0 265.5 -106t108.5 -270t-108.5 -269t-265.5 -105q-159 0 -267.5 105t-108.5 269zM108 361q0 -139 89 -228t223 -89q133 0 221.5 88.5t88.5 228.5t-88.5 229t-221.5 89q-134 0 -223 -89t-89 -229zM529 175v-1l-82 156q-7 -1 -22 -1
h-84v-155h-63v397h120q95 0 140.5 -24.5t45.5 -95.5q0 -76 -73 -106l90 -170h-72zM518 450q0 61 -99 61h-78v-124h82q50 0 72.5 15t22.5 48z" />
    <glyph glyph-name="macron" unicode="&#xaf;" horiz-adv-x="320" 
d="M308 665h-296v68h296v-68z" />
    <glyph glyph-name="degree" unicode="&#xb0;" horiz-adv-x="342" 
d="M22 589q0 63 43.5 106t104.5 43q63 0 106.5 -43t43.5 -106q0 -62 -44 -105.5t-106 -43.5q-61 0 -104.5 43.5t-43.5 105.5zM90 589q0 -39 22 -64.5t58 -25.5q38 0 60.5 25.5t22.5 64.5t-22.5 64.5t-60.5 25.5q-36 0 -58 -25.5t-22 -64.5z" />
    <glyph glyph-name="plusminus" unicode="&#xb1;" 
d="M305 363v176h69v-176h240v-66h-240v-182h-69v182h-240v66h240zM614 0h-549v66h549v-66z" />
    <glyph glyph-name="twosuperior" unicode="&#xb2;" horiz-adv-x="314" 
d="M274 753l1 2q0 -41 -19 -70.5t-85 -95.5q-41 -41 -84 -81h199v-70h-300v7q122 106 166.5 171t44.5 112q0 77 -75 77q-73 0 -90 -65h-17q10 56 46 86t93 30q51 0 85.5 -27t34.5 -76z" />
    <glyph glyph-name="threesuperior" unicode="&#xb3;" horiz-adv-x="335" 
d="M130 431l1 -1q-58 0 -100 20v104h10q12 -51 37.5 -76t59.5 -25q37 0 59.5 22t22.5 57q0 33 -24.5 66t-84.5 42v12l13 6q38 16 56.5 42.5t18.5 50.5q0 53 -67 53q-31 0 -55.5 -17t-30.5 -48h-18q10 56 46 86t93 30q45 0 76.5 -20.5t31.5 -56.5q0 -30 -26.5 -55.5
t-57.5 -37.5v-2q49 -15 77.5 -47t28.5 -76q0 -59 -50.5 -94t-116.5 -35z" />
    <glyph glyph-name="acute" unicode="&#xb4;" horiz-adv-x="238" 
d="M94 772h124l-182 -169h-16z" />
    <glyph glyph-name="mu" unicode="&#xb5;" horiz-adv-x="570" 
d="M135 -189v1h-70q10 43 10 157v570h70v-293q0 -97 35.5 -147.5t102.5 -50.5q66 0 103.5 52.5t37.5 148.5v290h70v-538h-70v85q-42 -98 -141 -98t-138 92v-102q0 -111 -10 -167z" />
    <glyph glyph-name="mu" unicode="&#x3bc;" horiz-adv-x="570" 
d="M135 -189v1h-70q10 43 10 157v570h70v-293q0 -97 35.5 -147.5t102.5 -50.5q66 0 103.5 52.5t37.5 148.5v290h70v-538h-70v85q-42 -98 -141 -98t-138 92v-102q0 -111 -10 -167z" />
    <glyph glyph-name="paragraph" unicode="&#xb6;" horiz-adv-x="560" 
d="M22 534v-1q0 91 61.5 141t183.5 50h184v-816h-65v754h-118v-754h-67v446q-75 9 -127 54t-52 126z" />
    <glyph glyph-name="periodcentered" unicode="&#xb7;" horiz-adv-x="358" 
d="M107 278q0 29 21.5 50.5t50.5 21.5t50.5 -21.5t21.5 -50.5t-21.5 -50.5t-50.5 -21.5t-50.5 21.5t-21.5 50.5z" />
    <glyph glyph-name="cedilla" unicode="&#xb8;" horiz-adv-x="246" 
d="M50 -119h1l72 122h38l-51 -86q17 9 42 9q34 0 54.5 -20.5t20.5 -50.5q0 -46 -33 -70t-73 -24q-48 0 -99 29l10 22q26 -14 64 -14q28 0 45 12t17 35q0 33 -36.5 40.5t-62.5 -9.5z" />
    <glyph glyph-name="onesuperior" unicode="&#xb9;" horiz-adv-x="291" 
d="M192 853v-333q0 -44 8 -55t50 -17v-10h-201v11q47 4 57 15t10 56v264h-77v12q97 11 141 57h12z" />
    <glyph glyph-name="ordmasculine" unicode="&#xba;" horiz-adv-x="348" 
d="M172 746q65 0 109.5 -44.5t44.5 -112.5q0 -65 -43 -111.5t-108 -46.5q-66 0 -110 45.5t-44 114.5q0 62 43 108.5t108 46.5zM167 726q-66 0 -66 -117q0 -24 3.5 -48.5t12 -50.5t25 -42.5t39.5 -16.5q34 0 49.5 34t15.5 85q0 32 -6 64.5t-25 62t-48 29.5z" />
    <glyph glyph-name="guillemotright" unicode="&#xbb;" horiz-adv-x="566" 
d="M533 273l-203 -235h-50l134 235l-134 234h50zM329 273l-203 -235h-50l134 235l-134 234h50z" />
    <glyph glyph-name="onequarter" unicode="&#xbc;" horiz-adv-x="895" 
d="M192 732v-333q0 -44 8 -55t50 -17v-10h-201v11q47 4 57 15t10 56v264h-77v12q97 11 141 57h12zM200 0h-66l508 725h65zM812 0h-77v101h-177v42l188 265h66v-244h68v-63h-68v-101zM735 164v185l-131 -185h131z" />
    <glyph glyph-name="onehalf" unicode="&#xbd;" horiz-adv-x="864" 
d="M192 732v-333q0 -44 8 -55t50 -17v-10h-201v11q47 4 57 15t10 56v264h-77v12q97 11 141 57h12zM200 0h-66l508 725h65zM824 315l1 2q0 -41 -19 -70.5t-85 -95.5q-41 -41 -84 -81h199v-70h-300v7q122 106 166.5 171t44.5 112q0 77 -75 77q-73 0 -90 -65h-17q10 56 46 86
t93 30q51 0 85.5 -27t34.5 -76z" />
    <glyph glyph-name="threequarters" unicode="&#xbe;" horiz-adv-x="939" 
d="M130 310l1 -1q-58 0 -100 20v104h10q12 -51 37.5 -76t59.5 -25q37 0 59.5 22t22.5 57q0 33 -24.5 66t-84.5 42v12l13 6q38 16 56.5 42.5t18.5 50.5q0 53 -67 53q-31 0 -55.5 -17t-30.5 -48h-18q10 56 46 86t93 30q45 0 76.5 -20.5t31.5 -56.5q0 -30 -26.5 -55.5
t-57.5 -37.5v-2q49 -15 77.5 -47t28.5 -76q0 -59 -50.5 -94t-116.5 -35zM245 -1h-66l508 725h65zM857 -1h-77v101h-177v42l188 265h66v-244h68v-63h-68v-101zM780 163v185l-131 -185h131z" />
    <glyph glyph-name="questiondown" unicode="&#xbf;" horiz-adv-x="559" 
d="M311 -187v1q126 0 158 165h20v-170q-27 -12 -83 -21t-94 -9q-112 0 -172 38t-60 103q0 51 24.5 96t59.5 79t70.5 67.5t60 76t24.5 90.5v12h29v-9q0 -57 -15.5 -106t-38 -84t-44.5 -68t-37.5 -71t-15.5 -79q0 -55 30.5 -83t83.5 -28zM259 476q0 29 21.5 50.5t50.5 21.5
t50.5 -21.5t21.5 -50.5t-21.5 -50.5t-50.5 -21.5t-50.5 21.5t-21.5 50.5z" />
    <glyph glyph-name="Agrave" unicode="&#xc0;" horiz-adv-x="783" 
d="M5 0h1v18q50 4 70.5 30.5t65.5 139.5l217 544q32 3 51 31h4l258 -645q23 -61 41 -79.5t65 -20.5v-18h-290v18q53 6 69.5 23t1.5 55l-56 140h-296l-5 -14q-37 -94 -43.5 -134.5t8 -53t62.5 -16.5v-18h-224zM356 610l-128 -325h257zM157 922h157l83 -129h-21z" />
    <glyph glyph-name="Aacute" unicode="&#xc1;" horiz-adv-x="783" 
d="M5 0h1v18q50 4 70.5 30.5t65.5 139.5l217 544q32 3 51 31h4l258 -645q23 -61 41 -79.5t65 -20.5v-18h-290v18q53 6 69.5 23t1.5 55l-56 140h-296l-5 -14q-37 -94 -43.5 -134.5t8 -53t62.5 -16.5v-18h-224zM356 610l-128 -325h257zM612 922l-219 -129h-21l83 129h157z" />
    <glyph glyph-name="Acircumflex" unicode="&#xc2;" horiz-adv-x="783" 
d="M5 0h1v18q50 4 70.5 30.5t65.5 139.5l217 544q32 3 51 31h4l258 -645q23 -61 41 -79.5t65 -20.5v-18h-290v18q53 6 69.5 23t1.5 55l-56 140h-296l-5 -14q-37 -94 -43.5 -134.5t8 -53t62.5 -16.5v-18h-224zM356 610l-128 -325h257zM387 932h16l145 -139h-23l-130 59
l-130 -59h-23z" />
    <glyph glyph-name="Atilde" unicode="&#xc3;" horiz-adv-x="783" 
d="M5 0h1v18q50 4 70.5 30.5t65.5 139.5l217 544q32 3 51 31h4l258 -645q23 -61 41 -79.5t65 -20.5v-18h-290v18q53 6 69.5 23t1.5 55l-56 140h-296l-5 -14q-37 -94 -43.5 -134.5t8 -53t62.5 -16.5v-18h-224zM356 610l-128 -325h257zM500 864h2q51 0 61 50h16q0 -53 -24 -90
t-69 -37q-34 0 -83.5 30.5t-79.5 30.5q-53 0 -63 -50h-16q0 53 24 90t69 37q33 0 83.5 -30.5t79.5 -30.5z" />
    <glyph glyph-name="Adieresis" unicode="&#xc4;" horiz-adv-x="783" 
d="M5 0h1v18q50 4 70.5 30.5t65.5 139.5l217 544q32 3 51 31h4l258 -645q23 -61 41 -79.5t65 -20.5v-18h-290v18q53 6 69.5 23t1.5 55l-56 140h-296l-5 -14q-37 -94 -43.5 -134.5t8 -53t62.5 -16.5v-18h-224zM356 610l-128 -325h257zM446 859q0 27 17.5 45t44.5 18
q26 0 44 -18.5t18 -44.5q0 -27 -18 -45t-44 -18q-27 0 -44.5 17.5t-17.5 45.5zM218 859q0 27 17.5 45t44.5 18q26 0 43.5 -18.5t17.5 -44.5q0 -28 -17.5 -45.5t-43.5 -17.5q-27 0 -44.5 17.5t-17.5 45.5z" />
    <glyph glyph-name="Aring" unicode="&#xc5;" horiz-adv-x="783" 
d="M5 0h1v18q50 4 70.5 30.5t65.5 139.5l217 544q32 3 51 31h4l258 -645q23 -61 41 -79.5t65 -20.5v-18h-290v18q53 6 69.5 23t1.5 55l-56 140h-296l-5 -14q-37 -94 -43.5 -134.5t8 -53t62.5 -16.5v-18h-224zM356 610l-128 -325h257zM297 880q0 39 27 66.5t66 27.5
t66.5 -27.5t27.5 -66.5q0 -38 -27.5 -65.5t-66.5 -27.5t-66 27.5t-27 65.5zM336 880q0 -25 15 -40.5t39 -15.5q23 0 38.5 15.5t15.5 40.5t-15.5 41t-38.5 16q-24 0 -39 -16t-15 -41z" />
    <glyph glyph-name="AE" unicode="&#xc6;" horiz-adv-x="1094" 
d="M521 725l-1 1h254q146 0 221 3l29 -219h-18q-12 38 -26.5 66t-28.5 47.5t-37.5 32.5t-41 19.5t-52.5 10t-59 4t-73 0.5h-58v-293h141q45 0 70 25.5t33 86.5h18v-268h-18q-8 61 -33 86.5t-70 25.5h-141v-272q0 -29 8 -37.5t37 -8.5h14q64 0 104 3t80.5 13.5t66 30.5
t48.5 53.5t42 84.5h19l-39 -220q-76 1 -221 1h-368v16q67 8 83 26.5t16 93.5v100h-265l-9 -14q-28 -43 -45 -71.5t-28 -52.5t-13 -37.5t4 -23.5t19.5 -14.5t35.5 -6.5v-16h-238v16q54 4 90.5 37t101.5 134zM520 647l-227 -351h227v351z" />
    <glyph glyph-name="Ccedilla" unicode="&#xc7;" horiz-adv-x="738" 
d="M329 -119v1l63 106q-158 7 -250 115t-92 265q0 171 112.5 274.5t275.5 103.5q112 0 213 -40l21 -219h-18q-27 121 -84 172t-151 51q-101 0 -173.5 -86t-72.5 -257q0 -155 69 -243t186 -88q99 0 162 50.5t90 119.5l27 -10q-20 -81 -93.5 -141.5t-182.5 -66.5l-42 -71
q17 9 42 9q34 0 54.5 -20.5t20.5 -50.5q0 -46 -33 -70t-73 -24q-48 0 -99 29l10 22q26 -14 64 -14q28 0 45 12t17 35q0 33 -36.5 40.5t-62.5 -9.5z" />
    <glyph glyph-name="Egrave" unicode="&#xc8;" horiz-adv-x="711" 
d="M667 219l-39 -220q-76 1 -221 1h-368v18q68 8 83.5 27t15.5 101v433q0 30 -0.5 48t-6 33t-9.5 21t-19 12t-25.5 8t-38.5 6v18h353q146 0 221 3l29 -219h-18q-12 38 -26.5 66t-28.5 47.5t-37.5 32.5t-41 19.5t-52.5 10t-59 4t-73 0.5h-58v-293h141q45 0 70 25.5t33 86.5
h18v-268h-18q-8 61 -33 86.5t-70 25.5h-141v-272q0 -29 8 -37.5t37 -8.5h16q64 0 104 3t80 13.5t65.5 31t48.5 54t41 83.5h19zM184 922h157l83 -129h-21z" />
    <glyph glyph-name="Eacute" unicode="&#xc9;" horiz-adv-x="711" 
d="M667 219l-39 -220q-76 1 -221 1h-368v18q68 8 83.5 27t15.5 101v433q0 30 -0.5 48t-6 33t-9.5 21t-19 12t-25.5 8t-38.5 6v18h353q146 0 221 3l29 -219h-18q-12 38 -26.5 66t-28.5 47.5t-37.5 32.5t-41 19.5t-52.5 10t-59 4t-73 0.5h-58v-293h141q45 0 70 25.5t33 86.5
h18v-268h-18q-8 61 -33 86.5t-70 25.5h-141v-272q0 -29 8 -37.5t37 -8.5h16q64 0 104 3t80 13.5t65.5 31t48.5 54t41 83.5h19zM580 922l-219 -129h-21l83 129h157z" />
    <glyph glyph-name="Ecircumflex" unicode="&#xca;" horiz-adv-x="711" 
d="M667 219l-39 -220q-76 1 -221 1h-368v18q68 8 83.5 27t15.5 101v433q0 30 -0.5 48t-6 33t-9.5 21t-19 12t-25.5 8t-38.5 6v18h353q146 0 221 3l29 -219h-18q-12 38 -26.5 66t-28.5 47.5t-37.5 32.5t-41 19.5t-52.5 10t-59 4t-73 0.5h-58v-293h141q45 0 70 25.5t33 86.5
h18v-268h-18q-8 61 -33 86.5t-70 25.5h-141v-272q0 -29 8 -37.5t37 -8.5h16q64 0 104 3t80 13.5t65.5 31t48.5 54t41 83.5h19zM361 932h16l145 -139h-23l-130 59l-130 -59h-23z" />
    <glyph glyph-name="Edieresis" unicode="&#xcb;" horiz-adv-x="711" 
d="M667 219l-39 -220q-76 1 -221 1h-368v18q68 8 83.5 27t15.5 101v433q0 30 -0.5 48t-6 33t-9.5 21t-19 12t-25.5 8t-38.5 6v18h353q146 0 221 3l29 -219h-18q-12 38 -26.5 66t-28.5 47.5t-37.5 32.5t-41 19.5t-52.5 10t-59 4t-73 0.5h-58v-293h141q45 0 70 25.5t33 86.5
h18v-268h-18q-8 61 -33 86.5t-70 25.5h-141v-272q0 -29 8 -37.5t37 -8.5h16q64 0 104 3t80 13.5t65.5 31t48.5 54t41 83.5h19zM422 859q0 27 17.5 45t44.5 18q26 0 44 -18.5t18 -44.5q0 -27 -18 -45t-44 -18q-27 0 -44.5 17.5t-17.5 45.5zM194 859q0 27 17.5 45t44.5 18
q26 0 43.5 -18.5t17.5 -44.5q0 -28 -17.5 -45.5t-43.5 -17.5q-27 0 -44.5 17.5t-17.5 45.5z" />
    <glyph glyph-name="Igrave" unicode="&#xcc;" horiz-adv-x="386" 
d="M248 579v-433q0 -82 15.5 -101t83.5 -27v-18h-308v18q68 8 83.5 27t15.5 101v433q0 30 -0.5 48t-6 33t-9.5 21t-19 12t-25.5 8t-38.5 6v18h308v-18q-28 -4 -38.5 -6t-25.5 -8t-19 -12t-9.5 -21t-6 -33t-0.5 -48zM18 922h157l83 -129h-21z" />
    <glyph glyph-name="Iacute" unicode="&#xcd;" horiz-adv-x="386" 
d="M389 922l-219 -129h-21l83 129h157zM248 579v-433q0 -82 15.5 -101t83.5 -27v-18h-308v18q68 8 83.5 27t15.5 101v433q0 30 -0.5 48t-6 33t-9.5 21t-19 12t-25.5 8t-38.5 6v18h308v-18q-28 -4 -38.5 -6t-25.5 -8t-19 -12t-9.5 -21t-6 -33t-0.5 -48z" />
    <glyph glyph-name="Icircumflex" unicode="&#xce;" horiz-adv-x="386" 
d="M248 579v-433q0 -82 15.5 -101t83.5 -27v-18h-308v18q68 8 83.5 27t15.5 101v433q0 30 -0.5 48t-6 33t-9.5 21t-19 12t-25.5 8t-38.5 6v18h308v-18q-28 -4 -38.5 -6t-25.5 -8t-19 -12t-9.5 -21t-6 -33t-0.5 -48zM181 932h16l145 -139h-23l-130 59l-130 -59h-23z" />
    <glyph glyph-name="Idieresis" unicode="&#xcf;" horiz-adv-x="386" 
d="M248 579v-433q0 -82 15.5 -101t83.5 -27v-18h-308v18q68 8 83.5 27t15.5 101v433q0 30 -0.5 48t-6 33t-9.5 21t-19 12t-25.5 8t-38.5 6v18h308v-18q-28 -4 -38.5 -6t-25.5 -8t-19 -12t-9.5 -21t-6 -33t-0.5 -48zM247 859q0 27 17.5 45t44.5 18q26 0 44 -18.5t18 -44.5
q0 -27 -17.5 -45t-44.5 -18t-44.5 17.5t-17.5 45.5zM19 859q0 27 17.5 45t44.5 18q26 0 43.5 -18.5t17.5 -44.5q0 -28 -17.5 -45.5t-43.5 -17.5q-27 0 -44.5 17.5t-17.5 45.5z" />
    <glyph glyph-name="Eth" unicode="&#xd0;" horiz-adv-x="803" 
d="M50 725h326q73 0 139 -21t120.5 -63t87 -114t32.5 -164t-32.5 -164t-87 -114t-120.5 -63.5t-139 -21.5h-326v18q68 8 83.5 27t15.5 101v206h-99v44h99v183q0 30 -0.5 48t-6 33t-9.5 21t-19 12t-25.5 8t-38.5 6v18zM259 36h117q112 0 184.5 86t72.5 241q0 154 -72.5 240
t-184.5 86h-117v-293h156v-44h-156v-316z" />
    <glyph glyph-name="Ntilde" unicode="&#xd1;" horiz-adv-x="804" 
d="M641 175v-1v404q0 30 -0.5 48t-6 33t-9.5 21t-19 12t-25.5 8t-38.5 6v18h244v-18q-28 -4 -38.5 -6t-25.5 -8t-19 -12t-9.5 -21t-6 -33t-0.5 -48v-589h-41l-464 582v-426q0 -82 15.5 -101t83.5 -27v-18h-244v18q68 8 83.5 27t15.5 101v484q-48 63 -84 80v16h151zM524 863
h2q51 0 61 50h16q0 -53 -24 -90t-69 -37q-34 0 -83.5 30.5t-79.5 30.5q-53 0 -63 -50h-16q0 53 24 90t69 37q33 0 83.5 -30.5t79.5 -30.5z" />
    <glyph glyph-name="Ograve" unicode="&#xd2;" horiz-adv-x="844" 
d="M50 366q0 117 54.5 205t138 131t179.5 43t179.5 -43t138 -131t54.5 -205t-54.5 -205t-138 -131t-179.5 -43t-179.5 43t-138 131t-54.5 205zM671 366q0 152 -70 247.5t-179 95.5t-179 -95.5t-70 -247.5t70 -247.5t179 -95.5t179 95.5t70 247.5zM258 922h157l83 -129h-21z
" />
    <glyph glyph-name="Oacute" unicode="&#xd3;" horiz-adv-x="844" 
d="M50 366q0 117 54.5 205t138 131t179.5 43t179.5 -43t138 -131t54.5 -205t-54.5 -205t-138 -131t-179.5 -43t-179.5 43t-138 131t-54.5 205zM671 366q0 152 -70 247.5t-179 95.5t-179 -95.5t-70 -247.5t70 -247.5t179 -95.5t179 95.5t70 247.5zM626 922l-219 -129h-21
l83 129h157z" />
    <glyph glyph-name="Ocircumflex" unicode="&#xd4;" horiz-adv-x="844" 
d="M50 366q0 117 54.5 205t138 131t179.5 43t179.5 -43t138 -131t54.5 -205t-54.5 -205t-138 -131t-179.5 -43t-179.5 43t-138 131t-54.5 205zM671 366q0 152 -70 247.5t-179 95.5t-179 -95.5t-70 -247.5t70 -247.5t179 -95.5t179 95.5t70 247.5zM414 932h16l145 -139h-23
l-130 59l-130 -59h-23z" />
    <glyph glyph-name="Otilde" unicode="&#xd5;" horiz-adv-x="844" 
d="M50 366q0 117 54.5 205t138 131t179.5 43t179.5 -43t138 -131t54.5 -205t-54.5 -205t-138 -131t-179.5 -43t-179.5 43t-138 131t-54.5 205zM671 366q0 152 -70 247.5t-179 95.5t-179 -95.5t-70 -247.5t70 -247.5t179 -95.5t179 95.5t70 247.5zM516 864h2q51 0 61 50h16
q0 -53 -24 -90t-69 -37q-34 0 -83.5 30.5t-79.5 30.5q-53 0 -63 -50h-16q0 53 24 90t69 37q33 0 83.5 -30.5t79.5 -30.5z" />
    <glyph glyph-name="Odieresis" unicode="&#xd6;" horiz-adv-x="844" 
d="M50 366q0 117 54.5 205t138 131t179.5 43t179.5 -43t138 -131t54.5 -205t-54.5 -205t-138 -131t-179.5 -43t-179.5 43t-138 131t-54.5 205zM671 366q0 152 -70 247.5t-179 95.5t-179 -95.5t-70 -247.5t70 -247.5t179 -95.5t179 95.5t70 247.5zM474 859q0 27 17.5 45
t44.5 18q26 0 44 -18.5t18 -44.5q0 -27 -18 -45t-44 -18q-27 0 -44.5 17.5t-17.5 45.5zM246 859q0 27 17.5 45t44.5 18q26 0 43.5 -18.5t17.5 -44.5q0 -28 -17.5 -45.5t-43.5 -17.5q-27 0 -44.5 17.5t-17.5 45.5z" />
    <glyph glyph-name="multiply" unicode="&#xd7;" 
d="M574 87l-50 -49l-186 186l-185 -185l-49 49l185 186l-185 185l49 49l185 -185l185 185l49 -49l-184 -185z" />
    <glyph glyph-name="Oslash" unicode="&#xd8;" horiz-adv-x="844" 
d="M50 366v1q0 117 54.5 205t138 131t179.5 43q99 0 185 -47l69 98l35 -23l-69 -98q70 -51 111 -129.5t41 -179.5q0 -117 -54.5 -205t-138 -131t-179.5 -43q-121 0 -218 67l-72 -102l-35 23l74 105q-121 109 -121 285zM671 367q0 154 -71 249l-354 -501q68 -91 176 -91
q109 0 179 95.5t70 247.5zM173 367q0 -124 49 -214l349 496q-63 61 -149 61q-109 0 -179 -95.5t-70 -247.5z" />
    <glyph glyph-name="Ugrave" unicode="&#xd9;" horiz-adv-x="785" 
d="M121 273v306q0 30 -0.5 48t-6 33t-9.5 21t-19 12t-25.5 8t-38.5 6v18h308v-18q-28 -4 -38.5 -6t-25.5 -8t-19 -12t-9.5 -21t-6 -33t-0.5 -48v-296q0 -248 188 -248q199 0 199 263v281q0 30 -0.5 48t-6 33t-9.5 21t-19 12t-25.5 8t-38.5 6v18h244v-18q-28 -4 -38.5 -6
t-25.5 -8t-19 -12t-9.5 -21t-6 -33t-0.5 -48v-280q0 -158 -66 -235t-207 -77q-145 0 -207.5 75t-62.5 211zM227 922h157l83 -129h-21z" />
    <glyph glyph-name="Uacute" unicode="&#xda;" horiz-adv-x="785" 
d="M121 273v306q0 30 -0.5 48t-6 33t-9.5 21t-19 12t-25.5 8t-38.5 6v18h308v-18q-28 -4 -38.5 -6t-25.5 -8t-19 -12t-9.5 -21t-6 -33t-0.5 -48v-296q0 -248 188 -248q199 0 199 263v281q0 30 -0.5 48t-6 33t-9.5 21t-19 12t-25.5 8t-38.5 6v18h244v-18q-28 -4 -38.5 -6
t-25.5 -8t-19 -12t-9.5 -21t-6 -33t-0.5 -48v-280q0 -158 -66 -235t-207 -77q-145 0 -207.5 75t-62.5 211zM626 922l-219 -129h-21l83 129h157z" />
    <glyph glyph-name="Ucircumflex" unicode="&#xdb;" horiz-adv-x="785" 
d="M121 273v306q0 30 -0.5 48t-6 33t-9.5 21t-19 12t-25.5 8t-38.5 6v18h308v-18q-28 -4 -38.5 -6t-25.5 -8t-19 -12t-9.5 -21t-6 -33t-0.5 -48v-296q0 -248 188 -248q199 0 199 263v281q0 30 -0.5 48t-6 33t-9.5 21t-19 12t-25.5 8t-38.5 6v18h244v-18q-28 -4 -38.5 -6
t-25.5 -8t-19 -12t-9.5 -21t-6 -33t-0.5 -48v-280q0 -158 -66 -235t-207 -77q-145 0 -207.5 75t-62.5 211zM413 932h16l145 -139h-23l-130 59l-130 -59h-23z" />
    <glyph glyph-name="Udieresis" unicode="&#xdc;" horiz-adv-x="785" 
d="M121 273v306q0 30 -0.5 48t-6 33t-9.5 21t-19 12t-25.5 8t-38.5 6v18h308v-18q-28 -4 -38.5 -6t-25.5 -8t-19 -12t-9.5 -21t-6 -33t-0.5 -48v-296q0 -248 188 -248q199 0 199 263v281q0 30 -0.5 48t-6 33t-9.5 21t-19 12t-25.5 8t-38.5 6v18h244v-18q-28 -4 -38.5 -6
t-25.5 -8t-19 -12t-9.5 -21t-6 -33t-0.5 -48v-280q0 -158 -66 -235t-207 -77q-145 0 -207.5 75t-62.5 211zM476 859q0 27 17.5 45t44.5 18q26 0 44 -18.5t18 -44.5q0 -27 -18 -45t-44 -18q-27 0 -44.5 17.5t-17.5 45.5zM248 859q0 27 17.5 45t44.5 18q26 0 43.5 -18.5
t17.5 -44.5q0 -28 -17.5 -45.5t-43.5 -17.5q-27 0 -44.5 17.5t-17.5 45.5z" />
    <glyph glyph-name="Yacute" unicode="&#xdd;" horiz-adv-x="727" 
d="M409 289v-143q0 -77 18.5 -99t91.5 -28v-19h-330v19q73 6 91.5 28t18.5 99v139l-188 325q-31 54 -51 72.5t-55 24.5v18h290v-18q-53 -6 -69 -23t2 -52l163 -289l133 224q46 81 39 108.5t-60 31.5v18h219v-18q-41 -6 -69 -30t-60 -78zM612 922l-219 -129h-21l83 129h157z
" />
    <glyph glyph-name="Thorn" unicode="&#xde;" horiz-adv-x="662" 
d="M248 221h86q101 0 148.5 36.5t47.5 137.5t-47.5 137.5t-148.5 36.5h-86v-348zM652 395q0 -211 -310 -211h-94v-39q0 -44 1.5 -62t13 -34.5t32 -21.5t61.5 -8v-19h-317v18q68 8 83.5 27t15.5 101v433q0 30 -0.5 48t-6 33t-9.5 21t-19 12t-25.5 8t-38.5 6v18h209v-120h94
q310 0 310 -210z" />
    <glyph glyph-name="germandbls" unicode="&#xdf;" horiz-adv-x="670" 
d="M43 0v1v18q57 6 68.5 26t11.5 100v358q0 132 67.5 215.5t180.5 83.5q95 0 147.5 -40.5t52.5 -105.5q0 -52 -38.5 -98t-92.5 -72v-3q84 -35 131.5 -103.5t47.5 -149.5q0 -102 -69.5 -172.5t-165.5 -70.5q-72 0 -123 14v72h2q25 -18 39 -26.5t35.5 -16t44.5 -7.5
q64 0 99.5 49.5t35.5 118.5q0 80 -50.5 147.5t-149.5 84.5v22l23 10q138 59 138 186q0 124 -114 124q-142 0 -142 -247v-315l2 -203h-181z" />
    <glyph glyph-name="agrave" unicode="&#xe0;" horiz-adv-x="551" 
d="M117 772h124l74 -169h-16zM356 64q-43 -40 -74 -58q-29 -19 -84 -19q-59 0 -108.5 38t-49.5 94q0 46 37.5 78.5t123.5 74.5q55 26 157 70v23q0 76 -25.5 109t-77.5 33q-64 0 -84 -36.5t-16 -102.5h-101q0 66 66 122t159 56q79 0 127 -38.5t46 -131.5l-5 -259
q-1 -40 7 -52.5t30 -12.5q17 0 44 20l10 -10q-2 -3 -11 -14t-12.5 -15t-12 -13t-14 -12.5t-14.5 -8.5t-18 -7t-19 -2q-33 0 -55.5 19t-25.5 55zM353 92l3 216q-93 -34 -142 -66q-34 -22 -49 -42.5t-13 -51.5q2 -40 32 -72.5t73 -32.5q49 0 96 49z" />
    <glyph glyph-name="aacute" unicode="&#xe1;" horiz-adv-x="551" 
d="M325 772h124l-182 -169h-16zM356 64q-43 -40 -74 -58q-29 -19 -84 -19q-59 0 -108.5 38t-49.5 94q0 46 37.5 78.5t123.5 74.5q55 26 157 70v23q0 76 -25.5 109t-77.5 33q-64 0 -84 -36.5t-16 -102.5h-101q0 66 66 122t159 56q79 0 127 -38.5t46 -131.5l-5 -259
q-1 -40 7 -52.5t30 -12.5q17 0 44 20l10 -10q-2 -3 -11 -14t-12.5 -15t-12 -13t-14 -12.5t-14.5 -8.5t-18 -7t-19 -2q-33 0 -55.5 19t-25.5 55zM353 92l3 216q-93 -34 -142 -66q-34 -22 -49 -42.5t-13 -51.5q2 -40 32 -72.5t73 -32.5q49 0 96 49z" />
    <glyph glyph-name="acircumflex" unicode="&#xe2;" horiz-adv-x="551" 
d="M279 772l158 -169h-20l-145 83l-145 -83h-19l158 169h13zM356 64q-43 -40 -74 -58q-29 -19 -84 -19q-59 0 -108.5 38t-49.5 94q0 46 37.5 78.5t123.5 74.5q55 26 157 70v23q0 76 -25.5 109t-77.5 33q-64 0 -84 -36.5t-16 -102.5h-101q0 66 66 122t159 56q79 0 127 -38.5
t46 -131.5l-5 -259q-1 -40 7 -52.5t30 -12.5q17 0 44 20l10 -10q-2 -3 -11 -14t-12.5 -15t-12 -13t-14 -12.5t-14.5 -8.5t-18 -7t-19 -2q-33 0 -55.5 19t-25.5 55zM353 92l3 216q-93 -34 -142 -66q-34 -22 -49 -42.5t-13 -51.5q2 -40 32 -72.5t73 -32.5q49 0 96 49z" />
    <glyph glyph-name="atilde" unicode="&#xe3;" horiz-adv-x="551" 
d="M129 635h1h-19q0 53 24 94.5t70 41.5q30 0 79.5 -31.5t70.5 -31.5q27 0 40 14t15 46h19q0 -131 -86 -131q-35 0 -84 31.5t-74 31.5q-24 0 -39 -17t-17 -48zM357 64q-43 -40 -74 -58q-29 -19 -84 -19q-59 0 -108.5 38t-49.5 94q0 46 37.5 78.5t123.5 74.5q55 26 157 70v23
q0 76 -25.5 109t-77.5 33q-64 0 -84 -36.5t-16 -102.5h-101q0 66 66 122t159 56q79 0 127 -38.5t46 -131.5l-5 -259q-1 -40 7 -52.5t30 -12.5q17 0 44 20l10 -10q-2 -3 -11 -14t-12.5 -15t-12 -13t-14 -12.5t-14.5 -8.5t-18 -7t-19 -2q-33 0 -55.5 19t-25.5 55zM354 92
l3 216q-93 -34 -142 -66q-34 -22 -49 -42.5t-13 -51.5q2 -40 32 -72.5t73 -32.5q49 0 96 49z" />
    <glyph glyph-name="adieresis" unicode="&#xe4;" horiz-adv-x="551" 
d="M102 710q0 26 17.5 44t44.5 18q26 0 43.5 -18t17.5 -44q0 -28 -17.5 -45.5t-43.5 -17.5q-27 0 -44.5 17.5t-17.5 45.5zM320 710q0 26 18 44t45 18q25 0 43 -18t18 -44q0 -27 -18 -45t-43 -18q-27 0 -45 17.5t-18 45.5zM356 64q-43 -40 -74 -58q-29 -19 -84 -19
q-59 0 -108.5 38t-49.5 94q0 46 37.5 78.5t123.5 74.5q55 26 157 70v23q0 76 -25.5 109t-77.5 33q-64 0 -84 -36.5t-16 -102.5h-101q0 66 66 122t159 56q79 0 127 -38.5t46 -131.5l-5 -259q-1 -40 7 -52.5t30 -12.5q17 0 44 20l10 -10q-2 -3 -11 -14t-12.5 -15t-12 -13
t-14 -12.5t-14.5 -8.5t-18 -7t-19 -2q-33 0 -55.5 19t-25.5 55zM353 92l3 216q-93 -34 -142 -66q-34 -22 -49 -42.5t-13 -51.5q2 -40 32 -72.5t73 -32.5q49 0 96 49z" />
    <glyph glyph-name="aring" unicode="&#xe5;" horiz-adv-x="551" 
d="M177 702q0 40 27 67t66 27t66.5 -27t27.5 -67q0 -38 -27.5 -65.5t-66.5 -27.5t-66 27.5t-27 65.5zM216 702q0 -25 15 -40t39 -15t39 15.5t15 39.5q0 25 -15.5 41t-38.5 16q-24 0 -39 -16t-15 -41zM356 64q-43 -40 -74 -58q-29 -19 -84 -19q-59 0 -108.5 38t-49.5 94
q0 46 37.5 78.5t123.5 74.5q55 26 157 70v23q0 76 -25.5 109t-77.5 33q-64 0 -84 -36.5t-16 -102.5h-101q0 66 66 122t159 56q79 0 127 -38.5t46 -131.5l-5 -259q-1 -40 7 -52.5t30 -12.5q17 0 44 20l10 -10q-2 -3 -11 -14t-12.5 -15t-12 -13t-14 -12.5t-14.5 -8.5t-18 -7
t-19 -2q-33 0 -55.5 19t-25.5 55zM353 92l3 216q-93 -34 -142 -66q-34 -22 -49 -42.5t-13 -51.5q2 -40 32 -72.5t73 -32.5q49 0 96 49z" />
    <glyph glyph-name="ae" unicode="&#xe6;" horiz-adv-x="844" 
d="M589 -13h-1q-139 0 -199 108q-77 -108 -191 -108q-59 0 -108.5 38t-49.5 94q0 46 37.5 78.5t123.5 74.5q55 26 157 70v23q0 76 -25.5 109t-77.5 33q-64 0 -84 -36.5t-16 -102.5h-101q0 66 66 122t159 56q107 0 142 -83q73 84 175 84q80 0 137 -55.5t66 -161.5h-359v-4
q0 -112 51 -182t145 -70t161 67l11 -10q-30 -57 -85.5 -100.5t-133.5 -43.5zM571 511q-49 0 -85 -35t-45 -107h236q-1 68 -29 105t-77 37zM352 107l2 201q-93 -34 -142 -66q-34 -22 -49 -42.5t-13 -51.5q2 -39 31 -64.5t75 -25.5q49 0 96 49z" />
    <glyph glyph-name="ccedilla" unicode="&#xe7;" horiz-adv-x="504" 
d="M169 -119h3l64 108q-95 12 -145 87t-50 181q0 130 81.5 210t196.5 80q62 0 104 -30.5t42 -70.5q0 -24 -15.5 -39t-41.5 -15q-35 0 -48 28l-32 66q-10 20 -37 20q-63 0 -111.5 -49t-48.5 -151q0 -97 49.5 -164.5t142.5 -67.5q81 0 145 58l11 -10q-79 -133 -208 -135
l-42 -70q17 9 42 9q34 0 54.5 -20.5t20.5 -50.5q0 -46 -33 -70t-73 -24q-48 0 -99 29l10 22q26 -14 64 -14q28 0 45 12t17 35q0 33 -36.5 40.5t-62.5 -9.5z" />
    <glyph glyph-name="egrave" unicode="&#xe8;" horiz-adv-x="532" 
d="M277 -13q-118 0 -178.5 77t-60.5 201q0 117 72 199.5t174 82.5q80 0 137 -55.5t66 -161.5h-359v-4q0 -112 51 -182t145 -70t161 67l11 -10q-30 -57 -85.5 -100.5t-133.5 -43.5zM260 511q-49 0 -85 -35t-45 -107h236q-1 68 -29 105t-77 37zM105 772h124l74 -169h-16z" />
    <glyph glyph-name="eacute" unicode="&#xe9;" horiz-adv-x="532" 
d="M277 -13q-118 0 -178.5 77t-60.5 201q0 117 72 199.5t174 82.5q80 0 137 -55.5t66 -161.5h-359v-4q0 -112 51 -182t145 -70t161 67l11 -10q-30 -57 -85.5 -100.5t-133.5 -43.5zM260 511q-49 0 -85 -35t-45 -107h236q-1 68 -29 105t-77 37zM321 772h124l-182 -169h-16z
" />
    <glyph glyph-name="ecircumflex" unicode="&#xea;" horiz-adv-x="532" 
d="M277 -13q-118 0 -178.5 77t-60.5 201q0 117 72 199.5t174 82.5q80 0 137 -55.5t66 -161.5h-359v-4q0 -112 51 -182t145 -70t161 67l11 -10q-30 -57 -85.5 -100.5t-133.5 -43.5zM260 511q-49 0 -85 -35t-45 -107h236q-1 68 -29 105t-77 37zM285 772l158 -169h-20l-145 83
l-145 -83h-19l158 169h13z" />
    <glyph glyph-name="edieresis" unicode="&#xeb;" horiz-adv-x="532" 
d="M277 -13q-118 0 -178.5 77t-60.5 201q0 117 72 199.5t174 82.5q80 0 137 -55.5t66 -161.5h-359v-4q0 -112 51 -182t145 -70t161 67l11 -10q-30 -57 -85.5 -100.5t-133.5 -43.5zM260 511q-49 0 -85 -35t-45 -107h236q-1 68 -29 105t-77 37zM115 710q0 26 17.5 44t44.5 18
q26 0 43.5 -18t17.5 -44q0 -28 -17.5 -45.5t-43.5 -17.5q-27 0 -44.5 17.5t-17.5 45.5zM333 710q0 26 18 44t45 18q25 0 43 -18t18 -44q0 -27 -18 -45t-43 -18q-27 0 -45 17.5t-18 45.5z" />
    <glyph glyph-name="igrave" unicode="&#xec;" horiz-adv-x="338" 
d="M223 328v-184q0 -80 11.5 -100t68.5 -26v-18h-260v18q57 6 68.5 26t11.5 100v225q0 74 -10 86.5t-70 12.5v18l182 61q-2 -106 -2 -219zM16 772h124l74 -169h-16z" />
    <glyph glyph-name="iacute" unicode="&#xed;" horiz-adv-x="338" 
d="M189 772h124l-182 -169h-16zM223 328v-184q0 -80 11.5 -100t68.5 -26v-18h-260v18q57 6 68.5 26t11.5 100v225q0 74 -10 86.5t-70 12.5v18l182 61q-2 -106 -2 -219z" />
    <glyph glyph-name="icircumflex" unicode="&#xee;" horiz-adv-x="338" 
d="M174 772l158 -169h-20l-145 83l-145 -83h-19l158 169h13zM223 328v-184q0 -80 11.5 -100t68.5 -26v-18h-260v18q57 6 68.5 26t11.5 100v225q0 74 -10 86.5t-70 12.5v18l182 61q-2 -106 -2 -219z" />
    <glyph glyph-name="idieresis" unicode="&#xef;" horiz-adv-x="338" 
d="M-2 710q0 26 17.5 44t44.5 18q26 0 43.5 -18t17.5 -44q0 -28 -17.5 -45.5t-43.5 -17.5q-27 0 -44.5 17.5t-17.5 45.5zM216 710q0 26 18 44t45 18q25 0 43 -18t18 -44q0 -27 -18 -45t-43 -18q-27 0 -45 17.5t-18 45.5zM223 328v-184q0 -80 11.5 -100t68.5 -26v-18h-260v18
q57 6 68.5 26t11.5 100v225q0 74 -10 86.5t-70 12.5v18l182 61q-2 -106 -2 -219z" />
    <glyph glyph-name="eth" unicode="&#xf0;" horiz-adv-x="591" 
d="M292 -13h1q-109 0 -181.5 74t-72.5 193q0 125 78 209t179 84q49 0 87 -26q-50 101 -153 163l-75 -82l-24 21l70 78q-49 25 -105 45l6 16q59 -10 124 -34l61 67l25 -21l-54 -59q127 -57 207.5 -162t80.5 -235q0 -146 -69 -238.5t-185 -92.5zM435 250q0 117 -24 199
q-15 28 -47 45.5t-68 17.5q-73 0 -109.5 -60t-36.5 -160q0 -112 41.5 -190.5t113.5 -78.5q57 0 93.5 52.5t36.5 174.5z" />
    <glyph glyph-name="ntilde" unicode="&#xf1;" horiz-adv-x="603" 
d="M18 468v18l178 61l2 -90q73 90 159 90q69 0 110 -47.5t41 -142.5v-213q0 -80 11.5 -100t68.5 -26v-18h-260v18q57 6 68.5 26t11.5 100v193q0 72 -24 106t-77 34q-76 0 -109 -47v-286q0 -80 11.5 -100t68.5 -26v-18h-260v18q57 6 68.5 26t11.5 100v225q0 74 -10 86.5
t-70 12.5zM163 635h1h-19q0 53 24 94.5t70 41.5q29 0 79 -31.5t71 -31.5q27 0 40 14t15 46h19q0 -131 -86 -131q-35 0 -84 31.5t-74 31.5q-24 0 -39 -17t-17 -48z" />
    <glyph glyph-name="ograve" unicode="&#xf2;" horiz-adv-x="624" 
d="M296 507q-146 0 -146 -204q0 -41 9.5 -86t29 -89t55 -72.5t81.5 -28.5q71 0 107 53t36 151q0 41 -9.5 86t-28.5 89t-54 72.5t-80 28.5zM306 547q110 0 191.5 -79.5t81.5 -199.5q0 -117 -78 -199t-188 -82q-109 0 -191 80t-82 200q0 118 77 199t189 81zM138 772h124
l74 -169h-16z" />
    <glyph glyph-name="oacute" unicode="&#xf3;" horiz-adv-x="624" 
d="M296 507q-146 0 -146 -204q0 -41 9.5 -86t29 -89t55 -72.5t81.5 -28.5q71 0 107 53t36 151q0 41 -9.5 86t-28.5 89t-54 72.5t-80 28.5zM306 547q110 0 191.5 -79.5t81.5 -199.5q0 -117 -78 -199t-188 -82q-109 0 -191 80t-82 200q0 118 77 199t189 81zM342 772h124
l-182 -169h-16z" />
    <glyph glyph-name="ocircumflex" unicode="&#xf4;" horiz-adv-x="624" 
d="M296 507q-146 0 -146 -204q0 -41 9.5 -86t29 -89t55 -72.5t81.5 -28.5q71 0 107 53t36 151q0 41 -9.5 86t-28.5 89t-54 72.5t-80 28.5zM306 547q110 0 191.5 -79.5t81.5 -199.5q0 -117 -78 -199t-188 -82q-109 0 -191 80t-82 200q0 118 77 199t189 81zM315 772l158 -169
h-20l-145 83l-145 -83h-19l158 169h13z" />
    <glyph glyph-name="otilde" unicode="&#xf5;" horiz-adv-x="624" 
d="M296 507q-146 0 -146 -204q0 -41 9.5 -86t29 -89t55 -72.5t81.5 -28.5q71 0 107 53t36 151q0 41 -9.5 86t-28.5 89t-54 72.5t-80 28.5zM306 547q110 0 191.5 -79.5t81.5 -199.5q0 -117 -78 -199t-188 -82q-109 0 -191 80t-82 200q0 118 77 199t189 81zM170 635h1h-19
q0 53 24 94.5t70 41.5q30 0 80 -31.5t70 -31.5q27 0 40 14t15 46h19q0 -131 -86 -131q-35 0 -84 31.5t-74 31.5q-24 0 -39 -17t-17 -48z" />
    <glyph glyph-name="odieresis" unicode="&#xf6;" horiz-adv-x="624" 
d="M296 507q-146 0 -146 -204q0 -41 9.5 -86t29 -89t55 -72.5t81.5 -28.5q71 0 107 53t36 151q0 41 -9.5 86t-28.5 89t-54 72.5t-80 28.5zM306 547q110 0 191.5 -79.5t81.5 -199.5q0 -117 -78 -199t-188 -82q-109 0 -191 80t-82 200q0 118 77 199t189 81zM142 710
q0 26 17.5 44t44.5 18q26 0 43.5 -18t17.5 -44q0 -28 -17.5 -45.5t-43.5 -17.5q-27 0 -44.5 17.5t-17.5 45.5zM360 710q0 26 18 44t45 18q25 0 43 -18t18 -44q0 -27 -18 -45t-43 -18q-27 0 -45 17.5t-18 45.5z" />
    <glyph glyph-name="divide" unicode="&#xf7;" 
d="M294 62v101h95v-101h-95zM294 385v101h95v-101h-95zM597 240h-515v66h515v-66z" />
    <glyph glyph-name="oslash" unicode="&#xf8;" horiz-adv-x="624" 
d="M306 547l-1 -1q85 0 152 -47l43 60l35 -23l-45 -64q88 -81 88 -204q0 -117 -78 -199t-188 -82q-74 0 -138 39l-59 -83l-35 23l60 84q-100 85 -100 217q0 118 77 199t189 81zM295 506q-146 0 -146 -204q0 -99 41 -180l222 313q-47 71 -117 71zM467 230l-1 -1q0 85 -33 164
l-220 -310q44 -57 111 -57q71 0 107 53t36 151z" />
    <glyph glyph-name="ugrave" unicode="&#xf9;" horiz-adv-x="583" 
d="M490 345v1v-182q0 -71 10 -84.5t68 -15.5v-17l-163 -54l-12 96q-26 -42 -66 -71.5t-88 -29.5q-71 0 -114.5 49t-43.5 152q0 32 1 109.5t1 109.5q0 66 -11 81.5t-67 19.5v18l179 16q-2 -104 -2 -198v-138q0 -151 98 -151q69 0 110 65v287q0 66 -11 81.5t-67 19.5v18
l180 16q-2 -104 -2 -198zM133 773h124l74 -169h-16z" />
    <glyph glyph-name="uacute" unicode="&#xfa;" horiz-adv-x="583" 
d="M490 345v1v-182q0 -71 10 -84.5t68 -15.5v-17l-163 -54l-12 96q-26 -42 -66 -71.5t-88 -29.5q-71 0 -114.5 49t-43.5 152q0 32 1 109.5t1 109.5q0 66 -11 81.5t-67 19.5v18l179 16q-2 -104 -2 -198v-138q0 -151 98 -151q69 0 110 65v287q0 66 -11 81.5t-67 19.5v18
l180 16q-2 -104 -2 -198zM339 773h124l-182 -169h-16z" />
    <glyph glyph-name="ucircumflex" unicode="&#xfb;" horiz-adv-x="583" 
d="M490 345v1v-182q0 -71 10 -84.5t68 -15.5v-17l-163 -54l-12 96q-26 -42 -66 -71.5t-88 -29.5q-71 0 -114.5 49t-43.5 152q0 32 1 109.5t1 109.5q0 66 -11 81.5t-67 19.5v18l179 16q-2 -104 -2 -198v-138q0 -151 98 -151q69 0 110 65v287q0 66 -11 81.5t-67 19.5v18
l180 16q-2 -104 -2 -198zM292 773l158 -169h-20l-145 83l-145 -83h-19l158 169h13z" />
    <glyph glyph-name="udieresis" unicode="&#xfc;" horiz-adv-x="583" 
d="M490 345v1v-182q0 -71 10 -84.5t68 -15.5v-17l-163 -54l-12 96q-26 -42 -66 -71.5t-88 -29.5q-71 0 -114.5 49t-43.5 152q0 32 1 109.5t1 109.5q0 66 -11 81.5t-67 19.5v18l179 16q-2 -104 -2 -198v-138q0 -151 98 -151q69 0 110 65v287q0 66 -11 81.5t-67 19.5v18
l180 16q-2 -104 -2 -198zM109 711q0 26 17.5 44t44.5 18q26 0 43.5 -18t17.5 -44q0 -28 -17.5 -45.5t-43.5 -17.5q-27 0 -44.5 17.5t-17.5 45.5zM327 711q0 26 18 44t45 18q25 0 43 -18t18 -44q0 -27 -18 -45t-43 -18q-27 0 -45 17.5t-18 45.5z" />
    <glyph glyph-name="yacute" unicode="&#xfd;" horiz-adv-x="592" 
d="M151 -221v-2q-41 0 -64.5 17.5t-23.5 47.5q0 25 14.5 40.5t31.5 15.5t31 -16l49 -51q20 31 57 119l19 45l-192 456q-16 38 -29 52t-39 16v18h236v-18q-53 -4 -62.5 -23t10.5 -55l134 -319l111 266q18 47 21.5 71t-10 39t-49.5 22v18h192v-18q-38 -8 -51 -24t-38 -74
l-211 -496q-37 -84 -62.5 -115.5t-74.5 -31.5zM373 770h124l-182 -169h-16z" />
    <glyph glyph-name="thorn" unicode="&#xfe;" horiz-adv-x="639" 
d="M344 22h-1q72 0 108.5 63t36.5 164q0 104 -45.5 166t-118.5 62q-71 0 -102 -42v-344q34 -69 122 -69zM322 -198v-18h-280v18q57 6 68.5 26t11.5 100v717q0 74 -10 86.5t-70 12.5v18l182 61q-2 -106 -2 -219v-52l-2 -92q75 87 159 87q97 0 156 -76t59 -185
q0 -125 -76 -212t-176 -87q-75 0 -120 45v-104q0 -85 13 -102.5t87 -23.5z" />
    <glyph glyph-name="ydieresis" unicode="&#xff;" horiz-adv-x="592" 
d="M151 -221v-2q-41 0 -64.5 17.5t-23.5 47.5q0 25 14.5 40.5t31.5 15.5t31 -16l49 -51q20 31 57 119l19 45l-192 456q-16 38 -29 52t-39 16v18h236v-18q-53 -4 -62.5 -23t10.5 -55l134 -319l111 266q18 47 21.5 71t-10 39t-49.5 22v18h192v-18q-38 -8 -51 -24t-38 -74
l-211 -496q-37 -84 -62.5 -115.5t-74.5 -31.5zM142 708q0 26 17.5 44t44.5 18q26 0 43.5 -18t17.5 -44q0 -28 -17.5 -45.5t-43.5 -17.5q-27 0 -44.5 17.5t-17.5 45.5zM360 708q0 26 18 44t45 18q25 0 43 -18t18 -44q0 -27 -18 -45t-43 -18q-27 0 -45 17.5t-18 45.5z" />
    <glyph glyph-name="Amacron" unicode="&#x100;" horiz-adv-x="783" 
d="M5 0h1v18q50 4 70.5 30.5t65.5 139.5l217 544q32 3 51 31h4l258 -645q23 -61 41 -79.5t65 -20.5v-18h-290v18q53 6 69.5 23t1.5 55l-56 140h-296l-5 -14q-37 -94 -43.5 -134.5t8 -53t62.5 -16.5v-18h-224zM356 610l-128 -325h257zM545 818h-296v68h296v-68z" />
    <glyph glyph-name="amacron" unicode="&#x101;" horiz-adv-x="551" 
d="M412 665h-296v68h296v-68zM356 64q-43 -40 -74 -58q-29 -19 -84 -19q-59 0 -108.5 38t-49.5 94q0 46 37.5 78.5t123.5 74.5q55 26 157 70v23q0 76 -25.5 109t-77.5 33q-64 0 -84 -36.5t-16 -102.5h-101q0 66 66 122t159 56q79 0 127 -38.5t46 -131.5l-5 -259
q-1 -40 7 -52.5t30 -12.5q17 0 44 20l10 -10q-2 -3 -11 -14t-12.5 -15t-12 -13t-14 -12.5t-14.5 -8.5t-18 -7t-19 -2q-33 0 -55.5 19t-25.5 55zM353 92l3 216q-93 -34 -142 -66q-34 -22 -49 -42.5t-13 -51.5q2 -40 32 -72.5t73 -32.5q49 0 96 49z" />
    <glyph glyph-name="Abreve" unicode="&#x102;" horiz-adv-x="783" 
d="M5 0h1v18q50 4 70.5 30.5t65.5 139.5l217 544q32 3 51 31h4l258 -645q23 -61 41 -79.5t65 -20.5v-18h-290v18q53 6 69.5 23t1.5 55l-56 140h-296l-5 -14q-37 -94 -43.5 -134.5t8 -53t62.5 -16.5v-18h-224zM356 610l-128 -325h257zM394 826q82 0 88 96h48q0 -54 -35 -94.5
t-101 -40.5q-65 0 -99.5 40.5t-34.5 94.5h48q5 -96 86 -96z" />
    <glyph glyph-name="abreve" unicode="&#x103;" horiz-adv-x="551" 
d="M262 663h1q88 0 94 99h51q0 -56 -37.5 -98.5t-107.5 -42.5t-107.5 42.5t-37.5 98.5h51q8 -99 93 -99zM357 64q-43 -40 -74 -58q-29 -19 -84 -19q-59 0 -108.5 38t-49.5 94q0 46 37.5 78.5t123.5 74.5q55 26 157 70v23q0 76 -25.5 109t-77.5 33q-64 0 -84 -36.5
t-16 -102.5h-101q0 66 66 122t159 56q79 0 127 -38.5t46 -131.5l-5 -259q-1 -40 7 -52.5t30 -12.5q17 0 44 20l10 -10q-2 -3 -11 -14t-12.5 -15t-12 -13t-14 -12.5t-14.5 -8.5t-18 -7t-19 -2q-33 0 -55.5 19t-25.5 55zM354 92l3 216q-93 -34 -142 -66q-34 -22 -49 -42.5
t-13 -51.5q2 -40 32 -72.5t73 -32.5q49 0 96 49z" />
    <glyph glyph-name="Aogonek" unicode="&#x104;" horiz-adv-x="783" 
d="M355 610l-128 -325h257zM690 -155h1l7 -11q-50 -50 -110 -50q-37 0 -63.5 20.5t-26.5 60.5q0 36 36.5 72t85.5 63h-131v18q53 6 69.5 23t1.5 55l-56 140h-296l-5 -14q-37 -94 -43.5 -134.5t8 -53t62.5 -16.5v-18h-224v18q50 4 70.5 30.5t65.5 139.5l217 544q32 3 51 31h4
l258 -645q23 -61 41 -79.5t65 -20.5v-18h-134q-72 -50 -72 -109q0 -28 17 -45t42 -17q31 0 59 16z" />
    <glyph glyph-name="aogonek" unicode="&#x105;" horiz-adv-x="551" 
d="M356 64q-43 -40 -74 -58q-29 -19 -84 -19q-59 0 -108.5 38t-49.5 94q0 46 37.5 78.5t123.5 74.5q55 26 157 70v23q0 76 -25.5 109t-77.5 33q-64 0 -84 -36.5t-16 -102.5h-101q0 66 66 122t159 56q79 0 127 -38.5t46 -131.5l-5 -259q-1 -40 7 -52.5t30 -12.5q17 0 44 20
l10 -10q-3 -4 -12.5 -15.5t-14 -16.5t-13.5 -14t-16 -13t-17 -8t-21 -5q-41 -41 -41 -83q0 -28 17 -45t42 -17q31 0 59 16l7 -11q-50 -50 -110 -50q-37 0 -63.5 20.5t-26.5 60.5q0 55 84 112q-52 14 -56 71zM353 92l3 216q-93 -34 -142 -66q-34 -22 -49 -42.5t-13 -51.5
q2 -40 32 -72.5t73 -32.5q49 0 96 49z" />
    <glyph glyph-name="Cacute" unicode="&#x106;" horiz-adv-x="738" 
d="M172 366h-1q0 -155 69 -243t186 -88q99 0 162 50.5t90 119.5l27 -10q-21 -85 -100 -146.5t-196 -61.5q-166 0 -263 109.5t-97 270.5q0 171 112.5 274.5t275.5 103.5q112 0 213 -40l21 -219h-18q-27 121 -84 172t-151 51q-101 0 -173.5 -86t-72.5 -257zM639 922l-219 -129
h-21l83 129h157z" />
    <glyph glyph-name="cacute" unicode="&#x107;" horiz-adv-x="504" 
d="M316 547h1q62 0 104 -30.5t42 -70.5q0 -24 -15.5 -39t-41.5 -15q-35 0 -48 28l-32 66q-10 20 -37 20q-63 0 -111.5 -49t-48.5 -151q0 -97 49.5 -164.5t142.5 -67.5q81 0 145 58l11 -10q-79 -135 -211 -135q-111 0 -169.5 77.5t-58.5 192.5q0 130 81.5 210t196.5 80z
M342 772h124l-182 -169h-16z" />
    <glyph glyph-name="Ccircumflex" unicode="&#x108;" horiz-adv-x="738" 
d="M172 366h-1q0 -155 69 -243t186 -88q99 0 162 50.5t90 119.5l27 -10q-21 -85 -100 -146.5t-196 -61.5q-166 0 -263 109.5t-97 270.5q0 171 112.5 274.5t275.5 103.5q112 0 213 -40l21 -219h-18q-27 121 -84 172t-151 51q-101 0 -173.5 -86t-72.5 -257zM420 932h16
l145 -139h-23l-130 59l-130 -59h-23z" />
    <glyph glyph-name="ccircumflex" unicode="&#x109;" horiz-adv-x="504" 
d="M316 547h1q62 0 104 -30.5t42 -70.5q0 -24 -15.5 -39t-41.5 -15q-35 0 -48 28l-32 66q-10 20 -37 20q-63 0 -111.5 -49t-48.5 -151q0 -97 49.5 -164.5t142.5 -67.5q81 0 145 58l11 -10q-79 -135 -211 -135q-111 0 -169.5 77.5t-58.5 192.5q0 130 81.5 210t196.5 80z
M290 772l158 -169h-20l-145 83l-145 -83h-19l158 169h13z" />
    <glyph glyph-name="Cdotaccent" unicode="&#x10a;" horiz-adv-x="738" 
d="M172 366h-1q0 -155 69 -243t186 -88q99 0 162 50.5t90 119.5l27 -10q-21 -85 -100 -146.5t-196 -61.5q-166 0 -263 109.5t-97 270.5q0 171 112.5 274.5t275.5 103.5q112 0 213 -40l21 -219h-18q-27 121 -84 172t-151 51q-101 0 -173.5 -86t-72.5 -257zM358 859
q0 27 17.5 45t44.5 18q26 0 43.5 -18.5t17.5 -44.5q0 -28 -17.5 -45.5t-43.5 -17.5q-27 0 -44.5 17.5t-17.5 45.5z" />
    <glyph glyph-name="cdotaccent" unicode="&#x10b;" horiz-adv-x="504" 
d="M316 547h1q62 0 104 -30.5t42 -70.5q0 -24 -15.5 -39t-41.5 -15q-35 0 -48 28l-32 66q-10 20 -37 20q-63 0 -111.5 -49t-48.5 -151q0 -97 49.5 -164.5t142.5 -67.5q81 0 145 58l11 -10q-79 -135 -211 -135q-111 0 -169.5 77.5t-58.5 192.5q0 130 81.5 210t196.5 80z
M238 710q0 26 17.5 44t44.5 18q26 0 43.5 -18t17.5 -44q0 -28 -17.5 -45.5t-43.5 -17.5q-27 0 -44.5 17.5t-17.5 45.5z" />
    <glyph glyph-name="Ccaron" unicode="&#x10c;" horiz-adv-x="738" 
d="M172 366h-1q0 -155 69 -243t186 -88q99 0 162 50.5t90 119.5l27 -10q-21 -85 -100 -146.5t-196 -61.5q-166 0 -263 109.5t-97 270.5q0 171 112.5 274.5t275.5 103.5q112 0 213 -40l21 -219h-18q-27 121 -84 172t-151 51q-101 0 -173.5 -86t-72.5 -257zM428 793l-145 139
h23l130 -59l130 59h23l-145 -139h-16z" />
    <glyph glyph-name="ccaron" unicode="&#x10d;" horiz-adv-x="504" 
d="M316 547h1q62 0 104 -30.5t42 -70.5q0 -24 -15.5 -39t-41.5 -15q-35 0 -48 28l-32 66q-10 20 -37 20q-63 0 -111.5 -49t-48.5 -151q0 -97 49.5 -164.5t142.5 -67.5q81 0 145 58l11 -10q-79 -135 -211 -135q-111 0 -169.5 77.5t-58.5 192.5q0 130 81.5 210t196.5 80z
M306 603h-13l-158 169h19l145 -83l145 83h20z" />
    <glyph glyph-name="Dcaron" unicode="&#x10e;" horiz-adv-x="794" 
d="M248 36h117q112 0 184.5 86t72.5 241q0 154 -72.5 240t-184.5 86h-117v-653zM39 725h326q73 0 139 -21t120.5 -63t87 -114t32.5 -164t-32.5 -164t-87 -114t-120.5 -63.5t-139 -21.5h-326v18q68 8 83.5 27t15.5 101v433q0 30 -0.5 48t-6 33t-9.5 21t-19 12t-25.5 8
t-38.5 6v18zM374 793l-145 139h23l130 -59l130 59h23l-145 -139h-16z" />
    <glyph glyph-name="dcaron" unicode="&#x10f;" horiz-adv-x="673" 
d="M585 754q0 25 18 42.5t44 17.5q27 0 42.5 -18.5t15.5 -48.5q0 -54 -38 -108.5t-93 -80.5l-5 10q76 58 76 128q-25 2 -42.5 18t-17.5 40zM411 502v148q0 70 -11.5 82t-78.5 12v18l192 61q-2 -106 -2 -219v-441q0 -71 10 -84.5t68 -15.5v-17l-162 -54l-13 86
q-25 -41 -66.5 -66t-93.5 -25q-98 0 -157 74.5t-59 188.5q0 125 76 211t177 86q75 0 120 -45zM290 512q-72 0 -109 -62.5t-37 -161.5q0 -104 46.5 -169t119.5 -65q68 0 102 49v340q-34 69 -122 69z" />
    <glyph glyph-name="Dcroat" unicode="&#x110;" horiz-adv-x="803" 
d="M50 725h326q73 0 139 -21t120.5 -63t87 -114t32.5 -164t-32.5 -164t-87 -114t-120.5 -63.5t-139 -21.5h-326v18q68 8 83.5 27t15.5 101v206h-99v44h99v183q0 30 -0.5 48t-6 33t-9.5 21t-19 12t-25.5 8t-38.5 6v18zM259 36h117q112 0 184.5 86t72.5 241q0 154 -72.5 240
t-184.5 86h-117v-293h156v-44h-156v-316z" />
    <glyph glyph-name="dcroat" unicode="&#x111;" horiz-adv-x="604" 
d="M411 637v1v13q0 70 -11.5 82t-78.5 12v18l192 61q-2 -94 -2 -187h78v-39h-78v-435q0 -71 10 -84.5t68 -15.5v-17l-162 -54l-13 86q-25 -41 -66.5 -66t-93.5 -25q-98 0 -157 74.5t-59 188.5q0 125 76 211t177 86q75 0 120 -45v96h-153v39h153zM290 513q-72 0 -109 -62.5
t-37 -161.5q0 -104 46.5 -169t119.5 -65q68 0 102 49v340q-34 69 -122 69z" />
    <glyph glyph-name="Emacron" unicode="&#x112;" horiz-adv-x="711" 
d="M667 219l-39 -220q-76 1 -221 1h-368v18q68 8 83.5 27t15.5 101v433q0 30 -0.5 48t-6 33t-9.5 21t-19 12t-25.5 8t-38.5 6v18h353q146 0 221 3l29 -219h-18q-12 38 -26.5 66t-28.5 47.5t-37.5 32.5t-41 19.5t-52.5 10t-59 4t-73 0.5h-58v-293h141q45 0 70 25.5t33 86.5
h18v-268h-18q-8 61 -33 86.5t-70 25.5h-141v-272q0 -29 8 -37.5t37 -8.5h16q64 0 104 3t80 13.5t65.5 31t48.5 54t41 83.5h19zM526 818h-296v68h296v-68z" />
    <glyph glyph-name="emacron" unicode="&#x113;" horiz-adv-x="532" 
d="M277 -13q-118 0 -178.5 77t-60.5 201q0 117 72 199.5t174 82.5q80 0 137 -55.5t66 -161.5h-359v-4q0 -112 51 -182t145 -70t161 67l11 -10q-30 -57 -85.5 -100.5t-133.5 -43.5zM260 511q-49 0 -85 -35t-45 -107h236q-1 68 -29 105t-77 37zM429 665h-296v68h296v-68z" />
    <glyph glyph-name="Ebreve" unicode="&#x114;" horiz-adv-x="711" 
d="M667 219l-39 -220q-76 1 -221 1h-368v18q68 8 83.5 27t15.5 101v433q0 30 -0.5 48t-6 33t-9.5 21t-19 12t-25.5 8t-38.5 6v18h353q146 0 221 3l29 -219h-18q-12 38 -26.5 66t-28.5 47.5t-37.5 32.5t-41 19.5t-52.5 10t-59 4t-73 0.5h-58v-293h141q45 0 70 25.5t33 86.5
h18v-268h-18q-8 61 -33 86.5t-70 25.5h-141v-272q0 -29 8 -37.5t37 -8.5h16q64 0 104 3t80 13.5t65.5 31t48.5 54t41 83.5h19zM373 826q82 0 88 96h48q0 -54 -35 -94.5t-101 -40.5q-65 0 -99.5 40.5t-34.5 94.5h48q5 -96 86 -96z" />
    <glyph glyph-name="ebreve" unicode="&#x115;" horiz-adv-x="532" 
d="M277 -13q-118 0 -178.5 77t-60.5 201q0 117 72 199.5t174 82.5q80 0 137 -55.5t66 -161.5h-359v-4q0 -112 51 -182t145 -70t161 67l11 -10q-30 -57 -85.5 -100.5t-133.5 -43.5zM260 511q-49 0 -85 -35t-45 -107h236q-1 68 -29 105t-77 37zM285 663h1q88 0 94 99h51
q0 -56 -37.5 -98.5t-107.5 -42.5t-107.5 42.5t-37.5 98.5h51q8 -99 93 -99z" />
    <glyph glyph-name="Edotaccent" unicode="&#x116;" horiz-adv-x="711" 
d="M667 219l-39 -220q-76 1 -221 1h-368v18q68 8 83.5 27t15.5 101v433q0 30 -0.5 48t-6 33t-9.5 21t-19 12t-25.5 8t-38.5 6v18h353q146 0 221 3l29 -219h-18q-12 38 -26.5 66t-28.5 47.5t-37.5 32.5t-41 19.5t-52.5 10t-59 4t-73 0.5h-58v-293h141q45 0 70 25.5t33 86.5
h18v-268h-18q-8 61 -33 86.5t-70 25.5h-141v-272q0 -29 8 -37.5t37 -8.5h16q64 0 104 3t80 13.5t65.5 31t48.5 54t41 83.5h19zM312 859q0 27 17.5 45t44.5 18q26 0 43.5 -18.5t17.5 -44.5q0 -28 -17.5 -45.5t-43.5 -17.5q-27 0 -44.5 17.5t-17.5 45.5z" />
    <glyph glyph-name="edotaccent" unicode="&#x117;" horiz-adv-x="532" 
d="M277 -13q-118 0 -178.5 77t-60.5 201q0 117 72 199.5t174 82.5q80 0 137 -55.5t66 -161.5h-359v-4q0 -112 51 -182t145 -70t161 67l11 -10q-30 -57 -85.5 -100.5t-133.5 -43.5zM260 511q-49 0 -85 -35t-45 -107h236q-1 68 -29 105t-77 37zM217 710q0 26 17.5 44t44.5 18
q26 0 43.5 -18t17.5 -44q0 -28 -17.5 -45.5t-43.5 -17.5q-27 0 -44.5 17.5t-17.5 45.5z" />
    <glyph glyph-name="Eogonek" unicode="&#x118;" horiz-adv-x="711" 
d="M621 -155l1 1l7 -11q-50 -50 -110 -50q-37 0 -63.5 20.5t-26.5 60.5q0 36 36.5 72t85.5 63h-144h-368v18q68 8 83.5 27t15.5 101v433q0 30 -0.5 48t-6 33t-9.5 21t-19 12t-25.5 8t-38.5 6v18h353q146 0 221 3l29 -219h-18q-12 38 -26.5 66t-28.5 47.5t-37.5 32.5
t-41 19.5t-52.5 10t-59 4t-73 0.5h-58v-293h141q45 0 70 25.5t33 86.5h18v-268h-18q-8 61 -33 86.5t-70 25.5h-141v-272q0 -29 8 -37.5t37 -8.5h16q64 0 104 3t80 13.5t65.5 31t48.5 54t41 83.5h19l-39 -220h-54q-71 -49 -71 -109q0 -28 17 -45t42 -17q31 0 59 16z" />
    <glyph glyph-name="eogonek" unicode="&#x119;" horiz-adv-x="532" 
d="M260 511q-49 0 -85 -35t-45 -107h236q-1 68 -29 105t-77 37zM397 -155h1l7 -11q-50 -50 -110 -50q-37 0 -63.5 20.5t-26.5 60.5q0 61 102 124q-20 -2 -30 -2q-118 0 -178.5 77t-60.5 201q0 117 72 199.5t174 82.5q80 0 137 -55.5t66 -161.5h-359v-4q0 -112 51 -182
t145 -70t161 67l11 -10q-53 -101 -147 -133q-70 -50 -70 -107q0 -28 17 -45t42 -17q31 0 59 16z" />
    <glyph glyph-name="Ecaron" unicode="&#x11a;" horiz-adv-x="711" 
d="M667 219l-39 -220q-76 1 -221 1h-368v18q68 8 83.5 27t15.5 101v433q0 30 -0.5 48t-6 33t-9.5 21t-19 12t-25.5 8t-38.5 6v18h353q146 0 221 3l29 -219h-18q-12 38 -26.5 66t-28.5 47.5t-37.5 32.5t-41 19.5t-52.5 10t-59 4t-73 0.5h-58v-293h141q45 0 70 25.5t33 86.5
h18v-268h-18q-8 61 -33 86.5t-70 25.5h-141v-272q0 -29 8 -37.5t37 -8.5h16q64 0 104 3t80 13.5t65.5 31t48.5 54t41 83.5h19zM368 793l-145 139h23l130 -59l130 59h23l-145 -139h-16z" />
    <glyph glyph-name="ecaron" unicode="&#x11b;" horiz-adv-x="532" 
d="M277 -13q-118 0 -178.5 77t-60.5 201q0 117 72 199.5t174 82.5q80 0 137 -55.5t66 -161.5h-359v-4q0 -112 51 -182t145 -70t161 67l11 -10q-30 -57 -85.5 -100.5t-133.5 -43.5zM260 511q-49 0 -85 -35t-45 -107h236q-1 68 -29 105t-77 37zM287 603h-13l-158 169h19
l145 -83l145 83h20z" />
    <glyph glyph-name="Gcircumflex" unicode="&#x11c;" horiz-adv-x="814" 
d="M526 340h263v-22q-44 -6 -54 -27.5t-10 -98.5v-123q-58 -41 -143.5 -61.5t-158.5 -20.5q-90 0 -162.5 31t-117.5 83.5t-69 119.5t-24 142q0 171 112 276.5t284 105.5q133 0 233 -38l16 -221h-18q-29 122 -89.5 172.5t-156.5 50.5q-49 0 -92.5 -17.5t-82 -56t-61.5 -109
t-23 -165.5q0 -152 72.5 -244t189.5 -92q179 0 179 98v69q0 79 -13 100.5t-74 25.5v22zM429 932h16l145 -139h-23l-130 59l-130 -59h-23z" />
    <glyph glyph-name="gcircumflex" unicode="&#x11d;" horiz-adv-x="591" 
d="M271 212v1q-44 0 -68 8q-54 -46 -54 -79t66 -38l102 -4q99 -4 163.5 -37.5t64.5 -97.5q0 -27 -15.5 -57t-46.5 -60t-89.5 -50t-133.5 -20q-101 0 -163.5 37.5t-62.5 91.5q0 76 137 109q-45 7 -70.5 29t-25.5 55q0 9 1.5 17t5.5 16t6.5 14t10.5 14t12 12.5t15 13.5
t15.5 12.5l18 14t18.5 14.5q-52 20 -81.5 60t-29.5 91q0 72 56.5 120t146.5 48q64 0 113 -25h187v-44h-131q35 -41 35 -98q0 -73 -56.5 -120.5t-146.5 -47.5zM340 9l-140 6q-35 -14 -54.5 -40t-19.5 -54q0 -48 52.5 -74t127.5 -26t122 30.5t47 79.5q0 73 -135 78zM275 247
q47 0 75 29.5t28 84.5q0 63 -29.5 109t-82.5 46q-47 0 -75 -29.5t-28 -84.5q0 -63 29.5 -109t82.5 -46zM283 774l158 -169h-20l-145 83l-145 -83h-19l158 169h13z" />
    <glyph glyph-name="Gbreve" unicode="&#x11e;" horiz-adv-x="814" 
d="M526 340h263v-22q-44 -6 -54 -27.5t-10 -98.5v-123q-58 -41 -143.5 -61.5t-158.5 -20.5q-90 0 -162.5 31t-117.5 83.5t-69 119.5t-24 142q0 171 112 276.5t284 105.5q133 0 233 -38l16 -221h-18q-29 122 -89.5 172.5t-156.5 50.5q-49 0 -92.5 -17.5t-82 -56t-61.5 -109
t-23 -165.5q0 -152 72.5 -244t189.5 -92q179 0 179 98v69q0 79 -13 100.5t-74 25.5v22zM438 826q82 0 88 96h48q0 -54 -35 -94.5t-101 -40.5q-65 0 -99.5 40.5t-34.5 94.5h48q5 -96 86 -96z" />
    <glyph glyph-name="gbreve" unicode="&#x11f;" horiz-adv-x="591" 
d="M271 212v1q-44 0 -68 8q-54 -46 -54 -79t66 -38l102 -4q99 -4 163.5 -37.5t64.5 -97.5q0 -27 -15.5 -57t-46.5 -60t-89.5 -50t-133.5 -20q-101 0 -163.5 37.5t-62.5 91.5q0 76 137 109q-45 7 -70.5 29t-25.5 55q0 9 1.5 17t5.5 16t6.5 14t10.5 14t12 12.5t15 13.5
t15.5 12.5l18 14t18.5 14.5q-52 20 -81.5 60t-29.5 91q0 72 56.5 120t146.5 48q64 0 113 -25h187v-44h-131q35 -41 35 -98q0 -73 -56.5 -120.5t-146.5 -47.5zM340 9l-140 6q-35 -14 -54.5 -40t-19.5 -54q0 -48 52.5 -74t127.5 -26t122 30.5t47 79.5q0 73 -135 78zM275 247
q47 0 75 29.5t28 84.5q0 63 -29.5 109t-82.5 46q-47 0 -75 -29.5t-28 -84.5q0 -63 29.5 -109t82.5 -46zM280 665h1q88 0 94 99h51q0 -56 -37.5 -98.5t-107.5 -42.5t-107.5 42.5t-37.5 98.5h51q8 -99 93 -99z" />
    <glyph glyph-name="Gdotaccent" unicode="&#x120;" horiz-adv-x="814" 
d="M526 340h263v-22q-44 -6 -54 -27.5t-10 -98.5v-123q-58 -41 -143.5 -61.5t-158.5 -20.5q-90 0 -162.5 31t-117.5 83.5t-69 119.5t-24 142q0 171 112 276.5t284 105.5q133 0 233 -38l16 -221h-18q-29 122 -89.5 172.5t-156.5 50.5q-49 0 -92.5 -17.5t-82 -56t-61.5 -109
t-23 -165.5q0 -152 72.5 -244t189.5 -92q179 0 179 98v69q0 79 -13 100.5t-74 25.5v22zM381 859q0 27 17.5 45t44.5 18q26 0 43.5 -18.5t17.5 -44.5q0 -28 -17.5 -45.5t-43.5 -17.5q-27 0 -44.5 17.5t-17.5 45.5z" />
    <glyph glyph-name="gdotaccent" unicode="&#x121;" horiz-adv-x="591" 
d="M271 212v1q-44 0 -68 8q-54 -46 -54 -79t66 -38l102 -4q99 -4 163.5 -37.5t64.5 -97.5q0 -27 -15.5 -57t-46.5 -60t-89.5 -50t-133.5 -20q-101 0 -163.5 37.5t-62.5 91.5q0 76 137 109q-45 7 -70.5 29t-25.5 55q0 9 1.5 17t5.5 16t6.5 14t10.5 14t12 12.5t15 13.5
t15.5 12.5l18 14t18.5 14.5q-52 20 -81.5 60t-29.5 91q0 72 56.5 120t146.5 48q64 0 113 -25h187v-44h-131q35 -41 35 -98q0 -73 -56.5 -120.5t-146.5 -47.5zM340 9l-140 6q-35 -14 -54.5 -40t-19.5 -54q0 -48 52.5 -74t127.5 -26t122 30.5t47 79.5q0 73 -135 78zM275 247
q47 0 75 29.5t28 84.5q0 63 -29.5 109t-82.5 46q-47 0 -75 -29.5t-28 -84.5q0 -63 29.5 -109t82.5 -46zM205 712q0 26 17.5 44t44.5 18q26 0 43.5 -18t17.5 -44q0 -28 -17.5 -45.5t-43.5 -17.5q-27 0 -44.5 17.5t-17.5 45.5z" />
    <glyph glyph-name="Gcommaaccent" unicode="&#x122;" horiz-adv-x="814" 
d="M526 340h263v-22q-44 -6 -54 -27.5t-10 -98.5v-123q-58 -41 -143.5 -61.5t-158.5 -20.5q-90 0 -162.5 31t-117.5 83.5t-69 119.5t-24 142q0 171 112 276.5t284 105.5q133 0 233 -38l16 -221h-18q-29 122 -89.5 172.5t-156.5 50.5q-49 0 -92.5 -17.5t-82 -56t-61.5 -109
t-23 -165.5q0 -152 72.5 -244t189.5 -92q179 0 179 98v69q0 79 -13 100.5t-74 25.5v22zM380 -115q0 25 18 42.5t44 17.5q27 0 42.5 -18.5t15.5 -48.5q0 -54 -38 -108.5t-93 -80.5l-5 10q76 58 76 128q-25 2 -42.5 18t-17.5 40z" />
    <glyph glyph-name="gcommaaccent" unicode="&#x123;" horiz-adv-x="591" 
d="M327 665v-1q0 -25 -17.5 -43t-43.5 -18q-27 0 -43 19t-16 49q0 54 38 107.5t93 81.5l6 -10q-77 -62 -77 -129q25 -1 42.5 -16.5t17.5 -39.5zM271 211v1q-44 0 -68 8q-54 -46 -54 -79t66 -38l102 -4q99 -4 163.5 -37.5t64.5 -97.5q0 -27 -15.5 -57t-46.5 -60t-89.5 -50
t-133.5 -20q-101 0 -163.5 37.5t-62.5 91.5q0 76 137 109q-45 7 -70.5 29t-25.5 55q0 9 1.5 17t5.5 16t6.5 14t10.5 14t12 12.5t15 13.5t15.5 12.5l18 14t18.5 14.5q-52 20 -81.5 60t-29.5 91q0 72 56.5 120t146.5 48q64 0 113 -25h187v-44h-131q35 -41 35 -98
q0 -73 -56.5 -120.5t-146.5 -47.5zM340 8l-140 6q-35 -14 -54.5 -40t-19.5 -54q0 -48 52.5 -74t127.5 -26t122 30.5t47 79.5q0 73 -135 78zM275 246q47 0 75 29.5t28 84.5q0 63 -29.5 109t-82.5 46q-47 0 -75 -29.5t-28 -84.5q0 -63 29.5 -109t82.5 -46z" />
    <glyph glyph-name="Hcircumflex" unicode="&#x124;" horiz-adv-x="838" 
d="M700 579v-433q0 -82 15.5 -101t83.5 -27v-18h-308v18q68 8 83.5 27t15.5 101v206h-342v-206q0 -82 15.5 -101t83.5 -27v-18h-308v18q68 8 83.5 27t15.5 101v433q0 30 -0.5 48t-6 33t-9.5 21t-19 12t-25.5 8t-38.5 6v18h308v-18q-28 -4 -38.5 -6t-25.5 -8t-19 -12
t-9.5 -21t-6 -33t-0.5 -48v-183h342v183q0 30 -0.5 48t-6 33t-9.5 21t-19 12t-25.5 8t-38.5 6v18h308v-18q-28 -4 -38.5 -6t-25.5 -8t-19 -12t-9.5 -21t-6 -33t-0.5 -48zM408 932h16l145 -139h-23l-130 59l-130 -59h-23z" />
    <glyph glyph-name="hcircumflex" unicode="&#x125;" horiz-adv-x="604" 
d="M196 604v-147q73 90 159 90q69 0 111.5 -47.5t42.5 -142.5v-213q0 -80 11.5 -100t68.5 -26v-18h-260v18q57 6 68.5 26t11.5 100v193q0 140 -104 140q-76 0 -109 -47v-286q0 -80 11.5 -100t68.5 -26v-18h-260v18q57 6 68.5 26t11.5 100v501q0 74 -10 86.5t-70 12.5v18
l182 61q-2 -106 -2 -219zM143 962h16l145 -139h-23l-130 59l-130 -59h-23z" />
    <glyph glyph-name="Hbar" unicode="&#x126;" horiz-adv-x="838" 
d="M700 579v-10h99v-45h-99v-378q0 -82 15.5 -101t83.5 -27v-18h-308v18q68 8 83.5 27t15.5 101v206h-342v-206q0 -82 15.5 -101t83.5 -27v-18h-308v18q68 8 83.5 27t15.5 101v378h-99v45h99v10q0 30 -0.5 48t-6 33t-9.5 21t-19 12t-25.5 8t-38.5 6v18h308v-18
q-28 -4 -38.5 -6t-25.5 -8t-19 -12t-9.5 -21t-6 -33t-0.5 -48v-10h342v10q0 30 -0.5 48t-6 33t-9.5 21t-19 12t-25.5 8t-38.5 6v18h308v-18q-28 -4 -38.5 -6t-25.5 -8t-19 -12t-9.5 -21t-6 -33t-0.5 -48zM248 396h342v128h-342v-128z" />
    <glyph glyph-name="hbar" unicode="&#x127;" horiz-adv-x="612" 
d="M203 598v1v-141q73 90 159 90q69 0 111.5 -47.5t42.5 -142.5v-213q0 -80 11.5 -100t68.5 -26v-18h-260v18q57 6 68.5 26t11.5 100v193q0 140 -104 140q-76 0 -109 -47v-286q0 -80 11.5 -100t68.5 -26v-18h-260v18q57 6 68.5 26t11.5 100v454h-67v39h67v8q0 43 -0.5 58.5
t-10.5 27.5t-22 12.5t-47 0.5v18l182 61q-2 -94 -2 -187h171v-39h-171z" />
    <glyph glyph-name="Itilde" unicode="&#x128;" horiz-adv-x="386" 
d="M248 579v-433q0 -82 15.5 -101t83.5 -27v-18h-308v18q68 8 83.5 27t15.5 101v433q0 30 -0.5 48t-6 33t-9.5 21t-19 12t-25.5 8t-38.5 6v18h308v-18q-28 -4 -38.5 -6t-25.5 -8t-19 -12t-9.5 -21t-6 -33t-0.5 -48zM281 864h2q51 0 61 50h16q0 -53 -24 -90t-69 -37
q-34 0 -83.5 30.5t-79.5 30.5q-53 0 -63 -50h-16q0 53 24 90t69 37q33 0 83.5 -30.5t79.5 -30.5z" />
    <glyph glyph-name="itilde" unicode="&#x129;" horiz-adv-x="338" 
d="M16 635h1h-19q0 53 24 94.5t70 41.5q30 0 80 -31.5t70 -31.5q27 0 40 14t15 46h19q0 -131 -86 -131q-35 0 -84 31.5t-74 31.5q-24 0 -39 -17t-17 -48zM224 328v-184q0 -80 11.5 -100t68.5 -26v-18h-260v18q57 6 68.5 26t11.5 100v225q0 43 -0.5 58.5t-10.5 27.5t-22 12.5
t-47 0.5v18l182 61q-2 -106 -2 -219z" />
    <glyph glyph-name="Imacron" unicode="&#x12a;" horiz-adv-x="386" 
d="M248 579v-433q0 -82 15.5 -101t83.5 -27v-18h-308v18q68 8 83.5 27t15.5 101v433q0 30 -0.5 48t-6 33t-9.5 21t-19 12t-25.5 8t-38.5 6v18h308v-18q-28 -4 -38.5 -6t-25.5 -8t-19 -12t-9.5 -21t-6 -33t-0.5 -48zM339 818h-296v68h296v-68z" />
    <glyph glyph-name="imacron" unicode="&#x12b;" horiz-adv-x="338" 
d="M309 665h-296v68h296v-68zM223 328v-184q0 -80 11.5 -100t68.5 -26v-18h-260v18q57 6 68.5 26t11.5 100v225q0 74 -10 86.5t-70 12.5v18l182 61q-2 -106 -2 -219z" />
    <glyph glyph-name="Ibreve" unicode="&#x12c;" horiz-adv-x="386" 
d="M248 579v-433q0 -82 15.5 -101t83.5 -27v-18h-308v18q68 8 83.5 27t15.5 101v433q0 30 -0.5 48t-6 33t-9.5 21t-19 12t-25.5 8t-38.5 6v18h308v-18q-28 -4 -38.5 -6t-25.5 -8t-19 -12t-9.5 -21t-6 -33t-0.5 -48zM192 826q82 0 88 96h48q0 -54 -35 -94.5t-101 -40.5
q-65 0 -99.5 40.5t-34.5 94.5h48q5 -96 86 -96z" />
    <glyph glyph-name="ibreve" unicode="&#x12d;" horiz-adv-x="338" 
d="M167 663h1q88 0 94 99h51q0 -56 -37.5 -98.5t-107.5 -42.5t-107.5 42.5t-37.5 98.5h51q8 -99 93 -99zM224 328v-184q0 -80 11.5 -100t68.5 -26v-18h-260v18q57 6 68.5 26t11.5 100v225q0 43 -0.5 58.5t-10.5 27.5t-22 12.5t-47 0.5v18l182 61q-2 -106 -2 -219z" />
    <glyph glyph-name="Iogonek" unicode="&#x12e;" horiz-adv-x="386" 
d="M278 -155l7 -11q-50 -50 -110 -50q-37 0 -63.5 20.5t-26.5 60.5q0 36 36.5 72t85.5 63h-168v18q68 8 83.5 27t15.5 101v433q0 30 -0.5 48t-6 33t-9.5 21t-19 12t-25.5 8t-38.5 6v18h308v-18q-28 -4 -38.5 -6t-25.5 -8t-19 -12t-9.5 -21t-6 -33t-0.5 -48v-433
q0 -82 15.5 -101t83.5 -27v-18h-115q-72 -50 -72 -109q0 -28 17 -45t42 -17q31 0 59 16z" />
    <glyph glyph-name="iogonek" unicode="&#x12f;" horiz-adv-x="338" 
d="M223 328v-184q0 -80 11.5 -100t68.5 -26v-18h-98q-72 -50 -72 -109q0 -28 17 -45t42 -17q31 0 59 16l7 -11q-50 -50 -110 -50q-37 0 -63.5 20.5t-26.5 60.5q0 36 36.5 72t85.5 63h-137v18q57 6 68.5 26t11.5 100v225q0 74 -10 86.5t-70 12.5v18l182 61q-2 -106 -2 -219z
M168 671q-30 0 -50.5 19.5t-20.5 48.5t20.5 48.5t50.5 19.5t50 -19.5t20 -48.5t-20 -48.5t-50 -19.5z" />
    <glyph glyph-name="Idotaccent" unicode="&#x130;" horiz-adv-x="386" 
d="M248 579v-433q0 -82 15.5 -101t83.5 -27v-18h-308v18q68 8 83.5 27t15.5 101v433q0 30 -0.5 48t-6 33t-9.5 21t-19 12t-25.5 8t-38.5 6v18h308v-18q-28 -4 -38.5 -6t-25.5 -8t-19 -12t-9.5 -21t-6 -33t-0.5 -48zM130 859q0 27 17.5 45t44.5 18q26 0 43.5 -18.5
t17.5 -44.5q0 -28 -17.5 -45.5t-43.5 -17.5q-27 0 -44.5 17.5t-17.5 45.5z" />
    <glyph glyph-name="dotlessi" unicode="&#x131;" horiz-adv-x="338" 
d="M223 328v-184q0 -80 11.5 -100t68.5 -26v-18h-260v18q57 6 68.5 26t11.5 100v225q0 74 -10 86.5t-70 12.5v18l182 61q-2 -106 -2 -219z" />
    <glyph glyph-name="Jcircumflex" unicode="&#x134;" horiz-adv-x="427" 
d="M201 227v352q0 30 -0.5 48t-6 33t-9.5 21t-19 12t-25.5 8t-38.5 6v18h308v-18q-28 -4 -38.5 -6t-25.5 -8t-19 -12t-9.5 -21t-6 -33t-0.5 -48v-345q0 -247 -182 -247q-71 0 -118 14v134h11q25 -43 57 -77.5t60 -34.5q19 0 30.5 9.5t21.5 57t10 137.5zM245 932h16l145 -139
h-23l-130 59l-130 -59h-23z" />
    <glyph glyph-name="jcircumflex" unicode="&#x135;" horiz-adv-x="304" 
d="M158 772l158 -169h-20l-145 83l-145 -83h-19l158 169h13zM110 80v289q0 74 -10 86.5t-70 12.5v18l182 61q-2 -106 -2 -219v-232q0 -112 -38.5 -189t-151.5 -140l-8 10q61 65 79.5 133t18.5 170z" />
    <glyph glyph-name="Kcommaaccent" unicode="&#x136;" horiz-adv-x="772" 
d="M248 579v-433q0 -82 15.5 -101t83.5 -27v-18h-308v18q68 8 83.5 27t15.5 101v433q0 30 -0.5 48t-6 33t-9.5 21t-19 12t-25.5 8t-38.5 6v18h308v-18q-28 -4 -38.5 -6t-25.5 -8t-19 -12t-9.5 -21t-6 -33t-0.5 -48zM250 373l-1 -1l224 201q93 84 94 109q1 20 -47 24h-6v18
h233v-18q-47 -6 -81.5 -28t-134.5 -107l-178 -155l265 -299q50 -56 76.5 -75.5t65.5 -23.5v-18h-289v18q29 1 43 7.5t12 18.5t-9 23.5t-22 28.5zM310 -116q0 25 18 42.5t44 17.5q27 0 42.5 -18.5t15.5 -48.5q0 -54 -38 -108.5t-93 -80.5l-5 10q76 58 76 128q-25 2 -42.5 18
t-17.5 40z" />
    <glyph glyph-name="kcommaaccent" unicode="&#x137;" horiz-adv-x="625" 
d="M98 144v501q0 74 -10 86.5t-70 12.5v18l182 61q-2 -106 -2 -219v-460q0 -80 11.5 -100t68.5 -26v-18h-260v18q57 6 68.5 26t11.5 100zM353 0v-1v18q27 1 40.5 6t13 15.5t-7 21t-21.5 28.5l-177 203l171 142q22 18 34 32t15.5 27t-9.5 20t-44 8v18h231v-18
q-43 0 -72.5 -15.5t-83.5 -58.5q-10 -9 -16 -13l-135 -106l225 -251q26 -29 49.5 -42.5t54.5 -15.5v-18h-268zM236 -116q0 25 18 42.5t44 17.5q27 0 42.5 -18.5t15.5 -48.5q0 -54 -38 -108.5t-93 -80.5l-5 10q76 58 76 128q-25 2 -42.5 18t-17.5 40z" />
    <glyph glyph-name="Lacute" unicode="&#x139;" horiz-adv-x="623" 
d="M39 0h1v18q68 8 83.5 27t15.5 101v433q0 30 -0.5 48t-6 33t-9.5 21t-19 12t-25.5 8t-38.5 6v18h308v-18q-28 -4 -38.5 -6t-25.5 -8t-19 -12t-9.5 -21t-6 -33t-0.5 -48v-499q0 -29 8 -37.5t37 -8.5h13q59 0 94.5 3.5t69 13t54.5 31t40 54t38 83.5h19l-39 -220
q-75 1 -221 1h-323zM379 922l-219 -129h-21l83 129h157z" />
    <glyph glyph-name="lacute" unicode="&#x13a;" horiz-adv-x="335" 
d="M123 144v501q0 74 -10 86.5t-70 12.5v18l182 61q-2 -106 -2 -219v-460q0 -80 11.5 -100t68.5 -26v-18h-260v18q57 6 68.5 26t11.5 100zM324 952l-219 -129h-21l83 129h157z" />
    <glyph glyph-name="Lcommaaccent" unicode="&#x13b;" horiz-adv-x="623" 
d="M39 0h1v18q68 8 83.5 27t15.5 101v433q0 30 -0.5 48t-6 33t-9.5 21t-19 12t-25.5 8t-38.5 6v18h308v-18q-28 -4 -38.5 -6t-25.5 -8t-19 -12t-9.5 -21t-6 -33t-0.5 -48v-499q0 -29 8 -37.5t37 -8.5h13q59 0 94.5 3.5t69 13t54.5 31t40 54t38 83.5h19l-39 -220
q-75 1 -221 1h-323zM276 -115q0 25 18 42.5t44 17.5q27 0 42.5 -18.5t15.5 -48.5q0 -54 -38 -108.5t-93 -80.5l-5 10q76 58 76 128q-25 2 -42.5 18t-17.5 40z" />
    <glyph glyph-name="lcommaaccent" unicode="&#x13c;" horiz-adv-x="335" 
d="M123 144v501q0 74 -10 86.5t-70 12.5v18l182 61q-2 -106 -2 -219v-460q0 -80 11.5 -100t68.5 -26v-18h-260v18q57 6 68.5 26t11.5 100zM96 -115q0 25 18 42.5t44 17.5q27 0 42.5 -18.5t15.5 -48.5q0 -54 -38 -108.5t-93 -80.5l-5 10q76 58 76 128q-25 2 -42.5 18
t-17.5 40z" />
    <glyph glyph-name="Lcaron" unicode="&#x13d;" horiz-adv-x="623" 
d="M39 0h1v18q68 8 83.5 27t15.5 101v433q0 30 -0.5 48t-6 33t-9.5 21t-19 12t-25.5 8t-38.5 6v18h308v-18q-28 -4 -38.5 -6t-25.5 -8t-19 -12t-9.5 -21t-6 -33t-0.5 -48v-499q0 -29 8 -37.5t37 -8.5h13q59 0 94.5 3.5t69 13t54.5 31t40 54t38 83.5h19l-39 -220
q-75 1 -221 1h-323zM398 683q0 25 18 42.5t44 17.5q27 0 42.5 -18.5t15.5 -48.5q0 -54 -38 -108.5t-93 -80.5l-5 10q76 58 76 128q-25 2 -42.5 18t-17.5 40z" />
    <glyph glyph-name="lcaron" unicode="&#x13e;" horiz-adv-x="388" 
d="M300 754q0 25 18 42.5t44 17.5q27 0 42.5 -18.5t15.5 -48.5q0 -54 -38 -108.5t-93 -80.5l-5 10q76 58 76 128q-25 2 -42.5 18t-17.5 40zM123 144v501q0 74 -10 86.5t-70 12.5v18l182 61q-2 -106 -2 -219v-460q0 -80 11.5 -100t68.5 -26v-18h-260v18q57 6 68.5 26
t11.5 100z" />
    <glyph glyph-name="Ldot" unicode="&#x13f;" horiz-adv-x="623" 
d="M39 0h1v18q68 8 83.5 27t15.5 101v433q0 30 -0.5 48t-6 33t-9.5 21t-19 12t-25.5 8t-38.5 6v18h308v-18q-28 -4 -38.5 -6t-25.5 -8t-19 -12t-9.5 -21t-6 -33t-0.5 -48v-499q0 -29 8 -37.5t37 -8.5h13q59 0 94.5 3.5t69 13t54.5 31t40 54t38 83.5h19l-39 -220
q-75 1 -221 1h-323zM385 445q0 27 17.5 45t44.5 18q26 0 43.5 -18.5t17.5 -44.5q0 -28 -17.5 -45.5t-43.5 -17.5q-27 0 -44.5 17.5t-17.5 45.5z" />
    <glyph glyph-name="ldot" unicode="&#x140;" horiz-adv-x="413" 
d="M123 144v501q0 74 -10 86.5t-70 12.5v18l182 61q-2 -106 -2 -219v-460q0 -80 11.5 -100t68.5 -26v-18h-260v18q57 6 68.5 26t11.5 100zM305 445q0 27 17.5 45t44.5 18q26 0 43.5 -18.5t17.5 -44.5q0 -28 -17.5 -45.5t-43.5 -17.5q-27 0 -44.5 17.5t-17.5 45.5z" />
    <glyph glyph-name="Lslash" unicode="&#x141;" horiz-adv-x="623" 
d="M39 0h1v18q68 8 83.5 27t15.5 101v181l-71 -39l-23 38l94 53v200q0 30 -0.5 48t-6 33t-9.5 21t-19 12t-25.5 8t-38.5 6v18h308v-18q-28 -4 -38.5 -6t-25.5 -8t-19 -12t-9.5 -21t-6 -33t-0.5 -48v-138l77 43l22 -40l-99 -55v-309q0 -29 8 -37.5t37 -8.5h13q59 0 94.5 3.5
t69 13t54.5 31t40 54t38 83.5h19l-39 -220q-75 1 -221 1h-323z" />
    <glyph glyph-name="lslash" unicode="&#x142;" horiz-adv-x="346" 
d="M131 390v255q0 43 -0.5 58.5t-10.5 27.5t-22 12.5t-47 0.5v18l182 61q-2 -106 -2 -219v-163l82 43l21 -41l-103 -54v-245q0 -80 11.5 -100t68.5 -26v-18h-260v18q57 6 68.5 26t11.5 100v194l-97 -50l-21 41z" />
    <glyph glyph-name="Nacute" unicode="&#x143;" horiz-adv-x="804" 
d="M641 175v-1v404q0 30 -0.5 48t-6 33t-9.5 21t-19 12t-25.5 8t-38.5 6v18h244v-18q-28 -4 -38.5 -6t-25.5 -8t-19 -12t-9.5 -21t-6 -33t-0.5 -48v-589h-41l-464 582v-426q0 -82 15.5 -101t83.5 -27v-18h-244v18q68 8 83.5 27t15.5 101v484q-48 63 -84 80v16h151zM614 921
l-219 -129h-21l83 129h157z" />
    <glyph glyph-name="nacute" unicode="&#x144;" horiz-adv-x="603" 
d="M18 468v18l178 61l2 -90q73 90 159 90q69 0 110 -47.5t41 -142.5v-213q0 -80 11.5 -100t68.5 -26v-18h-260v18q57 6 68.5 26t11.5 100v193q0 72 -24 106t-77 34q-76 0 -109 -47v-286q0 -80 11.5 -100t68.5 -26v-18h-260v18q57 6 68.5 26t11.5 100v225q0 74 -10 86.5
t-70 12.5zM364 772h124l-182 -169h-16z" />
    <glyph glyph-name="Ncommaaccent" unicode="&#x145;" horiz-adv-x="804" 
d="M641 175v-1v404q0 30 -0.5 48t-6 33t-9.5 21t-19 12t-25.5 8t-38.5 6v18h244v-18q-28 -4 -38.5 -6t-25.5 -8t-19 -12t-9.5 -21t-6 -33t-0.5 -48v-589h-41l-464 582v-426q0 -82 15.5 -101t83.5 -27v-18h-244v18q68 8 83.5 27t15.5 101v484q-48 63 -84 80v16h151zM363 -116
q0 25 18 42.5t44 17.5q27 0 42.5 -18.5t15.5 -48.5q0 -54 -38 -108.5t-93 -80.5l-5 10q76 58 76 128q-25 2 -42.5 18t-17.5 40z" />
    <glyph glyph-name="ncommaaccent" unicode="&#x146;" horiz-adv-x="603" 
d="M18 468v18l178 61l2 -90q73 90 159 90q69 0 110 -47.5t41 -142.5v-213q0 -80 11.5 -100t68.5 -26v-18h-260v18q57 6 68.5 26t11.5 100v193q0 72 -24 106t-77 34q-76 0 -109 -47v-286q0 -80 11.5 -100t68.5 -26v-18h-260v18q57 6 68.5 26t11.5 100v225q0 74 -10 86.5
t-70 12.5zM235 -115q0 25 18 42.5t44 17.5q27 0 42.5 -18.5t15.5 -48.5q0 -54 -38 -108.5t-93 -80.5l-5 10q76 58 76 128q-25 2 -42.5 18t-17.5 40z" />
    <glyph glyph-name="Ncaron" unicode="&#x147;" horiz-adv-x="804" 
d="M641 175v-1v404q0 30 -0.5 48t-6 33t-9.5 21t-19 12t-25.5 8t-38.5 6v18h244v-18q-28 -4 -38.5 -6t-25.5 -8t-19 -12t-9.5 -21t-6 -33t-0.5 -48v-589h-41l-464 582v-426q0 -82 15.5 -101t83.5 -27v-18h-244v18q68 8 83.5 27t15.5 101v484q-48 63 -84 80v16h151zM427 792
l-145 139h23l130 -59l130 59h23l-145 -139h-16z" />
    <glyph glyph-name="ncaron" unicode="&#x148;" horiz-adv-x="603" 
d="M18 468v18l178 61l2 -90q73 90 159 90q69 0 110 -47.5t41 -142.5v-213q0 -80 11.5 -100t68.5 -26v-18h-260v18q57 6 68.5 26t11.5 100v193q0 72 -24 106t-77 34q-76 0 -109 -47v-286q0 -80 11.5 -100t68.5 -26v-18h-260v18q57 6 68.5 26t11.5 100v225q0 74 -10 86.5
t-70 12.5zM309 603h-13l-158 169h19l145 -83l145 83h20z" />
    <glyph glyph-name="Eng" unicode="&#x14a;" horiz-adv-x="767" 
d="M99 135v495q-54 64 -84 79v16h151l438 -550v411q0 42 -2 62t-15.5 33t-28 16.5t-53.5 9.5v18h244v-18q-39 -6 -53.5 -9.5t-28 -16.5t-15.5 -33t-2 -62v-490q0 -111 -40 -188t-155 -141l-7 10q60 64 80 131t20 159l-403 505v-437q0 -73 16 -91.5t83 -26.5v-18h-244v18
q67 8 83 26.5t16 91.5z" />
    <glyph glyph-name="eng" unicode="&#x14b;" horiz-adv-x="586" 
d="M506 357v1v-261q0 -55 -7 -96t-26.5 -83.5t-58.5 -79.5t-99 -70l-8 10q61 65 80 132.5t19 169.5v257q0 73 -23 106.5t-76 33.5q-76 0 -109 -45v-288q0 -80 11.5 -100t68.5 -26v-18h-260v18q57 6 68.5 26t11.5 100v210q0 78 -11.5 96t-68.5 18v18l178 61l2 -87
q64 87 159 87q68 0 108.5 -47.5t40.5 -142.5z" />
    <glyph glyph-name="Omacron" unicode="&#x14c;" horiz-adv-x="844" 
d="M50 366q0 117 54.5 205t138 131t179.5 43t179.5 -43t138 -131t54.5 -205t-54.5 -205t-138 -131t-179.5 -43t-179.5 43t-138 131t-54.5 205zM671 366q0 152 -70 247.5t-179 95.5t-179 -95.5t-70 -247.5t70 -247.5t179 -95.5t179 95.5t70 247.5zM570 818h-296v68h296v-68z
" />
    <glyph glyph-name="omacron" unicode="&#x14d;" horiz-adv-x="624" 
d="M296 507q-146 0 -146 -204q0 -41 9.5 -86t29 -89t55 -72.5t81.5 -28.5q71 0 107 53t36 151q0 41 -9.5 86t-28.5 89t-54 72.5t-80 28.5zM306 547q110 0 191.5 -79.5t81.5 -199.5q0 -117 -78 -199t-188 -82q-109 0 -191 80t-82 200q0 118 77 199t189 81zM450 665h-296v68
h296v-68z" />
    <glyph glyph-name="Obreve" unicode="&#x14e;" horiz-adv-x="844" 
d="M50 366q0 117 54.5 205t138 131t179.5 43t179.5 -43t138 -131t54.5 -205t-54.5 -205t-138 -131t-179.5 -43t-179.5 43t-138 131t-54.5 205zM671 366q0 152 -70 247.5t-179 95.5t-179 -95.5t-70 -247.5t70 -247.5t179 -95.5t179 95.5t70 247.5zM421 826q82 0 88 96h48
q0 -54 -35 -94.5t-101 -40.5q-65 0 -99.5 40.5t-34.5 94.5h48q5 -96 86 -96z" />
    <glyph glyph-name="obreve" unicode="&#x14f;" horiz-adv-x="624" 
d="M296 507q-146 0 -146 -204q0 -41 9.5 -86t29 -89t55 -72.5t81.5 -28.5q71 0 107 53t36 151q0 41 -9.5 86t-28.5 89t-54 72.5t-80 28.5zM306 547q110 0 191.5 -79.5t81.5 -199.5q0 -117 -78 -199t-188 -82q-109 0 -191 80t-82 200q0 118 77 199t189 81zM308 663h1
q88 0 94 99h51q0 -56 -37.5 -98.5t-107.5 -42.5t-107.5 42.5t-37.5 98.5h51q8 -99 93 -99z" />
    <glyph glyph-name="Ohungarumlaut" unicode="&#x150;" horiz-adv-x="844" 
d="M50 366q0 117 54.5 205t138 131t179.5 43t179.5 -43t138 -131t54.5 -205t-54.5 -205t-138 -131t-179.5 -43t-179.5 43t-138 131t-54.5 205zM671 366q0 152 -70 247.5t-179 95.5t-179 -95.5t-70 -247.5t70 -247.5t179 -95.5t179 95.5t70 247.5zM721 922l-219 -129h-21
l83 129h157zM544 922l-219 -129h-21l83 129h157z" />
    <glyph glyph-name="ohungarumlaut" unicode="&#x151;" horiz-adv-x="624" 
d="M296 507q-146 0 -146 -204q0 -41 9.5 -86t29 -89t55 -72.5t81.5 -28.5q71 0 107 53t36 151q0 41 -9.5 86t-28.5 89t-54 72.5t-80 28.5zM306 547q110 0 191.5 -79.5t81.5 -199.5q0 -117 -78 -199t-188 -82q-109 0 -191 80t-82 200q0 118 77 199t189 81zM426 772h124
l-182 -159h-16zM254 772h124l-182 -159h-16z" />
    <glyph glyph-name="OE" unicode="&#x152;" horiz-adv-x="1237" 
d="M50 366h1q0 117 54.5 205t138 131t179.5 43q164 0 255 -121v101h241q146 0 221 3l29 -219h-18q-12 38 -26.5 66t-28.5 47.5t-37.5 32.5t-41 19.5t-52.5 10t-59 4t-73 0.5h-58v-293h141q45 0 70 25.5t33 86.5h18v-268h-18q-8 61 -33 86.5t-70 25.5h-141v-272
q0 -29 8 -37.5t37 -8.5h7q67 0 107 3t81.5 13t67.5 30t49.5 54t41.5 85h19l-39 -220q-76 1 -221 1h-256v107q-91 -120 -255 -120q-96 0 -179.5 43t-138 131t-54.5 205zM672 366q0 152 -70 247.5t-179 95.5t-179 -95.5t-70 -247.5t70 -247.5t179 -95.5t179 95.5t70 247.5z
" />
    <glyph glyph-name="oe" unicode="&#x153;" horiz-adv-x="965" 
d="M710 -13q-130 0 -194 98q-80 -98 -202 -98q-109 0 -191 80t-82 200q0 118 77 199t189 81q62 0 115.5 -33t88.5 -89q38 58 92 90t114 32q80 0 137 -55.5t66 -161.5h-359v-4q0 -112 51 -182t145 -70t161 67l11 -10q-30 -57 -85.5 -100.5t-133.5 -43.5zM693 511
q-49 0 -85 -35t-45 -107h236q-1 68 -29 105t-77 37zM296 507q-146 0 -146 -204q0 -41 9.5 -86t29 -89t55 -72.5t81.5 -28.5q71 0 107 53t36 151q0 41 -9.5 86t-28.5 89t-54 72.5t-80 28.5z" />
    <glyph glyph-name="Racute" unicode="&#x154;" horiz-adv-x="730" 
d="M39 0v18q68 8 83.5 27t15.5 101v433q0 30 -0.5 48t-6 33t-9.5 21t-19 12t-25.5 8t-38.5 6v18h118q35 0 100.5 0.5t84.5 0.5q93 0 158 -15t108.5 -59t43.5 -117q0 -151 -190 -182l150 -232q36 -55 65 -76.5t71 -25.5v-18h-198q-37 73 -82 142l-54 85q-19 29 -42 67t-30 49
h-94v-199q0 -81 15.5 -100t83.5 -27v-18h-308zM530 535q0 93 -46.5 123.5t-149.5 30.5h-86v-308h86q103 0 149.5 30.5t46.5 123.5zM540 922l-219 -129h-21l83 129h157z" />
    <glyph glyph-name="racute" unicode="&#x155;" horiz-adv-x="425" 
d="M18 0h2v18q57 6 68.5 26t11.5 100v225q0 74 -10 86.5t-70 12.5v18l178 61l2 -101q24 31 41 49.5t46 35.5t58 17q33 0 52.5 -17.5t19.5 -45.5q0 -27 -15.5 -44t-41.5 -17q-18 0 -32 13l-33 29q-9 9 -18 9q-15 0 -37 -16t-42 -42v-273q0 -32 0.5 -48t5.5 -32.5t11 -22.5
t21.5 -12t33 -7.5t49.5 -2.5v-19h-301zM300 772h124l-182 -169h-16z" />
    <glyph glyph-name="Rcommaaccent" unicode="&#x156;" horiz-adv-x="730" 
d="M39 0v18q68 8 83.5 27t15.5 101v433q0 30 -0.5 48t-6 33t-9.5 21t-19 12t-25.5 8t-38.5 6v18h118q35 0 100.5 0.5t84.5 0.5q93 0 158 -15t108.5 -59t43.5 -117q0 -151 -190 -182l150 -232q36 -55 65 -76.5t71 -25.5v-18h-198q-37 73 -82 142l-54 85q-19 29 -42 67t-30 49
h-94v-199q0 -81 15.5 -100t83.5 -27v-18h-308zM530 535q0 93 -46.5 123.5t-149.5 30.5h-86v-308h86q103 0 149.5 30.5t46.5 123.5zM342 -115q0 25 18 42.5t44 17.5q27 0 42.5 -18.5t15.5 -48.5q0 -54 -38 -108.5t-93 -80.5l-5 10q76 58 76 128q-25 2 -42.5 18t-17.5 40z" />
    <glyph glyph-name="rcommaaccent" unicode="&#x157;" horiz-adv-x="425" 
d="M18 0h2v18q57 6 68.5 26t11.5 100v225q0 74 -10 86.5t-70 12.5v18l178 61l2 -101q24 31 41 49.5t46 35.5t58 17q33 0 52.5 -17.5t19.5 -45.5q0 -27 -15.5 -44t-41.5 -17q-18 0 -32 13l-33 29q-9 9 -18 9q-15 0 -37 -16t-42 -42v-273q0 -32 0.5 -48t5.5 -32.5t11 -22.5
t21.5 -12t33 -7.5t49.5 -2.5v-19h-301zM84 -115q0 25 18 42.5t44 17.5q27 0 42.5 -18.5t15.5 -48.5q0 -54 -38 -108.5t-93 -80.5l-5 10q76 58 76 128q-25 2 -42.5 18t-17.5 40z" />
    <glyph glyph-name="Rcaron" unicode="&#x158;" horiz-adv-x="730" 
d="M39 0v18q68 8 83.5 27t15.5 101v433q0 30 -0.5 48t-6 33t-9.5 21t-19 12t-25.5 8t-38.5 6v18h118q35 0 100.5 0.5t84.5 0.5q93 0 158 -15t108.5 -59t43.5 -117q0 -151 -190 -182l150 -232q36 -55 65 -76.5t71 -25.5v-18h-198q-37 73 -82 142l-54 85q-19 29 -42 67t-30 49
h-94v-199q0 -81 15.5 -100t83.5 -27v-18h-308zM530 535q0 93 -46.5 123.5t-149.5 30.5h-86v-308h86q103 0 149.5 30.5t46.5 123.5zM326 793l-145 139h23l130 -59l130 59h23l-145 -139h-16z" />
    <glyph glyph-name="rcaron" unicode="&#x159;" horiz-adv-x="425" 
d="M18 0h2v18q57 6 68.5 26t11.5 100v225q0 74 -10 86.5t-70 12.5v18l178 61l2 -101q24 31 41 49.5t46 35.5t58 17q33 0 52.5 -17.5t19.5 -45.5q0 -27 -15.5 -44t-41.5 -17q-18 0 -32 13l-33 29q-9 9 -18 9q-15 0 -37 -16t-42 -42v-273q0 -32 0.5 -48t5.5 -32.5t11 -22.5
t21.5 -12t33 -7.5t49.5 -2.5v-19h-301zM266 603h-13l-158 169h19l145 -83l145 83h20z" />
    <glyph glyph-name="Sacute" unicode="&#x15a;" horiz-adv-x="610" 
d="M294 -13l1 1q-138 0 -230 54v246h20q7 -67 23 -116.5t35.5 -77t46.5 -44t51 -21.5t54 -5q69 0 120 37.5t51 105.5q0 49 -37.5 82t-107.5 64l-78 34q-173 76 -173 210q0 82 70 137t170 55q128 0 201 -46l4 -210h-20q-17 124 -65.5 172t-123.5 48q-63 0 -106.5 -32
t-43.5 -88q0 -85 114 -133l78 -34q102 -44 154 -93t52 -129q0 -101 -77.5 -159t-182.5 -58zM518 923l-219 -129h-21l83 129h157z" />
    <glyph glyph-name="sacute" unicode="&#x15b;" horiz-adv-x="470" 
d="M257 547h3q75 0 128 -24v-149h-21q-26 133 -131 133q-40 0 -68.5 -19.5t-28.5 -52.5q0 -29 21.5 -49.5t63.5 -41.5l57 -30q72 -37 104 -71.5t32 -97.5q0 -72 -58 -115t-137 -43q-93 0 -161 38v187h20q23 -179 147 -179q44 0 75.5 21.5t31.5 66.5q0 31 -22.5 53t-69.5 45
l-57 30q-63 31 -93 65t-30 91q0 69 60.5 105.5t133.5 36.5zM291 772h124l-182 -169h-16z" />
    <glyph glyph-name="Scircumflex" unicode="&#x15c;" horiz-adv-x="610" 
d="M294 -13l1 1q-138 0 -230 54v246h20q7 -67 23 -116.5t35.5 -77t46.5 -44t51 -21.5t54 -5q69 0 120 37.5t51 105.5q0 49 -37.5 82t-107.5 64l-78 34q-173 76 -173 210q0 82 70 137t170 55q128 0 201 -46l4 -210h-20q-17 124 -65.5 172t-123.5 48q-63 0 -106.5 -32
t-43.5 -88q0 -85 114 -133l78 -34q102 -44 154 -93t52 -129q0 -101 -77.5 -159t-182.5 -58zM304 933h16l145 -139h-23l-130 59l-130 -59h-23z" />
    <glyph glyph-name="scircumflex" unicode="&#x15d;" horiz-adv-x="470" 
d="M257 547h3q75 0 128 -24v-149h-21q-26 133 -131 133q-40 0 -68.5 -19.5t-28.5 -52.5q0 -29 21.5 -49.5t63.5 -41.5l57 -30q72 -37 104 -71.5t32 -97.5q0 -72 -58 -115t-137 -43q-93 0 -161 38v187h20q23 -179 147 -179q44 0 75.5 21.5t31.5 66.5q0 31 -22.5 53t-69.5 45
l-57 30q-63 31 -93 65t-30 91q0 69 60.5 105.5t133.5 36.5zM255 772l158 -169h-20l-145 83l-145 -83h-19l158 169h13z" />
    <glyph glyph-name="Scedilla" unicode="&#x15e;" horiz-adv-x="610" 
d="M211 -119l1 2l63 106q-124 4 -209 53v246h20q7 -67 23 -116.5t35.5 -77t46.5 -44t51 -21.5t54 -5q69 0 120 37.5t51 105.5q0 49 -37.5 82t-107.5 64l-78 34q-173 76 -173 210q0 82 70 137t170 55q128 0 201 -46l4 -210h-20q-17 124 -65.5 172t-123.5 48q-63 0 -106.5 -32
t-43.5 -88q0 -85 114 -133l78 -34q102 -44 154 -93t52 -129q0 -97 -71.5 -154.5t-170.5 -62.5l-42 -70q17 9 42 9q34 0 54.5 -20.5t20.5 -50.5q0 -46 -33 -70t-73 -24q-48 0 -99 29l10 22q26 -14 64 -14q28 0 45 12t17 35q0 33 -36.5 40.5t-62.5 -9.5z" />
    <glyph glyph-name="scedilla" unicode="&#x15f;" horiz-adv-x="470" 
d="M151 -119h4l63 106q-88 2 -153 38v187h20q23 -179 147 -179q44 0 75.5 21.5t31.5 66.5q0 31 -22.5 53t-69.5 45l-57 30q-63 31 -93 65t-30 91q0 69 60.5 105.5t133.5 36.5q75 0 128 -24v-149h-21q-26 133 -131 133q-40 0 -68.5 -19.5t-28.5 -52.5q0 -29 21.5 -49.5
t63.5 -41.5l57 -30q72 -37 104 -71.5t32 -97.5q0 -64 -47.5 -105.5t-116.5 -50.5l-43 -72q17 9 42 9q34 0 54.5 -20.5t20.5 -50.5q0 -46 -33 -70t-73 -24q-48 0 -99 29l10 22q26 -14 64 -14q28 0 45 12t17 35q0 33 -36.5 40.5t-62.5 -9.5z" />
    <glyph glyph-name="Scaron" unicode="&#x160;" horiz-adv-x="610" 
d="M294 -13l1 1q-138 0 -230 54v246h20q7 -67 23 -116.5t35.5 -77t46.5 -44t51 -21.5t54 -5q69 0 120 37.5t51 105.5q0 49 -37.5 82t-107.5 64l-78 34q-173 76 -173 210q0 82 70 137t170 55q128 0 201 -46l4 -210h-20q-17 124 -65.5 172t-123.5 48q-63 0 -106.5 -32
t-43.5 -88q0 -85 114 -133l78 -34q102 -44 154 -93t52 -129q0 -101 -77.5 -159t-182.5 -58zM311 794l-145 139h23l130 -59l130 59h23l-145 -139h-16z" />
    <glyph glyph-name="scaron" unicode="&#x161;" horiz-adv-x="470" 
d="M257 547h3q75 0 128 -24v-149h-21q-26 133 -131 133q-40 0 -68.5 -19.5t-28.5 -52.5q0 -29 21.5 -49.5t63.5 -41.5l57 -30q72 -37 104 -71.5t32 -97.5q0 -72 -58 -115t-137 -43q-93 0 -161 38v187h20q23 -179 147 -179q44 0 75.5 21.5t31.5 66.5q0 31 -22.5 53t-69.5 45
l-57 30q-63 31 -93 65t-30 91q0 69 60.5 105.5t133.5 36.5zM261 603h-13l-158 169h19l145 -83l145 83h20z" />
    <glyph glyph-name="uni0162" unicode="&#x162;" horiz-adv-x="766" 
d="M218 0h-1v19q73 6 91.5 28t18.5 99v548h-33q-62 0 -96 -5.5t-64.5 -25t-49.5 -55t-41 -99.5h-19l29 219q76 -3 221 -3h216q145 0 221 3l29 -219h-18q-17 51 -33.5 83t-35 53.5t-46 31.5t-57.5 13.5t-79 3.5h-33v-548q0 -77 18.5 -99t91.5 -28v-19h-330zM311 -115
q0 25 18 42.5t44 17.5q27 0 42.5 -18.5t15.5 -48.5q0 -54 -38 -108.5t-93 -80.5l-5 10q76 58 76 128q-25 2 -42.5 18t-17.5 40z" />
    <glyph glyph-name="uni0163" unicode="&#x163;" horiz-adv-x="339" 
d="M206 -13h-1q-123 0 -123 153v359h-88v39h88v94l100 67v-161h129v-39h-129v-341q0 -58 15.5 -81.5t54.5 -23.5q46 0 77 31l9 -8q-47 -89 -132 -89zM117 -115q0 25 18 42.5t44 17.5q27 0 42.5 -18.5t15.5 -48.5q0 -54 -38 -108.5t-93 -80.5l-5 10q76 58 76 128
q-25 2 -42.5 18t-17.5 40z" />
    <glyph glyph-name="Tcaron" unicode="&#x164;" horiz-adv-x="766" 
d="M218 0h-1v19q73 6 91.5 28t18.5 99v548h-33q-62 0 -96 -5.5t-64.5 -25t-49.5 -55t-41 -99.5h-19l29 219q76 -3 221 -3h216q145 0 221 3l29 -219h-18q-17 51 -33.5 83t-35 53.5t-46 31.5t-57.5 13.5t-79 3.5h-33v-548q0 -77 18.5 -99t91.5 -28v-19h-330zM374 793l-145 139
h23l130 -59l130 59h23l-145 -139h-16z" />
    <glyph glyph-name="tcaron" unicode="&#x165;" horiz-adv-x="438" 
d="M350 754q0 25 18 42.5t44 17.5q27 0 42.5 -18.5t15.5 -48.5q0 -54 -38 -108.5t-93 -80.5l-5 10q76 58 76 128q-25 2 -42.5 18t-17.5 40zM206 -13h-1q-123 0 -123 153v359h-88v39h88v94l100 67v-161h129v-39h-129v-341q0 -58 15.5 -81.5t54.5 -23.5q46 0 77 31l9 -8
q-47 -89 -132 -89z" />
    <glyph glyph-name="Tbar" unicode="&#x166;" horiz-adv-x="766" 
d="M218 0h-1v19q73 6 91.5 28t18.5 99v206h-128v44h128v298h-33q-62 0 -96 -5.5t-64.5 -25t-49.5 -55t-41 -99.5h-19l29 219q76 -3 221 -3h216q145 0 221 3l29 -219h-18q-17 51 -33.5 83t-35 53.5t-46 31.5t-57.5 13.5t-79 3.5h-33v-298h128v-44h-128v-206q0 -77 18.5 -99
t91.5 -28v-19h-330z" />
    <glyph glyph-name="tbar" unicode="&#x167;" horiz-adv-x="369" 
d="M221 -13h-1q-123 0 -123 153v193h-88v39h88v127h-88v39h88v94l100 67v-161h129v-39h-129v-127h129v-39h-129v-175q0 -58 15.5 -81.5t54.5 -23.5q46 0 77 31l9 -8q-47 -89 -132 -89z" />
    <glyph glyph-name="Utilde" unicode="&#x168;" horiz-adv-x="785" 
d="M121 273v306q0 30 -0.5 48t-6 33t-9.5 21t-19 12t-25.5 8t-38.5 6v18h308v-18q-28 -4 -38.5 -6t-25.5 -8t-19 -12t-9.5 -21t-6 -33t-0.5 -48v-296q0 -248 188 -248q199 0 199 263v281q0 30 -0.5 48t-6 33t-9.5 21t-19 12t-25.5 8t-38.5 6v18h244v-18q-28 -4 -38.5 -6
t-25.5 -8t-19 -12t-9.5 -21t-6 -33t-0.5 -48v-280q0 -158 -66 -235t-207 -77q-145 0 -207.5 75t-62.5 211zM518 864h2q51 0 61 50h16q0 -53 -24 -90t-69 -37q-34 0 -83.5 30.5t-79.5 30.5q-53 0 -63 -50h-16q0 53 24 90t69 37q33 0 83.5 -30.5t79.5 -30.5z" />
    <glyph glyph-name="utilde" unicode="&#x169;" horiz-adv-x="583" 
d="M490 345v1v-182q0 -71 10 -84.5t68 -15.5v-17l-163 -54l-12 96q-26 -42 -66 -71.5t-88 -29.5q-71 0 -114.5 49t-43.5 152q0 32 1 109.5t1 109.5q0 66 -11 81.5t-67 19.5v18l179 16q-2 -104 -2 -198v-138q0 -151 98 -151q69 0 110 65v287q0 66 -11 81.5t-67 19.5v18
l180 16q-2 -104 -2 -198zM155 636h1h-19q0 53 24 94.5t70 41.5q29 0 79 -31.5t71 -31.5q27 0 40 14t15 46h19q0 -131 -86 -131q-35 0 -84 31.5t-74 31.5q-24 0 -39 -17t-17 -48z" />
    <glyph glyph-name="Umacron" unicode="&#x16a;" horiz-adv-x="785" 
d="M121 273v306q0 30 -0.5 48t-6 33t-9.5 21t-19 12t-25.5 8t-38.5 6v18h308v-18q-28 -4 -38.5 -6t-25.5 -8t-19 -12t-9.5 -21t-6 -33t-0.5 -48v-296q0 -248 188 -248q199 0 199 263v281q0 30 -0.5 48t-6 33t-9.5 21t-19 12t-25.5 8t-38.5 6v18h244v-18q-28 -4 -38.5 -6
t-25.5 -8t-19 -12t-9.5 -21t-6 -33t-0.5 -48v-280q0 -158 -66 -235t-207 -77q-145 0 -207.5 75t-62.5 211zM568 818h-296v68h296v-68z" />
    <glyph glyph-name="umacron" unicode="&#x16b;" horiz-adv-x="583" 
d="M490 345v1v-182q0 -71 10 -84.5t68 -15.5v-17l-163 -54l-12 96q-26 -42 -66 -71.5t-88 -29.5q-71 0 -114.5 49t-43.5 152q0 32 1 109.5t1 109.5q0 66 -11 81.5t-67 19.5v18l179 16q-2 -104 -2 -198v-138q0 -151 98 -151q69 0 110 65v287q0 66 -11 81.5t-67 19.5v18
l180 16q-2 -104 -2 -198zM435 666h-296v68h296v-68z" />
    <glyph glyph-name="Ubreve" unicode="&#x16c;" horiz-adv-x="785" 
d="M121 273v306q0 30 -0.5 48t-6 33t-9.5 21t-19 12t-25.5 8t-38.5 6v18h308v-18q-28 -4 -38.5 -6t-25.5 -8t-19 -12t-9.5 -21t-6 -33t-0.5 -48v-296q0 -248 188 -248q199 0 199 263v281q0 30 -0.5 48t-6 33t-9.5 21t-19 12t-25.5 8t-38.5 6v18h244v-18q-28 -4 -38.5 -6
t-25.5 -8t-19 -12t-9.5 -21t-6 -33t-0.5 -48v-280q0 -158 -66 -235t-207 -77q-145 0 -207.5 75t-62.5 211zM409 826q82 0 88 96h48q0 -54 -35 -94.5t-101 -40.5q-65 0 -99.5 40.5t-34.5 94.5h48q5 -96 86 -96z" />
    <glyph glyph-name="ubreve" unicode="&#x16d;" horiz-adv-x="583" 
d="M490 345v1v-182q0 -71 10 -84.5t68 -15.5v-17l-163 -54l-12 96q-26 -42 -66 -71.5t-88 -29.5q-71 0 -114.5 49t-43.5 152q0 32 1 109.5t1 109.5q0 66 -11 81.5t-67 19.5v18l179 16q-2 -104 -2 -198v-138q0 -151 98 -151q69 0 110 65v287q0 66 -11 81.5t-67 19.5v18
l180 16q-2 -104 -2 -198zM291 664h1q88 0 94 99h51q0 -56 -37.5 -98.5t-107.5 -42.5t-107.5 42.5t-37.5 98.5h51q8 -99 93 -99z" />
    <glyph glyph-name="Uring" unicode="&#x16e;" horiz-adv-x="785" 
d="M121 273v306q0 30 -0.5 48t-6 33t-9.5 21t-19 12t-25.5 8t-38.5 6v18h308v-18q-28 -4 -38.5 -6t-25.5 -8t-19 -12t-9.5 -21t-6 -33t-0.5 -48v-296q0 -248 188 -248q199 0 199 263v281q0 30 -0.5 48t-6 33t-9.5 21t-19 12t-25.5 8t-38.5 6v18h244v-18q-28 -4 -38.5 -6
t-25.5 -8t-19 -12t-9.5 -21t-6 -33t-0.5 -48v-280q0 -158 -66 -235t-207 -77q-145 0 -207.5 75t-62.5 211zM328 880q0 39 27 66.5t66 27.5t66.5 -27.5t27.5 -66.5q0 -38 -27.5 -65.5t-66.5 -27.5t-66 27.5t-27 65.5zM367 880q0 -25 15 -40.5t39 -15.5q23 0 38.5 15.5
t15.5 40.5t-15.5 41t-38.5 16q-24 0 -39 -16t-15 -41z" />
    <glyph glyph-name="uring" unicode="&#x16f;" horiz-adv-x="583" 
d="M490 345v1v-182q0 -71 10 -84.5t68 -15.5v-17l-163 -54l-12 96q-26 -42 -66 -71.5t-88 -29.5q-71 0 -114.5 49t-43.5 152q0 32 1 109.5t1 109.5q0 66 -11 81.5t-67 19.5v18l179 16q-2 -104 -2 -198v-138q0 -151 98 -151q69 0 110 65v287q0 66 -11 81.5t-67 19.5v18
l180 16q-2 -104 -2 -198zM197 703q0 40 27 67t66 27t66.5 -27t27.5 -67q0 -38 -27.5 -65.5t-66.5 -27.5t-66 27.5t-27 65.5zM236 703q0 -25 15 -40t39 -15t39 15t15 40t-15.5 41t-38.5 16q-24 0 -39 -16t-15 -41z" />
    <glyph glyph-name="Uhungarumlaut" unicode="&#x170;" horiz-adv-x="785" 
d="M121 273v306q0 30 -0.5 48t-6 33t-9.5 21t-19 12t-25.5 8t-38.5 6v18h308v-18q-28 -4 -38.5 -6t-25.5 -8t-19 -12t-9.5 -21t-6 -33t-0.5 -48v-296q0 -248 188 -248q199 0 199 263v281q0 30 -0.5 48t-6 33t-9.5 21t-19 12t-25.5 8t-38.5 6v18h244v-18q-28 -4 -38.5 -6
t-25.5 -8t-19 -12t-9.5 -21t-6 -33t-0.5 -48v-280q0 -158 -66 -235t-207 -77q-145 0 -207.5 75t-62.5 211zM693 922l-219 -129h-21l83 129h157zM516 922l-219 -129h-21l83 129h157z" />
    <glyph glyph-name="uhungarumlaut" unicode="&#x171;" horiz-adv-x="583" 
d="M490 345v1v-182q0 -71 10 -84.5t68 -15.5v-17l-163 -54l-12 96q-26 -42 -66 -71.5t-88 -29.5q-71 0 -114.5 49t-43.5 152q0 32 1 109.5t1 109.5q0 66 -11 81.5t-67 19.5v18l179 16q-2 -104 -2 -198v-138q0 -151 98 -151q69 0 110 65v287q0 66 -11 81.5t-67 19.5v18
l180 16q-2 -104 -2 -198zM396 773h124l-182 -159h-16zM224 773h124l-182 -159h-16z" />
    <glyph glyph-name="Uogonek" unicode="&#x172;" horiz-adv-x="785" 
d="M511 -155l7 -11q-50 -50 -110 -50q-37 0 -63.5 20.5t-26.5 60.5q0 60 101 123q-9 -1 -28 -1q-145 0 -207.5 75t-62.5 211v306q0 30 -0.5 48t-6 33t-9.5 21t-19 12t-25.5 8t-38.5 6v18h308v-18q-28 -4 -38.5 -6t-25.5 -8t-19 -12t-9.5 -21t-6 -33t-0.5 -48v-296
q0 -248 188 -248q199 0 199 263v281q0 30 -0.5 48t-6 33t-9.5 21t-19 12t-25.5 8t-38.5 6v18h244v-18q-28 -4 -38.5 -6t-25.5 -8t-19 -12t-9.5 -21t-6 -33t-0.5 -48v-280q0 -140 -51.5 -216t-159.5 -92q-60 -47 -60 -100q0 -28 17 -45t42 -17q31 0 59 16z" />
    <glyph glyph-name="uogonek" unicode="&#x173;" horiz-adv-x="583" 
d="M477 -151l1 2l7 -11q-50 -50 -110 -50q-37 0 -63.5 20.5t-26.5 60.5q0 36 35.5 71t84.5 62l-11 85q-26 -42 -66 -71.5t-88 -29.5q-71 0 -114.5 49t-43.5 152q0 32 1 109.5t1 109.5q0 66 -11 81.5t-67 19.5v18l179 16q-2 -104 -2 -198v-138q0 -151 98 -151q69 0 110 65
v287q0 66 -11 81.5t-67 19.5v18l180 16q-2 -104 -2 -198v-182q0 -71 10 -84.5t68 -15.5v-17l-146 -48q-64 -49 -64 -103q0 -28 17 -45t42 -17q31 0 59 16z" />
    <glyph glyph-name="Wcircumflex" unicode="&#x174;" horiz-adv-x="1070" 
d="M1059 725l1 1v-18q-39 -3 -58.5 -13.5t-37.5 -45.5t-40 -111l-164 -550h-45l-181 524l-156 -524h-45l-216 623q-21 59 -38.5 75.5t-67.5 20.5v18h290v-18q-53 -6 -68.5 -21t-3.5 -54l152 -456l122 419l-45 130h123l182 -549l100 339q37 132 36 156t-27 31q-11 2 -40 5v18
h227zM543 933h16l145 -139h-23l-130 59l-130 -59h-23z" />
    <glyph glyph-name="wcircumflex" unicode="&#x175;" horiz-adv-x="803" 
d="M530 -13v-1l-134 399l-137 -399h-19l-167 465q-15 38 -28 51t-41 17v18h236v-18q-53 -3 -61.5 -23t8.5 -57l90 -276l128 374h37l125 -374l81 226q27 73 23 99.5t-51 30.5v18h177v-18q-33 -4 -49.5 -23t-37.5 -73l-160 -436h-20zM435 771l158 -169h-20l-145 83l-145 -83
h-19l158 169h13z" />
    <glyph glyph-name="Ycircumflex" unicode="&#x176;" horiz-adv-x="727" 
d="M409 289v-143q0 -77 18.5 -99t91.5 -28v-19h-330v19q73 6 91.5 28t18.5 99v139l-188 325q-31 54 -51 72.5t-55 24.5v18h290v-18q-53 -6 -69 -23t2 -52l163 -289l133 224q46 81 39 108.5t-60 31.5v18h219v-18q-41 -6 -69 -30t-60 -78zM377 932h16l145 -139h-23l-130 59
l-130 -59h-23z" />
    <glyph glyph-name="ycircumflex" unicode="&#x177;" horiz-adv-x="592" 
d="M151 -221v-2q-41 0 -64.5 17.5t-23.5 47.5q0 25 14.5 40.5t31.5 15.5t31 -16l49 -51q20 31 57 119l19 45l-192 456q-16 38 -29 52t-39 16v18h236v-18q-53 -4 -62.5 -23t10.5 -55l134 -319l111 266q18 47 21.5 71t-10 39t-49.5 22v18h192v-18q-38 -8 -51 -24t-38 -74
l-211 -496q-37 -84 -62.5 -115.5t-74.5 -31.5zM326 770l158 -169h-20l-145 83l-145 -83h-19l158 169h13z" />
    <glyph glyph-name="Ydieresis" unicode="&#x178;" horiz-adv-x="727" 
d="M409 289v-143q0 -77 18.5 -99t91.5 -28v-19h-330v19q73 6 91.5 28t18.5 99v139l-188 325q-31 54 -51 72.5t-55 24.5v18h290v-18q-53 -6 -69 -23t2 -52l163 -289l133 224q46 81 39 108.5t-60 31.5v18h219v-18q-41 -6 -69 -30t-60 -78zM441 859q0 27 17.5 45t44.5 18
q26 0 44 -18.5t18 -44.5q0 -27 -17.5 -45t-44.5 -18t-44.5 17.5t-17.5 45.5zM213 859q0 27 17.5 45t44.5 18q26 0 43.5 -18.5t17.5 -44.5q0 -28 -17.5 -45.5t-43.5 -17.5q-27 0 -44.5 17.5t-17.5 45.5z" />
    <glyph glyph-name="Zacute" unicode="&#x179;" horiz-adv-x="670" 
d="M180 36h100q49 0 73 0.5t59 4t52.5 10t41 19.5t37.5 32.5t28.5 47.5t26.5 66h18l-29 -219q-76 3 -221 3h-322v11l435 678h-50q-43 0 -64.5 -0.5t-54 -2.5t-48 -6.5t-38.5 -13t-35.5 -21.5t-28 -32t-26.5 -44.5t-22 -59.5h-19l30 219q75 -3 220 -3h278v-10zM562 922
l-219 -129h-21l83 129h157z" />
    <glyph glyph-name="zacute" unicode="&#x17a;" horiz-adv-x="581" 
d="M495 0h-446v9l332 488h-84q-46 0 -71.5 -2t-48.5 -9t-34.5 -22t-19.5 -38t-13 -61h-20v173h423v-10l-327 -487h102q46 0 71.5 2t48.5 9t34.5 22t19.5 38t13 61h20v-173zM354 772h124l-182 -169h-16z" />
    <glyph glyph-name="Zdotaccent" unicode="&#x17b;" horiz-adv-x="670" 
d="M180 36h100q49 0 73 0.5t59 4t52.5 10t41 19.5t37.5 32.5t28.5 47.5t26.5 66h18l-29 -219q-76 3 -221 3h-322v11l435 678h-50q-43 0 -64.5 -0.5t-54 -2.5t-48 -6.5t-38.5 -13t-35.5 -21.5t-28 -32t-26.5 -44.5t-22 -59.5h-19l30 219q75 -3 220 -3h278v-10zM317 859
q0 27 17.5 45t44.5 18q26 0 43.5 -18.5t17.5 -44.5q0 -28 -17.5 -45.5t-43.5 -17.5q-27 0 -44.5 17.5t-17.5 45.5z" />
    <glyph glyph-name="zdotaccent" unicode="&#x17c;" horiz-adv-x="581" 
d="M495 0h-446v9l332 488h-84q-46 0 -71.5 -2t-48.5 -9t-34.5 -22t-19.5 -38t-13 -61h-20v173h423v-10l-327 -487h102q46 0 71.5 2t48.5 9t34.5 22t19.5 38t13 61h20v-173zM238 710q0 26 17.5 44t44.5 18q26 0 43.5 -18t17.5 -44q0 -28 -17.5 -45.5t-43.5 -17.5
q-27 0 -44.5 17.5t-17.5 45.5z" />
    <glyph glyph-name="Zcaron" unicode="&#x17d;" horiz-adv-x="670" 
d="M180 36h100q49 0 73 0.5t59 4t52.5 10t41 19.5t37.5 32.5t28.5 47.5t26.5 66h18l-29 -219q-76 3 -221 3h-322v11l435 678h-50q-43 0 -64.5 -0.5t-54 -2.5t-48 -6.5t-38.5 -13t-35.5 -21.5t-28 -32t-26.5 -44.5t-22 -59.5h-19l30 219q75 -3 220 -3h278v-10zM363 793
l-145 139h23l130 -59l130 59h23l-145 -139h-16z" />
    <glyph glyph-name="zcaron" unicode="&#x17e;" horiz-adv-x="581" 
d="M495 0h-446v9l332 488h-84q-46 0 -71.5 -2t-48.5 -9t-34.5 -22t-19.5 -38t-13 -61h-20v173h423v-10l-327 -487h102q46 0 71.5 2t48.5 9t34.5 22t19.5 38t13 61h20v-173zM310 603h-13l-158 169h19l145 -83l145 83h20z" />
    <glyph glyph-name="uni018F" unicode="&#x18f;" horiz-adv-x="766" 
d="M716 373q0 -91 -28.5 -165.5t-77 -122t-112 -73t-134.5 -25.5q-90 0 -161 39t-113 121t-40 197h551v14q0 144 -72 220.5t-190 76.5q-95 0 -164.5 -40.5t-91.5 -96.5l-19 5q24 85 105.5 153.5t202.5 68.5q163 0 253.5 -102t90.5 -270zM364 22q100 0 161.5 72.5t72.5 204.5
h-425q0 -114 48 -195.5t143 -81.5z" />
    <glyph glyph-name="Scommaaccent" unicode="&#x218;" horiz-adv-x="610" 
d="M294 -13l1 1q-138 0 -230 54v246h20q7 -67 23 -116.5t35.5 -77t46.5 -44t51 -21.5t54 -5q69 0 120 37.5t51 105.5q0 49 -37.5 82t-107.5 64l-78 34q-173 76 -173 210q0 82 70 137t170 55q128 0 201 -46l4 -210h-20q-17 124 -65.5 172t-123.5 48q-63 0 -106.5 -32
t-43.5 -88q0 -85 114 -133l78 -34q102 -44 154 -93t52 -129q0 -101 -77.5 -159t-182.5 -58zM241 -114q0 25 18 42.5t44 17.5q27 0 42.5 -18.5t15.5 -48.5q0 -54 -38 -108.5t-93 -80.5l-5 10q76 58 76 128q-25 2 -42.5 18t-17.5 40z" />
    <glyph glyph-name="scommaaccent" unicode="&#x219;" horiz-adv-x="470" 
d="M257 547h3q75 0 128 -24v-149h-21q-26 133 -131 133q-40 0 -68.5 -19.5t-28.5 -52.5q0 -29 21.5 -49.5t63.5 -41.5l57 -30q72 -37 104 -71.5t32 -97.5q0 -72 -58 -115t-137 -43q-93 0 -161 38v187h20q23 -179 147 -179q44 0 75.5 21.5t31.5 66.5q0 31 -22.5 53t-69.5 45
l-57 30q-63 31 -93 65t-30 91q0 69 60.5 105.5t133.5 36.5zM178 -115q0 25 18 42.5t44 17.5q27 0 42.5 -18.5t15.5 -48.5q0 -54 -38 -108.5t-93 -80.5l-5 10q76 58 76 128q-25 2 -42.5 18t-17.5 40z" />
    <glyph glyph-name="Tcommaaccent" unicode="&#x21a;" horiz-adv-x="766" 
d="M218 0h-1v19q73 6 91.5 28t18.5 99v548h-33q-62 0 -96 -5.5t-64.5 -25t-49.5 -55t-41 -99.5h-19l29 219q76 -3 221 -3h216q145 0 221 3l29 -219h-18q-17 51 -33.5 83t-35 53.5t-46 31.5t-57.5 13.5t-79 3.5h-33v-548q0 -77 18.5 -99t91.5 -28v-19h-330zM311 -115
q0 25 18 42.5t44 17.5q27 0 42.5 -18.5t15.5 -48.5q0 -54 -38 -108.5t-93 -80.5l-5 10q76 58 76 128q-25 2 -42.5 18t-17.5 40z" />
    <glyph glyph-name="tcommaaccent" unicode="&#x21b;" horiz-adv-x="339" 
d="M206 -13h-1q-123 0 -123 153v359h-88v39h88v94l100 67v-161h129v-39h-129v-341q0 -58 15.5 -81.5t54.5 -23.5q46 0 77 31l9 -8q-47 -89 -132 -89zM117 -115q0 25 18 42.5t44 17.5q27 0 42.5 -18.5t15.5 -48.5q0 -54 -38 -108.5t-93 -80.5l-5 10q76 58 76 128
q-25 2 -42.5 18t-17.5 40z" />
    <glyph glyph-name="uni0232" unicode="&#x232;" horiz-adv-x="727" 
d="M409 289v-143q0 -77 18.5 -99t91.5 -28v-19h-330v19q73 6 91.5 28t18.5 99v139l-188 325q-31 54 -51 72.5t-55 24.5v18h290v-18q-53 -6 -69 -23t2 -52l163 -289l133 224q46 81 39 108.5t-60 31.5v18h219v-18q-41 -6 -69 -30t-60 -78zM540 818h-296v68h296v-68z" />
    <glyph glyph-name="uni0233" unicode="&#x233;" horiz-adv-x="592" 
d="M151 -221v-2q-41 0 -64.5 17.5t-23.5 47.5q0 25 14.5 40.5t31.5 15.5t31 -16l49 -51q20 31 57 119l19 45l-192 456q-16 38 -29 52t-39 16v18h236v-18q-53 -4 -62.5 -23t10.5 -55l134 -319l111 266q18 47 21.5 71t-10 39t-49.5 22v18h192v-18q-38 -8 -51 -24t-38 -74
l-211 -496q-37 -84 -62.5 -115.5t-74.5 -31.5zM455 663h-296v68h296v-68z" />
    <glyph glyph-name="dotlessj" unicode="&#x237;" horiz-adv-x="304" 
d="M110 80v289q0 74 -10 86.5t-70 12.5v18l182 61q-2 -106 -2 -219v-232q0 -112 -38.5 -189t-151.5 -140l-8 10q61 65 79.5 133t18.5 170z" />
    <glyph glyph-name="uni0259" unicode="&#x259;" horiz-adv-x="524" 
d="M247 547q118 0 178.5 -77t60.5 -201q0 -117 -72 -199.5t-174 -82.5q-80 0 -137 55.5t-66 161.5h359v4q0 112 -51 182t-145 70t-161 -67l-11 10q30 57 85.5 100.5t133.5 43.5zM264 23q49 0 85 35t45 107h-236q1 -68 29 -105t77 -37z" />
    <glyph glyph-name="circumflex" unicode="&#x2c6;" horiz-adv-x="359" 
d="M186 772l158 -169h-20l-145 83l-145 -83h-19l158 169h13z" />
    <glyph glyph-name="caron" unicode="&#x2c7;" horiz-adv-x="359" 
d="M186 603h-13l-158 169h19l145 -83l145 83h20z" />
    <glyph glyph-name="breve" unicode="&#x2d8;" horiz-adv-x="330" 
d="M167 663h1q88 0 94 99h51q0 -56 -37.5 -98.5t-107.5 -42.5t-107.5 42.5t-37.5 98.5h51q8 -99 93 -99z" />
    <glyph glyph-name="dotaccent" unicode="&#x2d9;" horiz-adv-x="163" 
d="M20 710q0 26 17.5 44t44.5 18q26 0 43.5 -18t17.5 -44q0 -28 -17.5 -45.5t-43.5 -17.5q-27 0 -44.5 17.5t-17.5 45.5z" />
    <glyph glyph-name="ring" unicode="&#x2da;" horiz-adv-x="227" 
d="M20 702q0 40 27 67t66 27t66.5 -27t27.5 -67q0 -38 -27.5 -65.5t-66.5 -27.5t-66 27.5t-27 65.5zM59 702q0 -25 15 -40t39 -15q23 0 38.5 15.5t15.5 39.5q0 25 -15.5 41t-38.5 16q-24 0 -39 -16t-15 -41z" />
    <glyph glyph-name="ogonek" unicode="&#x2db;" horiz-adv-x="240" 
d="M213 -155v1l7 -11q-50 -50 -110 -50q-37 0 -63.5 20.5t-26.5 60.5q0 37 38 73.5t88 62.5h24q-34 -22 -54.5 -52t-20.5 -59q0 -28 17 -45t42 -17q31 0 59 16z" />
    <glyph glyph-name="tilde" unicode="&#x2dc;" horiz-adv-x="374" 
d="M46 635h1h-19q0 53 24 94.5t70 41.5q30 0 80 -31.5t70 -31.5q27 0 40 14t15 46h19q0 -131 -86 -131q-35 0 -84 31.5t-74 31.5q-24 0 -39 -17t-17 -48z" />
    <glyph glyph-name="hungarumlaut" unicode="&#x2dd;" horiz-adv-x="409" 
d="M266 772h124l-182 -159h-16zM94 772h124l-182 -159h-16z" />
    <glyph glyph-name="uni032C" unicode="&#x32c;" horiz-adv-x="359" 
d="M194 -179h-29l-145 179h21l138 -92l139 92h21z" />
    <glyph glyph-name="Delta" unicode="&#x394;" horiz-adv-x="726" 
d="M11 0l353 722l351 -722h-704zM607 66l-243 507l-244 -507h487z" />
    <glyph glyph-name="Delta" unicode="&#x2206;" horiz-adv-x="726" 
d="M11 0l353 722l351 -722h-704zM607 66l-243 507l-244 -507h487z" />
    <glyph glyph-name="Omega" unicode="&#x3a9;" horiz-adv-x="843" 
d="M421 738v1q92 0 171 -34.5t132 -108.5t53 -175q0 -111 -63.5 -187.5t-147.5 -101.5v-66h190v-66h-264v177q97 16 155.5 82.5t58.5 163.5q0 116 -82 186.5t-203 70.5t-203 -70.5t-82 -186.5q0 -97 58.5 -163.5t155.5 -82.5v-177h-264v66h190v66q-84 24 -147.5 101
t-63.5 187q0 101 53 175t132 108.5t171 34.5z" />
    <glyph glyph-name="Omega" unicode="&#x2126;" horiz-adv-x="843" 
d="M421 738v1q92 0 171 -34.5t132 -108.5t53 -175q0 -111 -63.5 -187.5t-147.5 -101.5v-66h190v-66h-264v177q97 16 155.5 82.5t58.5 163.5q0 116 -82 186.5t-203 70.5t-203 -70.5t-82 -186.5q0 -97 58.5 -163.5t155.5 -82.5v-177h-264v66h190v66q-84 24 -147.5 101
t-63.5 187q0 101 53 175t132 108.5t171 34.5z" />
    <glyph glyph-name="pi" unicode="&#x3c0;" horiz-adv-x="676" 
d="M189 0h-70v473h-75v65h577v-65h-77v-330q0 -55 9 -68t57 -13h12v-62h-33q-71 0 -93.5 25t-22.5 106v342h-284v-473z" />
    <glyph glyph-name="Wgrave" unicode="&#x1e80;" horiz-adv-x="1070" 
d="M1059 725l1 1v-18q-39 -3 -58.5 -13.5t-37.5 -45.5t-40 -111l-164 -550h-45l-181 524l-156 -524h-45l-216 623q-21 59 -38.5 75.5t-67.5 20.5v18h290v-18q-53 -6 -68.5 -21t-3.5 -54l152 -456l122 419l-45 130h123l182 -549l100 339q37 132 36 156t-27 31q-11 2 -40 5v18
h227zM330 923h157l83 -129h-21z" />
    <glyph glyph-name="wgrave" unicode="&#x1e81;" horiz-adv-x="803" 
d="M530 -13v-1l-134 399l-137 -399h-19l-167 465q-15 38 -28 51t-41 17v18h236v-18q-53 -3 -61.5 -23t8.5 -57l90 -276l128 374h37l125 -374l81 226q27 73 23 99.5t-51 30.5v18h177v-18q-33 -4 -49.5 -23t-37.5 -73l-160 -436h-20zM238 771h124l74 -169h-16z" />
    <glyph glyph-name="Wacute" unicode="&#x1e82;" horiz-adv-x="1070" 
d="M1059 725l1 1v-18q-39 -3 -58.5 -13.5t-37.5 -45.5t-40 -111l-164 -550h-45l-181 524l-156 -524h-45l-216 623q-21 59 -38.5 75.5t-67.5 20.5v18h290v-18q-53 -6 -68.5 -21t-3.5 -54l152 -456l122 419l-45 130h123l182 -549l100 339q37 132 36 156t-27 31q-11 2 -40 5v18
h227zM744 923l-219 -129h-21l83 129h157z" />
    <glyph glyph-name="wacute" unicode="&#x1e83;" horiz-adv-x="803" 
d="M530 -13v-1l-134 399l-137 -399h-19l-167 465q-15 38 -28 51t-41 17v18h236v-18q-53 -3 -61.5 -23t8.5 -57l90 -276l128 374h37l125 -374l81 226q27 73 23 99.5t-51 30.5v18h177v-18q-33 -4 -49.5 -23t-37.5 -73l-160 -436h-20zM494 771h124l-182 -169h-16z" />
    <glyph glyph-name="Wdieresis" unicode="&#x1e84;" horiz-adv-x="1070" 
d="M1059 725l1 1v-18q-39 -3 -58.5 -13.5t-37.5 -45.5t-40 -111l-164 -550h-45l-181 524l-156 -524h-45l-216 623q-21 59 -38.5 75.5t-67.5 20.5v18h290v-18q-53 -6 -68.5 -21t-3.5 -54l152 -456l122 419l-45 130h123l182 -549l100 339q37 132 36 156t-27 31q-11 2 -40 5v18
h227zM602 860q0 27 17.5 45t44.5 18q26 0 44 -18.5t18 -44.5q0 -28 -18 -45.5t-44 -17.5q-27 0 -44.5 17.5t-17.5 45.5zM374 860q0 27 17.5 45t44.5 18q26 0 43.5 -18.5t17.5 -44.5q0 -28 -17.5 -45.5t-43.5 -17.5q-27 0 -44.5 17.5t-17.5 45.5z" />
    <glyph glyph-name="wdieresis" unicode="&#x1e85;" horiz-adv-x="803" 
d="M530 -13v-1l-134 399l-137 -399h-19l-167 465q-15 38 -28 51t-41 17v18h236v-18q-53 -3 -61.5 -23t8.5 -57l90 -276l128 374h37l125 -374l81 226q27 73 23 99.5t-51 30.5v18h177v-18q-33 -4 -49.5 -23t-37.5 -73l-160 -436h-20zM248 709q0 26 17.5 44t44.5 18
q26 0 43.5 -18t17.5 -44q0 -28 -17.5 -45.5t-43.5 -17.5q-27 0 -44.5 17.5t-17.5 45.5zM466 709q0 26 18 44t45 18q25 0 43 -18t18 -44q0 -27 -18 -45t-43 -18q-27 0 -45 17.5t-18 45.5z" />
    <glyph glyph-name="uni1ECA" unicode="&#x1eca;" horiz-adv-x="386" 
d="M248 579v-433q0 -82 15.5 -101t83.5 -27v-18h-308v18q68 8 83.5 27t15.5 101v433q0 30 -0.5 48t-6 33t-9.5 21t-19 12t-25.5 8t-38.5 6v18h308v-18q-28 -4 -38.5 -6t-25.5 -8t-19 -12t-9.5 -21t-6 -33t-0.5 -48zM130 -159q0 26 17.5 44t44.5 18q26 0 43.5 -18t17.5 -44
q0 -28 -17.5 -45.5t-43.5 -17.5q-27 0 -44.5 17.5t-17.5 45.5z" />
    <glyph glyph-name="uni1ECB" unicode="&#x1ecb;" horiz-adv-x="338" 
d="M104 -159q0 26 17.5 44t44.5 18q26 0 43.5 -18t17.5 -44q0 -28 -17.5 -45.5t-43.5 -17.5q-27 0 -44.5 17.5t-17.5 45.5zM223 328v-184q0 -80 11.5 -100t68.5 -26v-18h-260v18q57 6 68.5 26t11.5 100v225q0 74 -10 86.5t-70 12.5v18l182 61q-2 -106 -2 -219zM168 671
q-30 0 -50.5 19.5t-20.5 48.5t20.5 48.5t50.5 19.5t50 -19.5t20 -48.5t-20 -48.5t-50 -19.5z" />
    <glyph glyph-name="uni1ECC" unicode="&#x1ecc;" horiz-adv-x="844" 
d="M50 366q0 117 54.5 205t138 131t179.5 43t179.5 -43t138 -131t54.5 -205t-54.5 -205t-138 -131t-179.5 -43t-179.5 43t-138 131t-54.5 205zM671 366q0 152 -70 247.5t-179 95.5t-179 -95.5t-70 -247.5t70 -247.5t179 -95.5t179 95.5t70 247.5zM361 -159q0 26 17.5 44
t44.5 18q26 0 43.5 -18t17.5 -44q0 -28 -17.5 -45.5t-43.5 -17.5q-27 0 -44.5 17.5t-17.5 45.5z" />
    <glyph glyph-name="uni1ECD" unicode="&#x1ecd;" horiz-adv-x="624" 
d="M296 507q-146 0 -146 -204q0 -41 9.5 -86t29 -89t55 -72.5t81.5 -28.5q71 0 107 53t36 151q0 41 -9.5 86t-28.5 89t-54 72.5t-80 28.5zM306 547q110 0 191.5 -79.5t81.5 -199.5q0 -117 -78 -199t-188 -82q-109 0 -191 80t-82 200q0 118 77 199t189 81zM259 -159
q0 26 17.5 44t44.5 18q26 0 43.5 -18t17.5 -44q0 -28 -17.5 -45.5t-43.5 -17.5q-27 0 -44.5 17.5t-17.5 45.5z" />
    <glyph glyph-name="uni1EE4" unicode="&#x1ee4;" horiz-adv-x="785" 
d="M121 273v306q0 30 -0.5 48t-6 33t-9.5 21t-19 12t-25.5 8t-38.5 6v18h308v-18q-28 -4 -38.5 -6t-25.5 -8t-19 -12t-9.5 -21t-6 -33t-0.5 -48v-296q0 -248 188 -248q199 0 199 263v281q0 30 -0.5 48t-6 33t-9.5 21t-19 12t-25.5 8t-38.5 6v18h244v-18q-28 -4 -38.5 -6
t-25.5 -8t-19 -12t-9.5 -21t-6 -33t-0.5 -48v-280q0 -158 -66 -235t-207 -77q-145 0 -207.5 75t-62.5 211zM345 -159q0 26 17.5 44t44.5 18q26 0 43.5 -18t17.5 -44q0 -28 -17.5 -45.5t-43.5 -17.5q-27 0 -44.5 17.5t-17.5 45.5z" />
    <glyph glyph-name="uni1EE5" unicode="&#x1ee5;" horiz-adv-x="583" 
d="M490 345v1v-182q0 -71 10 -84.5t68 -15.5v-17l-163 -54l-12 96q-26 -42 -66 -71.5t-88 -29.5q-71 0 -114.5 49t-43.5 152q0 32 1 109.5t1 109.5q0 66 -11 81.5t-67 19.5v18l179 16q-2 -104 -2 -198v-138q0 -151 98 -151q69 0 110 65v287q0 66 -11 81.5t-67 19.5v18
l180 16q-2 -104 -2 -198zM232 -158q0 26 17.5 44t44.5 18q26 0 43.5 -18t17.5 -44q0 -28 -17.5 -45.5t-43.5 -17.5q-27 0 -44.5 17.5t-17.5 45.5z" />
    <glyph glyph-name="Ygrave" unicode="&#x1ef2;" horiz-adv-x="727" 
d="M409 289v-143q0 -77 18.5 -99t91.5 -28v-19h-330v19q73 6 91.5 28t18.5 99v139l-188 325q-31 54 -51 72.5t-55 24.5v18h290v-18q-53 -6 -69 -23t2 -52l163 -289l133 224q46 81 39 108.5t-60 31.5v18h219v-18q-41 -6 -69 -30t-60 -78zM187 922h157l83 -129h-21z" />
    <glyph glyph-name="ygrave" unicode="&#x1ef3;" horiz-adv-x="592" 
d="M151 -221v-2q-41 0 -64.5 17.5t-23.5 47.5q0 25 14.5 40.5t31.5 15.5t31 -16l49 -51q20 31 57 119l19 45l-192 456q-16 38 -29 52t-39 16v18h236v-18q-53 -4 -62.5 -23t10.5 -55l134 -319l111 266q18 47 21.5 71t-10 39t-49.5 22v18h192v-18q-38 -8 -51 -24t-38 -74
l-211 -496q-37 -84 -62.5 -115.5t-74.5 -31.5zM161 770h124l74 -169h-16z" />
    <glyph glyph-name="endash" unicode="&#x2013;" horiz-adv-x="483" 
d="M449 243h-415v66h415v-66z" />
    <glyph glyph-name="emdash" unicode="&#x2014;" horiz-adv-x="710" 
d="M676 243h-642v66h642v-66z" />
    <glyph glyph-name="quoteleft" unicode="&#x2018;" horiz-adv-x="310" 
d="M211 539v-1q0 -28 -19.5 -47.5t-48.5 -19.5q-32 0 -49.5 21t-17.5 55q0 62 43 123t104 92l7 -11q-86 -64 -86 -146q28 -1 47.5 -19.5t19.5 -46.5z" />
    <glyph glyph-name="quoteright" unicode="&#x2019;" horiz-adv-x="310" 
d="M77 694v1q0 29 19.5 48.5t48.5 19.5q32 0 49.5 -21t17.5 -55q0 -62 -43 -123t-104 -92l-7 11q86 64 86 146q-28 1 -47.5 19t-19.5 46z" />
    <glyph glyph-name="quotesinglbase" unicode="&#x201a;" horiz-adv-x="356" 
d="M110 59v1q0 29 19.5 48.5t48.5 19.5q32 0 49.5 -21t17.5 -55q0 -62 -43 -123t-104 -92l-7 11q86 64 86 146q-28 1 -47.5 19t-19.5 46z" />
    <glyph glyph-name="quotedblleft" unicode="&#x201c;" horiz-adv-x="503" 
d="M404 539v-1q0 -28 -19.5 -47.5t-48.5 -19.5q-32 0 -49.5 21t-17.5 55q0 62 43 123t104 92l7 -11q-86 -64 -86 -146q28 -1 47.5 -19.5t19.5 -46.5zM211 538v-1q0 -28 -19.5 -47.5t-48.5 -19.5q-32 0 -49.5 21t-17.5 55q0 62 43 123t104 92l7 -11q-86 -64 -86 -146
q28 -1 47.5 -19.5t19.5 -46.5z" />
    <glyph glyph-name="quotedblright" unicode="&#x201d;" horiz-adv-x="503" 
d="M77 694v1q0 29 19.5 48.5t48.5 19.5q32 0 49.5 -21t17.5 -55q0 -62 -43 -123t-104 -92l-7 11q86 64 86 146q-28 1 -47.5 19t-19.5 46zM270 695v1q0 29 19.5 48.5t48.5 19.5q32 0 49.5 -21t17.5 -55q0 -62 -43 -123t-104 -92l-7 11q86 64 86 146q-28 1 -47.5 19t-19.5 46z
" />
    <glyph glyph-name="quotedblbase" unicode="&#x201e;" horiz-adv-x="576" 
d="M329 59v1q0 29 19.5 48.5t48.5 19.5q32 0 49.5 -21t17.5 -55q0 -62 -43 -123t-104 -92l-7 11q86 64 86 146q-28 1 -47.5 19t-19.5 46zM110 60v1q0 29 19.5 48.5t48.5 19.5q32 0 49.5 -21t17.5 -55q0 -62 -43 -123t-104 -92l-7 11q86 64 86 146q-28 1 -47.5 19t-19.5 46z
" />
    <glyph glyph-name="dagger" unicode="&#x2020;" horiz-adv-x="533" 
d="M301 0h-70v428h-207v66h207v231h70v-231h208v-66h-208v-428z" />
    <glyph glyph-name="daggerdbl" unicode="&#x2021;" horiz-adv-x="594" 
d="M332 270h208v-67h-208v-203h-70v203h-207v67h207v173h-207v67h207v215h70v-215h208v-67h-208v-173z" />
    <glyph glyph-name="bullet" unicode="&#x2022;" horiz-adv-x="453" 
d="M44 283q0 75 52.5 127.5t126.5 52.5q79 0 133 -52.5t54 -127.5q0 -78 -54 -132t-133 -54q-74 0 -126.5 54t-52.5 132z" />
    <glyph glyph-name="ellipsis" unicode="&#x2026;" horiz-adv-x="1074" 
d="M823 59q0 29 21.5 50.5t50.5 21.5t50.5 -21.5t21.5 -50.5t-21.5 -50.5t-50.5 -21.5t-50.5 21.5t-21.5 50.5zM465 59q0 29 21.5 50.5t50.5 21.5t50.5 -21.5t21.5 -50.5t-21.5 -50.5t-50.5 -21.5t-50.5 21.5t-21.5 50.5zM107 59q0 29 21.5 50.5t50.5 21.5t50.5 -21.5
t21.5 -50.5t-21.5 -50.5t-50.5 -21.5t-50.5 21.5t-21.5 50.5z" />
    <glyph glyph-name="perthousand" unicode="&#x2030;" horiz-adv-x="1429" 
d="M114 523q0 -37 4 -69.5t12.5 -61.5t25 -45.5t39.5 -16.5t39.5 16.5t25 45.5t12.5 61.5t4 69.5q0 192 -81 192t-81 -192zM30 523q0 86 46.5 149t118.5 63t119 -63t47 -149q0 -85 -47 -149t-119 -64t-118.5 64t-46.5 149zM299 0h-66l508 725h65zM763 206q0 -37 4 -69.5
t12.5 -61.5t25 -45.5t39.5 -16.5t39.5 16.5t25 45.5t12.5 61.5t4 69.5q0 192 -81 192t-81 -192zM679 206q0 86 46.5 149t118.5 63t119 -63t47 -149q0 -85 -47 -149t-119 -64t-118.5 64t-46.5 149zM1153 206q0 -37 4 -69.5t12.5 -61.5t25 -45.5t39.5 -16.5t39.5 16.5t25 45.5
t12.5 61.5t4 69.5q0 192 -81 192t-81 -192zM1069 206q0 86 46.5 149t118.5 63t119 -63t47 -149q0 -85 -47 -149t-119 -64t-118.5 64t-46.5 149z" />
    <glyph glyph-name="guilsinglleft" unicode="&#x2039;" horiz-adv-x="361" 
d="M236 38l-203 235l203 234h49l-133 -234l133 -235h-49z" />
    <glyph glyph-name="guilsinglright" unicode="&#x203a;" horiz-adv-x="362" 
d="M329 273l-203 -235h-50l134 235l-134 234h50z" />
    <glyph glyph-name="fraction" unicode="&#x2044;" horiz-adv-x="259" 
d="M-91 0h-66l508 725h65z" />
    <glyph glyph-name="zero.superior" unicode="&#x2070;" horiz-adv-x="390" 
d="M114 644q0 -37 4 -69.5t12.5 -61.5t25 -45.5t39.5 -16.5t39.5 16.5t25 45.5t12.5 61.5t4 69.5q0 192 -81 192t-81 -192zM30 644q0 86 46.5 149t118.5 63t119 -63t47 -149q0 -85 -47 -149t-119 -64t-118.5 64t-46.5 149z" />
    <glyph glyph-name="four.superior" unicode="&#x2074;" horiz-adv-x="345" 
d="M262 438h-77v101h-177v42l188 265h66v-244h68v-63h-68v-101zM185 602v185l-131 -185h131z" />
    <glyph glyph-name="five.superior" unicode="&#x2075;" horiz-adv-x="315" 
d="M43 655h1l68 191h183l-21 -69h-162l-21 -58q96 -7 147.5 -45.5t51.5 -101.5q0 -64 -46.5 -102.5t-111.5 -38.5q-55 0 -101 18v103h11q11 -47 37 -72.5t60 -25.5q35 0 55.5 22.5t20.5 58.5q0 49 -41.5 81.5t-130.5 38.5z" />
    <glyph glyph-name="six.superior" unicode="&#x2076;" horiz-adv-x="375" 
d="M191 431h1q-71 0 -112 44.5t-41 121.5q0 99 77.5 171t188.5 95l5 -15q-156 -49 -184 -183q34 46 92 46q50 0 84.5 -35t34.5 -93q0 -64 -42.5 -108t-103.5 -44zM185 670q-36 0 -61 -22q-2 -24 -2 -38q0 -70 17 -114.5t53 -44.5q65 0 65 108q0 49 -19 80t-53 31z" />
    <glyph glyph-name="seven.superior" unicode="&#x2077;" horiz-adv-x="299" 
d="M9 777h1v69h288v-70q-83 -78 -124.5 -155t-41.5 -183h-86q2 61 21.5 113t56 94t70.5 70.5t82 61.5h-267z" />
    <glyph glyph-name="eight.superior" unicode="&#x2078;" horiz-adv-x="376" 
d="M184 431v-1q-62 0 -104 27.5t-42 79.5q0 34 24.5 60t64.5 41q-71 45 -71 111q0 47 38.5 76.5t94.5 29.5q53 0 90.5 -23t37.5 -63q0 -31 -25 -55t-61 -38q53 -26 80 -52.5t27 -70.5q0 -56 -45.5 -89t-108.5 -33zM94 539q0 -40 23 -64t67 -24t67 19.5t23 48.5
q0 28 -19.5 47t-59.5 38l-41 19l-12 5q-48 -24 -48 -89zM264 764q0 69 -75 69q-34 0 -53.5 -16.5t-19.5 -41.5q0 -45 72 -79l30 -14q46 29 46 82z" />
    <glyph glyph-name="nine.superior" unicode="&#x2079;" horiz-adv-x="375" 
d="M185 856q70 0 111 -45t41 -123q0 -98 -77 -169t-189 -97l-5 15q154 49 182 183q-35 -46 -91 -46q-50 0 -84.5 36t-34.5 95q0 64 42.5 107.5t104.5 43.5zM191 617q39 0 60 21q3 20 3 39q0 69 -17 113.5t-53 44.5q-65 0 -65 -108q0 -49 19 -79.5t53 -30.5z" />
    <glyph glyph-name="plus.superior" unicode="&#x207a;" horiz-adv-x="382" 
d="M215 438h-48v132h-131v44h131v128h48v-128h131v-44h-131v-132z" />
    <glyph glyph-name="minus.superior" unicode="&#x207b;" horiz-adv-x="382" 
d="M39 614h304v-44h-304v44z" />
    <glyph glyph-name="equal.superior" unicode="&#x207c;" horiz-adv-x="382" 
d="M331 631h-280v44h280v-44zM331 515h-280v44h280v-44z" />
    <glyph glyph-name="parenleft.superior" unicode="&#x207d;" horiz-adv-x="186" 
d="M104 593v2q0 -215 66 -287l-8 -10q-131 104 -131 296q0 196 131 297l8 -10q-66 -72 -66 -288z" />
    <glyph glyph-name="parenright.superior" unicode="&#x207e;" horiz-adv-x="187" 
d="M83 593q0 213 -68 287l8 10q64 -49 98.5 -126t34.5 -171q0 -190 -133 -296l-8 10q68 74 68 286z" />
    <glyph glyph-name="n.superior" unicode="&#x207f;" horiz-adv-x="349" 
d="M8 698l-1 -1v9l121 39l-1 -55q37 55 91 55q38 0 60.5 -26.5t22.5 -80.5v-120q0 -46 6 -56.5t39 -14.5v-10h-159v10q27 4 32.5 14.5t5.5 56.5v106q0 70 -48 70q-32 0 -48 -19v-157q0 -46 5 -56.5t32 -14.5v-10h-158v10q32 4 38.5 14.5t6.5 56.5v118q0 38 -7.5 49t-37.5 13
z" />
    <glyph glyph-name="zero.inferior" unicode="&#x2080;" horiz-adv-x="390" 
d="M114 78q0 -37 4 -69.5t12.5 -61.5t25 -45.5t39.5 -16.5t39.5 16.5t25 45.5t12.5 61.5t4 69.5q0 192 -81 192t-81 -192zM30 78q0 86 46.5 149t118.5 63t119 -63t47 -149q0 -85 -47 -149t-119 -64t-118.5 64t-46.5 149z" />
    <glyph glyph-name="one.inferior" unicode="&#x2081;" horiz-adv-x="291" 
d="M192 287v-333q0 -44 8 -55t50 -17v-10h-201v11q47 4 57 15t10 56v264h-77v12q97 11 141 57h12z" />
    <glyph glyph-name="two.inferior" unicode="&#x2082;" horiz-adv-x="314" 
d="M274 187l1 2q0 -41 -19 -70.5t-85 -95.5q-41 -41 -84 -81h199v-70h-300v7q122 106 166.5 171t44.5 112q0 77 -75 77q-73 0 -90 -65h-17q10 56 46 86t93 30q51 0 85.5 -27t34.5 -76z" />
    <glyph glyph-name="three.inferior" unicode="&#x2083;" horiz-adv-x="335" 
d="M130 -135l1 -1q-58 0 -100 20v104h10q12 -51 37.5 -76t59.5 -25q37 0 59.5 22t22.5 57q0 33 -24.5 66t-84.5 42v12l13 6q38 16 56.5 42.5t18.5 50.5q0 53 -67 53q-31 0 -55.5 -17t-30.5 -48h-18q10 56 46 86t93 30q45 0 76.5 -20.5t31.5 -56.5q0 -30 -26.5 -55.5
t-57.5 -37.5v-2q49 -15 77.5 -47t28.5 -76q0 -59 -50.5 -94t-116.5 -35z" />
    <glyph glyph-name="four.inferior" unicode="&#x2084;" horiz-adv-x="345" 
d="M262 -128h-77v101h-177v42l188 265h66v-244h68v-63h-68v-101zM185 36v185l-131 -185h131z" />
    <glyph glyph-name="five.inferior" unicode="&#x2085;" horiz-adv-x="315" 
d="M43 89h1l68 191h183l-21 -69h-162l-21 -58q96 -7 147.5 -45.5t51.5 -101.5q0 -64 -46.5 -102.5t-111.5 -38.5q-55 0 -101 18v103h11q11 -47 37 -72.5t60 -25.5q35 0 55.5 22.5t20.5 58.5q0 49 -41.5 81.5t-130.5 38.5z" />
    <glyph glyph-name="six.inferior" unicode="&#x2086;" horiz-adv-x="375" 
d="M191 -135h1q-71 0 -112 44.5t-41 121.5q0 99 77.5 171t188.5 95l5 -15q-156 -49 -184 -183q34 46 92 46q50 0 84.5 -35t34.5 -93q0 -64 -42.5 -108t-103.5 -44zM185 104q-36 0 -61 -22q-2 -24 -2 -38q0 -70 17 -114.5t53 -44.5q65 0 65 108q0 49 -19 80t-53 31z" />
    <glyph glyph-name="seven.inferior" unicode="&#x2087;" horiz-adv-x="299" 
d="M9 211h1v69h288v-70q-83 -78 -124.5 -155t-41.5 -183h-86q2 61 21.5 113t56 94t70.5 70.5t82 61.5h-267z" />
    <glyph glyph-name="eight.inferior" unicode="&#x2088;" horiz-adv-x="376" 
d="M184 -135v-1q-62 0 -104 27.5t-42 79.5q0 34 24.5 60t64.5 41q-71 45 -71 111q0 47 38.5 76.5t94.5 29.5q53 0 90.5 -23t37.5 -63q0 -31 -25 -55t-61 -38q53 -26 80 -52.5t27 -70.5q0 -56 -45.5 -89t-108.5 -33zM94 -27q0 -40 23 -64t67 -24t67 19.5t23 48.5
q0 28 -19.5 47t-59.5 38l-41 19l-12 5q-48 -24 -48 -89zM264 198q0 69 -75 69q-34 0 -53.5 -16.5t-19.5 -41.5q0 -45 72 -79l30 -14q46 29 46 82z" />
    <glyph glyph-name="nine.inferior" unicode="&#x2089;" horiz-adv-x="375" 
d="M185 290q70 0 111 -45t41 -123q0 -98 -77 -169t-189 -97l-5 15q154 49 182 183q-35 -46 -91 -46q-50 0 -84.5 36t-34.5 95q0 64 42.5 107.5t104.5 43.5zM191 51q39 0 60 21q3 20 3 39q0 69 -17 113.5t-53 44.5q-65 0 -65 -108q0 -49 19 -79.5t53 -30.5z" />
    <glyph glyph-name="parenleft.inferior" unicode="&#x208d;" horiz-adv-x="186" 
d="M104 27v2q0 -215 66 -287l-8 -10q-131 104 -131 296q0 196 131 297l8 -10q-66 -72 -66 -288z" />
    <glyph glyph-name="parenright.inferior" unicode="&#x208e;" horiz-adv-x="187" 
d="M83 27q0 213 -68 287l8 10q64 -49 98.5 -126t34.5 -171q0 -190 -133 -296l-8 10q68 74 68 286z" />
    <glyph glyph-name="Euro" unicode="&#x20ac;" horiz-adv-x="762" 
d="M362 266h-139q17 -116 70 -179.5t131 -63.5q171 0 197 200h97q-17 -113 -97.5 -174.5t-194.5 -61.5q-128 0 -208 75t-101 204h-126l40 60h79q-1 13 -1 40q0 39 2 50h-120l40 60h89q24 124 105 194.5t202 70.5q112 0 192 -63t96 -172h-97q-12 94 -59 146.5t-131 52.5
q-78 0 -131.5 -59t-72.5 -170h261l-41 -60h-227q-1 -17 -1 -50q0 -27 1 -40h186z" />
    <glyph glyph-name="afii61289" unicode="&#x2113;" horiz-adv-x="406" 
d="M115 141h1v77l-82 -62l-33 48l115 88v260q0 96 31 141t103 45q60 0 92 -42.5t32 -113.5q0 -167 -182 -306l-13 -10v-125q0 -54 14 -76t53 -22q52 0 93 41l34 -43q-59 -54 -133 -54q-70 0 -97.5 37t-27.5 117zM179 551v1v-211l20 16q110 83 110 222q0 103 -66 103
q-35 0 -49.5 -29.5t-14.5 -101.5z" />
    <glyph glyph-name="afii61352" unicode="&#x2116;" horiz-adv-x="1150" 
d="M628 185v-2v394q0 78 -17 99t-83 31v16h245v-16q-67 -10 -83.5 -30.5t-16.5 -98.5v-589h-40l-449 574v-418q0 -78 17 -100t83 -30v-16h-245v16q66 8 82.5 30t16.5 100v477l-30 40t-24 26t-30 21v16h151zM954 749q63 0 107.5 -43.5t44.5 -109.5q0 -64 -43 -109.5
t-108 -45.5q-64 0 -107.5 44t-43.5 112q0 62 43 107t107 45zM949 730q-62 0 -62 -114q0 -31 6 -63.5t24 -62t46 -29.5q31 0 45 33.5t14 83.5q0 53 -17.5 102.5t-55.5 49.5zM1099 352h-284v54h284v-54z" />
    <glyph glyph-name="uni2117" unicode="&#x2117;" horiz-adv-x="837" 
d="M44 361q0 164 109 270t267 106q157 0 265.5 -106t108.5 -270t-108.5 -269t-265.5 -105q-159 0 -267.5 105t-108.5 269zM108 361q0 -139 89 -228t223 -89q133 0 221.5 88.5t88.5 228.5t-88.5 229t-221.5 89q-134 0 -223 -89t-89 -229zM443 330h-84v-155h-63v397h120
q95 0 140.5 -24.5t45.5 -95.5q0 -52 -40.5 -87t-118.5 -35zM536 451q0 61 -99 61h-78v-124h82q50 0 72.5 15t22.5 48z" />
    <glyph glyph-name="trademark" unicode="&#x2122;" horiz-adv-x="878" 
d="M149 319v345h-130v61h326v-61h-131v-345h-65zM648 319h-73l-123 340v-340h-64v406h111l115 -328l110 328h111v-406h-65v340z" />
    <glyph glyph-name="estimated" unicode="&#x212e;" horiz-adv-x="589" 
d="M505 150h-1h41q-26 -73 -88 -118t-157 -45q-130 0 -202 79.5t-72 201.5q0 124 74 201.5t195 77.5q123 0 193 -80t72 -198h-416v-193q24 -24 69.5 -39.5t95.5 -15.5q71 0 121 34t75 95zM143 461v-160h298v159q-57 53 -147 53q-102 0 -151 -52z" />
    <glyph glyph-name="onethird" unicode="&#x2153;" horiz-adv-x="885" 
d="M192 732v-333q0 -44 8 -55t50 -17v-10h-201v11q47 4 57 15t10 56v264h-77v12q97 11 141 57h12zM200 0h-66l508 725h65zM680 -7l1 -1q-58 0 -100 20v104h10q12 -51 37.5 -76t59.5 -25q37 0 59.5 22t22.5 57q0 33 -24.5 66t-84.5 42v12l13 6q38 16 56.5 42.5t18.5 50.5
q0 53 -67 53q-31 0 -55.5 -17t-30.5 -48h-18q10 56 46 86t93 30q45 0 76.5 -20.5t31.5 -56.5q0 -30 -26.5 -55.5t-57.5 -37.5v-2q49 -15 77.5 -47t28.5 -76q0 -59 -50.5 -94t-116.5 -35z" />
    <glyph glyph-name="twothirds" unicode="&#x2154;" horiz-adv-x="908" 
d="M274 632l1 2q0 -41 -19 -70.5t-85 -95.5q-41 -40 -84 -81h199v-70h-300v7q122 106 166.5 171t44.5 112q0 77 -75 77q-73 0 -90 -65h-17q10 56 46 86t93 30q51 0 85.5 -27t34.5 -76zM224 2h-66l508 725h65zM704 -5l1 -1q-58 0 -100 20v104h10q12 -51 37.5 -76t59.5 -25
q37 0 59.5 22t22.5 57q0 33 -24.5 66t-84.5 42v12l13 6q38 16 56.5 42.5t18.5 50.5q0 53 -67 53q-31 0 -55.5 -17t-30.5 -48h-18q10 56 46 86t93 30q45 0 76.5 -20.5t31.5 -56.5q0 -30 -26.5 -55.5t-57.5 -37.5v-2q49 -15 77.5 -47t28.5 -76q0 -59 -50.5 -94t-116.5 -35z
" />
    <glyph glyph-name="uni2155" unicode="&#x2155;" horiz-adv-x="865" 
d="M192 732v-333q0 -44 8 -55t50 -17v-10h-201v11q47 4 57 15t10 56v264h-77v12q97 11 141 57h12zM200 0h-66l508 725h65zM593 217h1l68 191h183l-21 -69h-162l-21 -58q96 -7 147.5 -45.5t51.5 -101.5q0 -64 -46.5 -102.5t-111.5 -38.5q-55 0 -101 18v103h11
q11 -47 37 -72.5t60 -25.5q35 0 55.5 22.5t20.5 58.5q0 49 -41.5 81.5t-130.5 38.5z" />
    <glyph glyph-name="uni2156" unicode="&#x2156;" horiz-adv-x="888" 
d="M274 632l1 2q0 -41 -19 -70.5t-85 -95.5q-41 -40 -84 -81h199v-70h-300v7q122 106 166.5 171t44.5 112q0 77 -75 77q-73 0 -90 -65h-17q10 56 46 86t93 30q51 0 85.5 -27t34.5 -76zM224 2h-66l508 725h65zM617 219h1l68 191h183l-21 -69h-162l-21 -58q96 -7 147.5 -45.5
t51.5 -101.5q0 -64 -46.5 -102.5t-111.5 -38.5q-55 0 -101 18v103h11q11 -47 37 -72.5t60 -25.5q35 0 55.5 22.5t20.5 58.5q0 49 -41.5 81.5t-130.5 38.5z" />
    <glyph glyph-name="uni2157" unicode="&#x2157;" horiz-adv-x="909" 
d="M130 310l1 -1q-58 0 -100 20v104h10q12 -51 37.5 -76t59.5 -25q37 0 59.5 22t22.5 57q0 33 -24.5 66t-84.5 42v12l13 6q38 16 56.5 42.5t18.5 50.5q0 53 -67 53q-31 0 -55.5 -17t-30.5 -48h-18q10 56 46 86t93 30q45 0 76.5 -20.5t31.5 -56.5q0 -30 -26.5 -55.5
t-57.5 -37.5v-2q49 -15 77.5 -47t28.5 -76q0 -59 -50.5 -94t-116.5 -35zM245 -1h-66l508 725h65zM638 216h1l68 191h183l-21 -69h-162l-21 -58q96 -7 147.5 -45.5t51.5 -101.5q0 -64 -46.5 -102.5t-111.5 -38.5q-55 0 -101 18v103h11q11 -47 37 -72.5t60 -25.5
q35 0 55.5 22.5t20.5 58.5q0 49 -41.5 81.5t-130.5 38.5z" />
    <glyph glyph-name="uni2158" unicode="&#x2158;" horiz-adv-x="919" 
d="M262 317h-77v101h-177v42l188 265h66v-244h68v-63h-68v-101zM185 481v185l-131 -185h131zM254 0h-66l508 725h65zM647 217h1l68 191h183l-21 -69h-162l-21 -58q96 -7 147.5 -45.5t51.5 -101.5q0 -64 -46.5 -102.5t-111.5 -38.5q-55 0 -101 18v103h11q11 -47 37 -72.5
t60 -25.5q35 0 55.5 22.5t20.5 58.5q0 49 -41.5 81.5t-130.5 38.5z" />
    <glyph glyph-name="uni2159" unicode="&#x2159;" horiz-adv-x="925" 
d="M192 732v-333q0 -44 8 -55t50 -17v-10h-201v11q47 4 57 15t10 56v264h-77v12q97 11 141 57h12zM200 0h-66l508 725h65zM741 -7h1q-71 0 -112 44.5t-41 121.5q0 99 77.5 171t188.5 95l5 -15q-156 -49 -184 -183q34 46 92 46q50 0 84.5 -35t34.5 -93q0 -64 -42.5 -108
t-103.5 -44zM735 232q-36 0 -61 -22q-2 -24 -2 -38q0 -70 17 -114.5t53 -44.5q65 0 65 108q0 49 -19 80t-53 31z" />
    <glyph glyph-name="uni215A" unicode="&#x215a;" horiz-adv-x="949" 
d="M43 534h1l68 191h183l-21 -69h-162l-21 -58q96 -7 147.5 -45.5t51.5 -101.5q0 -64 -46.5 -102.5t-111.5 -38.5q-55 0 -101 18v103h11q11 -47 37 -72.5t60 -25.5q35 0 55.5 22.5t20.5 58.5q0 49 -41.5 81.5t-130.5 38.5zM225 0h-66l508 725h65zM766 -7h1q-71 0 -112 44.5
t-41 121.5q0 99 77.5 171t188.5 95l5 -15q-156 -49 -184 -183q35 46 92 46q50 0 84.5 -35t34.5 -93q0 -64 -42.5 -108t-103.5 -44zM760 232q-36 0 -61 -22q-2 -24 -2 -38q0 -70 17 -114.5t53 -44.5q65 0 65 108q0 49 -19 80t-53 31z" />
    <glyph glyph-name="oneeighth" unicode="&#x215b;" horiz-adv-x="926" 
d="M192 732v-333q0 -44 8 -55t50 -17v-10h-201v11q47 4 57 15t10 56v264h-77v12q97 11 141 57h12zM200 0h-66l508 725h65zM734 -7v-1q-62 0 -104 27.5t-42 79.5q0 34 24.5 60t64.5 41q-71 45 -71 111q0 47 38.5 76.5t94.5 29.5q53 0 90.5 -23t37.5 -63q0 -31 -25 -55
t-61 -38q53 -26 80 -52.5t27 -70.5q0 -56 -45.5 -89t-108.5 -33zM644 101q0 -40 23 -64t67 -24t67 19.5t23 48.5q0 28 -19.5 47t-59.5 38l-41 19l-12 5q-48 -24 -48 -89zM814 326q0 69 -75 69q-34 0 -53.5 -16.5t-19.5 -41.5q0 -45 72 -79l30 -14q46 29 46 82z" />
    <glyph glyph-name="threeeighths" unicode="&#x215c;" horiz-adv-x="970" 
d="M130 310l1 -1q-58 0 -100 20v104h10q12 -51 37.5 -76t59.5 -25q37 0 59.5 22t22.5 57q0 33 -24.5 66t-84.5 42v12l13 6q38 16 56.5 42.5t18.5 50.5q0 53 -67 53q-31 0 -55.5 -17t-30.5 -48h-18q10 56 46 86t93 30q45 0 76.5 -20.5t31.5 -56.5q0 -30 -26.5 -55.5
t-57.5 -37.5v-2q49 -15 77.5 -47t28.5 -76q0 -59 -50.5 -94t-116.5 -35zM245 -1h-66l508 725h65zM779 -8v-1q-62 0 -104 27.5t-42 79.5q0 34 24.5 60t64.5 41q-71 45 -71 111q0 47 38.5 76.5t94.5 29.5q53 0 90.5 -23t37.5 -63q0 -31 -25 -55t-61 -38q53 -26 80 -52.5
t27 -70.5q0 -56 -45.5 -89t-108.5 -33zM689 100q0 -40 23 -64t67 -24t67 19.5t23 48.5q0 28 -19.5 47t-59.5 38l-41 19l-12 5q-48 -24 -48 -89zM859 325q0 69 -75 69q-34 0 -53.5 -16.5t-19.5 -41.5q0 -44 72 -79l30 -14q46 29 46 82z" />
    <glyph glyph-name="fiveeighths" unicode="&#x215d;" horiz-adv-x="950" 
d="M43 534h1l68 191h183l-21 -69h-162l-21 -58q96 -7 147.5 -45.5t51.5 -101.5q0 -64 -46.5 -102.5t-111.5 -38.5q-55 0 -101 18v103h11q11 -47 37 -72.5t60 -25.5q35 0 55.5 22.5t20.5 58.5q0 49 -41.5 81.5t-130.5 38.5zM225 0h-66l508 725h65zM759 -7v-1q-62 0 -104 27.5
t-42 79.5q0 34 24.5 60t64.5 41q-71 45 -71 111q0 47 38.5 76.5t94.5 29.5q53 0 90.5 -23t37.5 -63q0 -31 -25 -55t-61 -38q53 -26 80 -52.5t27 -70.5q0 -56 -45.5 -89t-108.5 -33zM669 101q0 -40 23 -64t67 -24t67 19.5t23 48.5q0 28 -19.5 47t-59.5 38l-41 19l-12 5
q-48 -24 -48 -89zM839 326q0 69 -75 69q-34 0 -53.5 -16.5t-19.5 -41.5q0 -45 72 -79l30 -14q46 29 46 82z" />
    <glyph glyph-name="seveneighths" unicode="&#x215e;" horiz-adv-x="934" 
d="M9 656h1v69h288v-70q-83 -78 -124.5 -155t-41.5 -183h-86q2 61 21.5 113t56 94t70.5 70.5t82 61.5h-267zM209 0h-66l508 725h65zM743 -7v-1q-62 0 -104 27.5t-42 79.5q0 34 24.5 60t64.5 41q-71 45 -71 111q0 47 38.5 76.5t94.5 29.5q53 0 90.5 -23t37.5 -63
q0 -31 -25 -55t-61 -38q53 -26 80 -52.5t27 -70.5q0 -56 -45.5 -89t-108.5 -33zM653 101q0 -40 23 -64t67 -24t67 19.5t23 48.5q0 28 -19.5 47t-59.5 38l-41 19l-12 5q-48 -24 -48 -89zM823 326q0 69 -75 69q-34 0 -53.5 -16.5t-19.5 -41.5q0 -45 72 -79l30 -14q46 29 46 82
z" />
    <glyph glyph-name="uni215F" unicode="&#x215f;" horiz-adv-x="550" 
d="M192 732v-333q0 -44 8 -55t50 -17v-10h-201v11q47 4 57 15t10 56v264h-77v12q97 11 141 57h12zM200 0h-66l508 725h65z" />
    <glyph glyph-name="uni2190" unicode="&#x2190;" horiz-adv-x="800" 
d="M20 266l308 308l40 -45l-233 -229h635v-62h-641l239 -235l-40 -45z" />
    <glyph glyph-name="uni2191" unicode="&#x2191;" horiz-adv-x="800" 
d="M400 741l308 -308l-45 -40l-232 235v-628h-61v629l-233 -236l-44 40z" />
    <glyph glyph-name="uni2192" unicode="&#x2192;" horiz-adv-x="800" 
d="M492 574l308 -308l-308 -308l-42 45l239 235h-659v62h653l-233 229z" />
    <glyph glyph-name="uni2193" unicode="&#x2193;" horiz-adv-x="800" 
d="M400 -16l-307 307l44 42l233 -237v629h61v-628l232 236l45 -42z" />
    <glyph glyph-name="uni2196" unicode="&#x2196;" horiz-adv-x="800" 
d="M132 133v436h436v-58h-333l472 -474l-43 -44l-474 473v-333h-58z" />
    <glyph glyph-name="uni2197" unicode="&#x2197;" horiz-adv-x="800" 
d="M668 569v-436h-56v333l-475 -473l-44 44l474 474h-333v58h434z" />
    <glyph glyph-name="uni2198" unicode="&#x2198;" horiz-adv-x="800" 
d="M668 435v-435h-434v58h333l-474 474l44 43l475 -472v332h56z" />
    <glyph glyph-name="uni2199" unicode="&#x2199;" horiz-adv-x="800" 
d="M132 0v435h58v-332l474 472l43 -43l-472 -474h333v-58h-436z" />
    <glyph glyph-name="uni219E" unicode="&#x219e;" horiz-adv-x="800" 
d="M328 -35l-308 308l308 308l40 -45l-233 -229h168l274 274l40 -45l-233 -229h386v-62h-392l239 -235l-40 -45l-280 280h-168l239 -235z" />
    <glyph glyph-name="uni219F" unicode="&#x219f;" horiz-adv-x="800" 
d="M93 433l-1 1l307 308l308 -308l-45 -40l-232 235v-167q266 -266 278 -277l-45 -42l-232 236v-379h-61v380l-233 -237l-44 42l277 277v167l-233 -236z" />
    <glyph glyph-name="uni21A0" unicode="&#x21a0;" horiz-adv-x="800" 
d="M472 581l308 -308l-308 -308l-42 45l239 235h-166l-280 -280l-41 45l238 235h-390v62h384l-232 229l41 45l274 -274h166l-233 229z" />
    <glyph glyph-name="uni21A1" unicode="&#x21a1;" horiz-adv-x="800" 
d="M708 290l-308 -307l-307 307l44 42l233 -237v167l-277 277l44 42l233 -237v381h61v-380l232 236l45 -42l-277 -276v-167l232 236z" />
    <glyph glyph-name="uni21A2" unicode="&#x21a2;" horiz-adv-x="800" 
d="M20 266l308 308l41 -45l-234 -229h338l276 274l41 -45l-263 -263l263 -263l-41 -45l-281 280h-339l240 -235l-41 -45z" />
    <glyph glyph-name="uni21A3" unicode="&#x21a3;" horiz-adv-x="800" 
d="M780 266l-308 -308l-40 45l238 235h-338l-281 -280l-41 45l263 263l-263 263l41 45l276 -274h337l-232 229l40 45z" />
    <glyph glyph-name="uni21A4" unicode="&#x21a4;" horiz-adv-x="800" 
d="M751 0h-69v238h-553l239 -235l-40 -45l-308 308l308 308l40 -45l-233 -229h547v238h69v-538z" />
    <glyph glyph-name="uni21A5" unicode="&#x21a5;" horiz-adv-x="800" 
d="M400 741l308 -308l-45 -40l-232 235v-567h231v-61h-535v61h243v568l-233 -236l-44 40z" />
    <glyph glyph-name="uni21A6" unicode="&#x21a6;" horiz-adv-x="800" 
d="M118 238v-238h-68v538h68v-238h545l-233 229l42 45l308 -308l-308 -308l-42 45l239 235h-551z" />
    <glyph glyph-name="uni21A7" unicode="&#x21a7;" horiz-adv-x="800" 
d="M400 -17l-307 307l44 42l233 -237v569h-243v61h535v-61h-231v-568l232 236l45 -42z" />
    <glyph glyph-name="uni21B0" unicode="&#x21b0;" horiz-adv-x="800" 
d="M20 266l308 308l40 -45l-233 -229h615v-516h-61v454h-560l239 -235l-40 -45z" />
    <glyph glyph-name="uni21B1" unicode="&#x21b1;" horiz-adv-x="800" 
d="M472 574l308 -308l-308 -308l-42 45l239 235h-558v-454h-61v516h613l-233 229z" />
    <glyph glyph-name="uni21B2" unicode="&#x21b2;" horiz-adv-x="800" 
d="M20 266l308 308l40 -45l-233 -229h554v425h61v-487h-621l239 -235l-40 -45z" />
    <glyph glyph-name="uni21B3" unicode="&#x21b3;" horiz-adv-x="800" 
d="M472 574l308 -308l-308 -308l-42 45l239 235h-619v487h61v-425h552l-233 229z" />
    <glyph glyph-name="partialdiff" unicode="&#x2202;" horiz-adv-x="570" 
d="M452 266q0 107 -49.5 162t-121.5 55q-76 0 -120 -57.5t-44 -159.5t44 -160t120 -58q71 0 121 56t50 162zM281 -13q-108 0 -172.5 74.5t-64.5 204.5q0 128 65 203t168 75q50 0 91.5 -20t65.5 -54l1 1q-28 84 -105.5 141.5t-169.5 63.5v64q167 -12 267 -130t100 -302
q0 -159 -67.5 -240t-178.5 -81z" />
    <glyph glyph-name="product" unicode="&#x220f;" horiz-adv-x="672" 
d="M145 -189h-70v914h522v-914h-71v848h-381v-848z" />
    <glyph glyph-name="summation" unicode="&#x2211;" horiz-adv-x="580" 
d="M24 -127l289 395l-289 395v62h531v-66h-448l288 -391l-288 -391h448v-66h-531v62z" />
    <glyph glyph-name="minus" unicode="&#x2212;" 
d="M79 308h520v-66h-520v66z" />
    <glyph glyph-name="radical" unicode="&#x221a;" horiz-adv-x="543" 
d="M0 224l135 61l166 -385l140 825h69l-157 -914h-87l-167 380l-70 -32z" />
    <glyph glyph-name="infinity" unicode="&#x221e;" horiz-adv-x="786" 
d="M589 416q78 0 126 -44.5t48 -118.5t-46 -117.5t-122 -43.5q-105 0 -204 113q-96 -113 -195 -113q-79 0 -126 43.5t-47 117.5q0 75 48 119t126 44q102 0 196 -110q51 59 96.5 84.5t99.5 25.5zM196 148q42 0 78.5 28t77.5 78q-86 105 -161 105q-44 0 -72.5 -28.5
t-28.5 -77.5q0 -45 29.5 -75t76.5 -30zM586 359q-40 0 -74.5 -24.5t-78.5 -77.5q46 -58 83 -83.5t78 -25.5q43 0 72 29t29 76q0 46 -30.5 76t-78.5 30z" />
    <glyph glyph-name="integral" unicode="&#x222b;" horiz-adv-x="268" 
d="M104 146v-1v350q0 129 34.5 183.5t99.5 54.5q33 0 53 -15t20 -42q0 -20 -11 -32.5t-30 -12.5q-17 0 -28 10.5t-11 25.5q0 17 11 31q-42 0 -57 -33.5t-15 -105.5q0 -28 1 -82.5t1 -85.5v-353q0 -127 -34 -180t-100 -53q-33 0 -53 14.5t-20 41.5q0 20 12.5 32.5t30.5 12.5
t28 -10.5t10 -26.5q0 -17 -11 -31q40 0 55.5 34.5t15.5 105.5q0 27 -1 82t-1 86z" />
    <glyph glyph-name="approxequal" unicode="&#x2248;" 
d="M454 371h1q29 0 48.5 19t21.5 54h69q-5 -65 -42.5 -100t-97.5 -35q-43 0 -119.5 36.5t-109.5 36.5q-29 0 -48.5 -19t-21.5 -54h-70q4 65 41.5 100t98.5 35q52 0 127.5 -36.5t101.5 -36.5zM455 188h1q29 0 48.5 18t21.5 55h69q-5 -65 -42.5 -101t-97.5 -36
q-43 0 -119.5 37t-109.5 37q-29 0 -48.5 -18.5t-21.5 -55.5h-70q4 66 41.5 101.5t98.5 35.5q52 0 127.5 -36.5t101.5 -36.5z" />
    <glyph glyph-name="notequal" unicode="&#x2260;" 
d="M92 345v70h288l82 143l61 -33l-64 -110h128v-70h-168l-76 -133h244v-70h-285l-95 -166l-61 32l77 134h-131v70h171l76 133h-247z" />
    <glyph glyph-name="lessequal" unicode="&#x2264;" 
d="M157 333l456 -142v-72l-547 182v64l547 182v-72zM65 0v66h549v-66h-549z" />
    <glyph glyph-name="greaterequal" unicode="&#x2265;" 
d="M522 333l-456 142v72l547 -182v-64l-547 -182v72zM614 0h-549v66h549v-66z" />
    <glyph glyph-name="uni25A0" unicode="&#x25a0;" horiz-adv-x="800" 
d="M133 0v538h535v-538h-535z" />
    <glyph glyph-name="uni25A1" unicode="&#x25a1;" horiz-adv-x="800" 
d="M133 0v538h535v-538h-535zM197 475v-411h408v411h-408z" />
    <glyph glyph-name="lozenge" unicode="&#x25ca;" horiz-adv-x="583" 
d="M293 647l-171 -298l171 -298l170 298zM44 349l249 422l247 -422l-247 -421z" />
    <glyph glyph-name="uni25CB" unicode="&#x25cb;" horiz-adv-x="800" 
d="M122 268q0 116 81.5 197.5t196.5 81.5q116 0 197.5 -81.5t81.5 -197.5t-82 -198.5t-197 -82.5t-196.5 82.5t-81.5 198.5zM400 48q89 0 151 63.5t62 156.5t-62 155.5t-151 62.5t-150.5 -62.5t-61.5 -155.5q0 -90 62 -155t150 -65z" />
    <glyph glyph-name="uni25CF" unicode="&#x25cf;" horiz-adv-x="800" 
d="M122 268q0 116 81.5 197.5t196.5 81.5q116 0 197.5 -81.5t81.5 -197.5t-82 -198.5t-197 -82.5t-196.5 82.5t-81.5 198.5z" />
    <glyph glyph-name="fi" unicode="&#xfb01;" horiz-adv-x="748" 
d="M362 702h-1l-33 46q-11 14 -23 14q-20 0 -42.5 -11t-44 -37.5t-22 -69.5t22.5 -106h170v-39h-167v-355q0 -32 0.5 -48t5.5 -32.5t11 -22.5t21.5 -12t33 -7.5t49.5 -2.5v-19h-301v18q57 6 68.5 26t11.5 100v355h-88v39h88v13q0 113 67.5 181.5t163.5 68.5q43 0 70.5 -20
t27.5 -47q0 -21 -13.5 -35.5t-36.5 -14.5q-26 0 -39 18zM632 328v-184q0 -80 11.5 -100t68.5 -26v-18h-260v18q57 6 68.5 26t11.5 100v225q0 74 -10 86.5t-70 12.5v18l182 61q-2 -106 -2 -219zM577 671q-30 0 -50.5 19.5t-20.5 48.5t20.5 48.5t50.5 19.5t50 -19.5t20 -48.5
t-20 -48.5t-50 -19.5z" />
    <glyph glyph-name="fl" unicode="&#xfb02;" horiz-adv-x="745" 
d="M362 702h-1l-33 46q-11 14 -23 14q-20 0 -42.5 -11t-44 -37.5t-22 -69.5t22.5 -106h170v-39h-167v-355q0 -32 0.5 -48t5.5 -32.5t11 -22.5t21.5 -12t33 -7.5t49.5 -2.5v-19h-301v18q57 6 68.5 26t11.5 100v355h-88v39h88v13q0 113 67.5 181.5t163.5 68.5q43 0 70.5 -20
t27.5 -47q0 -21 -13.5 -35.5t-36.5 -14.5q-26 0 -39 18zM532 144v501q0 74 -10 86.5t-70 12.5v18l182 61q-2 -106 -2 -219v-460q0 -80 11.5 -100t68.5 -26v-18h-260v18q57 6 68.5 26t11.5 100z" />
    <glyph glyph-name="apple" horiz-adv-x="453" 
d="M44 283q0 75 52.5 127.5t126.5 52.5q79 0 133 -52.5t54 -127.5q0 -78 -54 -132t-133 -54q-74 0 -126.5 54t-52.5 132z" />
    <glyph glyph-name="dot" horiz-adv-x="335" 
d="M168 671q-30 0 -50.5 19.5t-20.5 48.5t20.5 48.5t50.5 19.5t50 -19.5t20 -48.5t-20 -48.5t-50 -19.5z" />
    <glyph glyph-name="dotaccent.low" horiz-adv-x="163" 
d="M20 -159q0 26 17.5 44t44.5 18q26 0 43.5 -18t17.5 -44q0 -28 -17.5 -45.5t-43.5 -17.5q-27 0 -44.5 17.5t-17.5 45.5z" />
    <glyph glyph-name="commaaccent" horiz-adv-x="176" 
d="M36 -115q0 25 18 42.5t44 17.5q27 0 42.5 -18.5t15.5 -48.5q0 -54 -38 -108.5t-93 -80.5l-5 10q76 58 76 128q-25 2 -42.5 18t-17.5 40z" />
    <glyph glyph-name="caron.slovak" horiz-adv-x="264" 
d="M80 754q0 25 18 42.5t44 17.5q27 0 42.5 -18.5t15.5 -48.5q0 -54 -38 -108.5t-93 -80.5l-5 10q76 58 76 128q-25 2 -42.5 18t-17.5 40z" />
    <glyph glyph-name="zero.slashed" horiz-adv-x="656" 
d="M50 366q0 69 17.5 134.5t50.5 120t87.5 88t122.5 33.5t122.5 -33.5t87.5 -88t50.5 -120t17.5 -134.5q0 -94 -29 -178t-94.5 -142.5t-154.5 -58.5t-154.5 58.5t-94.5 142.5t-29 178zM162 366v1q0 -74 9 -129l315 247q-36 221 -158 221q-45 0 -78.5 -30.5t-52 -81.5
t-27 -108t-8.5 -120zM494 367q0 35 -3 71l-311 -245q17 -77 54 -123t94 -46q44 0 77.5 30.5t52 81.5t27.5 109t9 122z" />
    <glyph glyph-name="one.pof" horiz-adv-x="479" 
d="M305 573v-1v-428q0 -81 12.5 -101t76.5 -26v-18h-297v20q29 3 46 5.5t30.5 9.5t19 13t9.5 22.5t4.5 30.5t0.5 45v302h-142v25q92 8 140.5 32.5t77.5 68.5h22z" />
    <glyph glyph-name="two.pof" horiz-adv-x="517" 
d="M448 432h1q0 -56 -34.5 -104t-106.5 -112q-75 -69 -155 -136h308v-80h-431v12q185 160 252 238.5t67 146.5q0 50 -32 76t-89 26q-54 0 -91.5 -27.5t-48.5 -73.5h-27q10 74 66.5 124.5t136.5 50.5q77 0 130.5 -36.5t53.5 -104.5z" />
    <glyph glyph-name="three.pof" horiz-adv-x="546" 
d="M44 -154v1v146h20q16 -56 65 -95t112 -39q68 0 108.5 38t40.5 103q0 24 -7.5 50t-27 56.5t-62.5 54.5t-103 32v22l23 10q70 30 106 77t36 86q0 50 -32.5 79.5t-96.5 29.5q-59 0 -102.5 -35.5t-55.5 -93.5h-29q17 98 77.5 151.5t154.5 53.5q81 0 133 -37t52 -100
q0 -52 -44 -101.5t-101 -78.5v-3q181 -66 181 -215q0 -98 -81 -159t-183 -61q-115 0 -184 28z" />
    <glyph glyph-name="four.pof" horiz-adv-x="599" 
d="M445 -167h-98v167h-332v13l351 543h79v-482h133v-74h-133v-167zM347 74v374l-243 -374h243z" />
    <glyph glyph-name="five.pof" horiz-adv-x="537" 
d="M77 243v1l110 313h297l-32 -95h-255l-46 -130q158 -27 237 -98.5t79 -167.5q0 -112 -80.5 -179.5t-186.5 -67.5q-50 0 -100.5 10.5t-77.5 25.5v152h20q17 -72 64 -110t110 -38t107.5 43.5t44.5 113.5q0 179 -291 227z" />
    <glyph glyph-name="six.pof" horiz-adv-x="612" 
d="M318 -13h1q-126 0 -194.5 84.5t-68.5 222.5q0 168 121 294t316 162l5 -25q-150 -39 -227.5 -117.5t-95.5 -202.5q65 78 163 78q96 0 157.5 -61.5t61.5 -169.5q0 -107 -70.5 -186t-168.5 -79zM305 424q-80 0 -134 -48q-3 -35 -3 -71q0 -120 38 -201t113 -81q65 0 97 50
t32 137q0 38 -7 73t-22 68t-44.5 53t-69.5 20z" />
    <glyph glyph-name="seven.pof" horiz-adv-x="585" 
d="M49 461v95h496v-21l-393 -717l-70 41l381 602h-414z" />
    <glyph glyph-name="eight.pof" horiz-adv-x="612" 
d="M297 -13v-1q-99 0 -170.5 49.5t-71.5 142.5q0 64 45.5 112.5t117.5 77.5q-132 79 -132 191q0 80 65 129t159 49q90 0 153 -42.5t63 -115.5q0 -107 -155 -171l17 -8q79 -41 124 -87t45 -116q0 -99 -75.5 -154.5t-184.5 -55.5zM144 183v-1q0 -71 40 -116t113 -45
q76 0 121 36.5t45 95.5q0 52 -30.5 86t-102.5 71l-79 41l-6 2q-101 -50 -101 -170zM441 573v-1q0 64 -36 96t-98 32q-61 0 -99 -32.5t-38 -79.5q0 -48 33.5 -80.5t97.5 -65.5l45 -23q95 57 95 154z" />
    <glyph glyph-name="nine.pof" horiz-adv-x="612" 
d="M294 573h-1q126 0 194.5 -84.5t68.5 -222.5q0 -168 -121 -294t-316 -162l-5 25q149 37 226.5 116.5t95.5 202.5q-64 -77 -162 -77q-95 0 -157 64t-62 173q0 106 70 182.5t169 76.5zM307 136q80 0 133 47q4 31 4 72q0 120 -38 201t-113 81q-65 0 -97 -50t-32 -137
q0 -38 7 -73t22 -68t44.5 -53t69.5 -20z" />
    <glyph glyph-name="zero.pof" horiz-adv-x="653" 
d="M323 573q114 0 197 -83t83 -209q0 -123 -78.5 -208.5t-193.5 -85.5q-114 0 -197.5 83t-83.5 210q0 124 78 208.5t195 84.5zM313 536q-77 0 -116 -57t-39 -161q0 -42 10.5 -90t31 -95.5t58 -78t85.5 -30.5q75 0 113.5 57t38.5 161q0 43 -10 91t-30.5 95t-57.5 77.5
t-84 30.5z" />
    <glyph glyph-name="zero.slashed.pof" horiz-adv-x="653" 
d="M323 573q114 0 197 -83t83 -209q0 -123 -78.5 -208.5t-193.5 -85.5q-114 0 -197.5 83t-83.5 210q0 124 78 208.5t195 84.5zM495 242q0 46 -12 100l-303 -159q51 -159 163 -159q75 0 113.5 57t38.5 161zM313 536h-1q-77 0 -116 -57t-39 -161q0 -49 11 -97l304 158
q-22 69 -61.5 113t-97.5 44z" />
    <glyph glyph-name="one.tlf" 
d="M393 743v-1v-598q0 -81 12.5 -100t76.5 -27v-18h-297v20q29 3 46 5.5t30.5 9.5t19 13t9.5 22.5t4.5 30.5t0.5 45v472h-142v25q92 8 140.5 32.5t77.5 68.5h22z" />
    <glyph glyph-name="two.tlf" 
d="M548 563l-1 1q0 -74 -48.5 -147.5t-134.5 -164.5q-22 -23 -71 -77t-74 -80h341v-95h-460v16q192 200 266.5 308.5t74.5 194.5q0 147 -139 147q-61 0 -105 -35.5t-56 -93.5h-29q17 98 77.5 151.5t154.5 53.5q86 0 145 -46.5t59 -132.5z" />
    <glyph glyph-name="three.tlf" 
d="M314 -13v2q-115 0 -184 28v146h20q16 -56 65 -95t112 -39q68 0 108.5 38t40.5 103q0 24 -7.5 50t-27 56.5t-62.5 54.5t-103 32v22l23 10q70 30 106.5 77t36.5 86q0 50 -32.5 79.5t-96.5 29.5q-59 0 -102.5 -35.5t-55.5 -93.5h-29q17 98 77.5 151.5t154.5 53.5
q81 0 133 -37t52 -100q0 -52 -44 -101.5t-102 -79.5v-3q181 -66 181 -215q0 -98 -81 -159t-183 -61z" />
    <glyph glyph-name="four.tlf" 
d="M475 0h-100v199h-332v13l351 513h81v-442h131v-84h-131v-199zM375 283v337l-230 -337h230z" />
    <glyph glyph-name="five.tlf" 
d="M148 412l110 313h317l-32 -95h-275l-46 -130q171 -26 253.5 -97.5t82.5 -168.5q0 -112 -80.5 -179.5t-186.5 -67.5q-50 0 -100.5 10.5t-77.5 25.5v152h20q17 -72 64 -110t110 -38t107.5 43.5t44.5 113.5q0 181 -311 228z" />
    <glyph glyph-name="six.tlf" 
d="M359 -13h1q-126 0 -194.5 84.5t-68.5 222.5q0 168 121 294t316 162l5 -25q-150 -39 -227.5 -117.5t-95.5 -202.5q65 78 163 78q96 0 157.5 -61.5t61.5 -169.5q0 -107 -70.5 -186t-168.5 -79zM346 424q-80 0 -134 -48q-3 -35 -3 -71q0 -120 38 -201t113 -81q65 0 97 50
t32 137q0 38 -7 73t-22 68t-44.5 53t-69.5 20z" />
    <glyph glyph-name="seven.tlf" 
d="M110 630v-1v95h488v-95q-64 -63 -105.5 -108.5t-87 -108.5t-71 -121t-40.5 -133.5t-12 -158.5h-111q1 74 17 142t46.5 125.5t63 104.5t80 94t83.5 79t86 73q11 9 16 13h-453z" />
    <glyph glyph-name="eight.tlf" 
d="M330 -13q-66 0 -121.5 20t-93 65t-37.5 108t48 113t122 78q-138 77 -138 191q0 80 67.5 129.5t165.5 49.5q94 0 159.5 -43t65.5 -116q0 -108 -161 -172l18 -8q82 -41 129 -88t47 -116q0 -100 -79 -155.5t-192 -55.5zM171 185l1 -2q0 -72 41.5 -117t117.5 -45
q80 0 127.5 36.5t47.5 96.5q0 51 -32.5 86t-108.5 72l-82 41l-6 2q-106 -50 -106 -170zM481 575q0 64 -37.5 96t-102.5 32t-104.5 -32t-39.5 -80t35.5 -80.5t102.5 -65.5l47 -24q99 60 99 154z" />
    <glyph glyph-name="nine.tlf" 
d="M333 742h-1q126 0 194.5 -84.5t68.5 -222.5q0 -168 -121 -294t-316 -162l-5 25q149 37 226.5 116.5t95.5 202.5q-64 -77 -162 -77q-95 0 -157 64t-62 173q0 106 70 182.5t169 76.5zM346 305q80 0 133 47q4 31 4 72q0 120 -38 201t-113 81q-65 0 -97 -50t-32 -137
q0 -38 7 -73t22 -68t44.5 -53t69.5 -20z" />
    <glyph glyph-name="zero.tlf" 
d="M173 366q0 -64 8.5 -121.5t27 -109t52 -82t78.5 -30.5q44 0 77.5 30.5t52 81.5t27.5 109t9 122q0 63 -9 120t-27.5 108t-52 81.5t-77.5 30.5q-45 0 -78.5 -30.5t-52 -81.5t-27 -108t-8.5 -120zM61 366q0 69 17.5 134.5t50.5 120t87.5 88t122.5 33.5t122.5 -33.5t87.5 -88
t50.5 -120t17.5 -134.5q0 -94 -29 -178t-94.5 -142.5t-154.5 -58.5t-154.5 58.5t-94.5 142.5t-29 178z" />
    <glyph glyph-name="zero.slashed.tlf" 
d="M61 366q0 69 17.5 134.5t50.5 120t87.5 88t122.5 33.5t122.5 -33.5t87.5 -88t50.5 -120t17.5 -134.5q0 -94 -29 -178t-94.5 -142.5t-154.5 -58.5t-154.5 58.5t-94.5 142.5t-29 178zM173 366v1q0 -63 7 -118l315 247q-16 94 -54 152t-102 58q-45 0 -78.5 -30.5t-52 -81.5
t-27 -108t-8.5 -120zM505 367q0 46 -4 83l-313 -246q17 -81 54.5 -130.5t96.5 -49.5q44 0 77.5 30.5t52 81.5t27.5 109t9 122z" />
    <glyph glyph-name="one.case" horiz-adv-x="527" 
d="M336 734h-1v-590q0 -79 13 -99t73 -28v-17h-305v20q79 8 94 26.5t15 98.5v464h-141v24q90 8 142 32.5t88 68.5h22z" />
    <glyph glyph-name="two.case" horiz-adv-x="640" 
d="M316 745q106 0 175 -49t69 -129q0 -85 -68.5 -168.5t-220.5 -199.5q-40 -31 -132 -100h431v-99h-548v44q229 189 319 304.5t90 198.5q0 70 -40.5 106t-103.5 36q-167 0 -196 -164h-36q10 101 83 160.5t178 59.5z" />
    <glyph glyph-name="three.case" horiz-adv-x="654" 
d="M78 28l-16 218h18q27 -120 81.5 -171.5t137.5 -51.5q66 0 110 46t44 127q0 83 -52 133t-147 50h-20l2 31h16q82 0 130.5 39t48.5 110q0 62 -39.5 96t-104.5 34q-73 0 -125.5 -44.5t-66.5 -119.5l-36 6q15 100 86.5 157t172.5 57q108 0 173.5 -45t65.5 -111
q0 -64 -46.5 -109.5t-117.5 -67.5v-3q82 -17 136 -68t54 -130q0 -100 -81.5 -162t-202.5 -62q-113 0 -221 41z" />
    <glyph glyph-name="four.case" horiz-adv-x="663" 
d="M486 0h-110v196h-356v32l375 497h91v-437h131v-92h-131v-196zM376 288v335l-255 -335h255z" />
    <glyph glyph-name="five.case" horiz-adv-x="640" 
d="M290 423h1q-119 0 -163 -94l-44 13l70 383h405l-15 -98h-365l-43 -235q62 92 193 92q105 0 182.5 -63t77.5 -174q0 -112 -86 -186t-205 -74q-124 0 -215 41l-16 218h18q27 -121 77 -172t128 -51q79 0 124 54.5t45 145.5t-45 145.5t-124 54.5z" />
    <glyph glyph-name="six.case" horiz-adv-x="685" 
d="M353 -13q-133 0 -208 82.5t-75 217.5q0 84 34.5 162t92.5 137t130 102t149 64l12 -30q-242 -85 -281 -321q68 84 178 84q100 0 165 -61.5t65 -169.5t-77.5 -187.5t-184.5 -79.5zM340 420h1q-84 0 -138 -48q-3 -33 -3 -67q0 -77 15 -138.5t51 -102.5t89 -41q66 0 100 51.5
t34 139.5q0 83 -37 144.5t-112 61.5z" />
    <glyph glyph-name="seven.case" horiz-adv-x="566" 
d="M30 627v2v98h516v-99q-62 -58 -107 -106.5t-89 -109.5t-70.5 -120.5t-42 -134t-14.5 -156.5h-129q1 89 29 172t65 142.5t99 123t107.5 100.5t114.5 88h-479z" />
    <glyph glyph-name="eight.case" horiz-adv-x="681" 
d="M331 -13v1q-108 0 -184.5 49.5t-76.5 142.5q0 62 48.5 113t122.5 76q-138 78 -138 193q0 81 69.5 132t171.5 51q97 0 164.5 -43t67.5 -116q0 -106 -163 -170l12 -5q86 -40 136 -89.5t50 -122.5q0 -100 -81.5 -156t-198.5 -56zM167 185v-2q0 -71 42.5 -115.5t121.5 -44.5
q83 0 129.5 35.5t46.5 93.5q0 51 -34 85.5t-111 70.5l-81 39q-2 1 -5.5 2.5t-5.5 3.5q-47 -23 -75 -66t-28 -102zM483 580q0 64 -38 96t-104 32q-64 0 -104 -32.5t-40 -78.5q0 -45 35.5 -77.5t102.5 -65.5l52 -26q96 58 96 152z" />
    <glyph glyph-name="nine.case" horiz-adv-x="685" 
d="M333 745h2q133 0 207.5 -82t74.5 -218q0 -84 -35.5 -162.5t-94 -138t-131 -103t-149.5 -64.5l-14 36q245 87 286 314q-68 -82 -179 -82q-98 0 -164 63.5t-66 170.5q0 110 78 188t185 78zM348 310h-1q84 0 137 47q4 31 4 70q0 120 -39 201t-116 81q-65 0 -99.5 -51.5
t-34.5 -137.5q0 -85 37 -147.5t112 -62.5z" />
    <glyph glyph-name="zero.case" horiz-adv-x="722" 
d="M193 368q0 -67 9 -126t27.5 -109.5t52.5 -80t79 -29.5t78.5 29.5t52 80t27.5 109.5t9 126t-9 125t-27.5 108t-52 79t-78.5 29t-79 -29t-52.5 -79t-27.5 -108t-9 -125zM69 368q0 98 33 182.5t101 139.5t158 55t158 -55t101 -139.5t33 -182.5q0 -99 -33 -184.5t-101 -141
t-158 -55.5t-158 55.5t-101 141t-33 184.5z" />
    <glyph glyph-name="zero.slashed.case" horiz-adv-x="722" 
d="M69 368q0 98 33 182.5t101 139.5t158 55t158 -55t101 -139.5t33 -182.5q0 -99 -33 -184.5t-101 -141t-158 -55.5t-158 55.5t-101 141t-33 184.5zM193 368v-1q0 -48 2 -62l327 164q-13 108 -52 174t-109 66q-45 0 -79 -29t-52.5 -79t-27.5 -108t-9 -125zM528 367v-1
q0 18 -2 56l-327 -164q13 -106 52.5 -171t109.5 -65q45 0 78.5 29.5t52 80t27.5 109.5t9 126z" />
    <glyph glyph-name="a.superior" horiz-adv-x="306" 
d="M258 642l2 -1l-3 -130q-1 -43 18 -43q9 0 23 14l8 -7q-27 -43 -66 -43q-48 0 -52 55q-31 -57 -88 -57q-34 0 -58 22t-24 53q0 53 81 87q36 14 88 30v23q4 78 -51 78t-51 -74h-63q8 45 45.5 71t82.5 26q46 0 78 -25.5t30 -78.5zM138 478v2q32 0 49 21l1 97
q-48 -10 -73 -26q-26 -17 -26 -45q0 -23 14 -36t35 -13z" />
    <glyph glyph-name="b.superior" horiz-adv-x="347" 
d="M119 765v-71q33 52 89 52q51 0 84 -44.5t33 -103.5q0 -73 -43 -120t-102 -47q-51 0 -89 29l-41 -26h-9q2 21 2 96v251q0 40 -7.5 50t-37.5 12v9l123 39q-2 -62 -2 -126zM119 677v-195q17 -30 60 -30q68 0 68 113q0 54 -23 92.5t-60 38.5q-29 0 -45 -19z" />
    <glyph glyph-name="c.superior" horiz-adv-x="288" 
d="M163 722q-34 0 -53.5 -30t-19.5 -76q0 -59 30 -93.5t78 -34.5q44 0 70 26l7 -5q-15 -31 -44 -54.5t-70 -23.5q-66 0 -103 43.5t-37 109.5q0 68 46 115.5t109 47.5q43 0 68.5 -18t25.5 -43q0 -14 -9.5 -23t-25.5 -9q-21 0 -29 17l-19 38q-6 13 -24 13z" />
    <glyph glyph-name="d.superior" horiz-adv-x="353" 
d="M166 726h1q-33 0 -50 -30.5t-17 -82.5q0 -56 22.5 -94t59.5 -38q30 0 45 19v196q-19 30 -61 30zM227 731h1v50q0 39 -8.5 48.5t-42.5 11.5v9l129 41q-2 -62 -2 -126v-228q0 -40 6 -50.5t35 -10.5v-10l-107 -33l-7 53q-12 -22 -37 -38.5t-55 -16.5q-52 0 -84.5 43.5
t-32.5 105.5q0 73 42.5 119.5t101.5 46.5q34 0 61 -15z" />
    <glyph glyph-name="e.superior" horiz-adv-x="301" 
d="M162 431q-65 0 -103 42.5t-38 106.5q0 71 42 118.5t101 47.5q54 0 86.5 -32t33.5 -89h-195v-13q0 -58 31.5 -91t81.5 -33q49 0 76 27l7 -6q-48 -78 -123 -78zM154 723q-26 0 -43.5 -19t-21.5 -57h120q1 76 -55 76z" />
    <glyph glyph-name="f.superior" horiz-adv-x="223" 
d="M60 741l2 -1v8q0 60 38.5 95t83.5 35q34 0 54 -15.5t20 -36.5q0 -16 -9.5 -25.5t-24.5 -9.5q-18 0 -28 15l-21 33q-10 13 -21 13q-23 0 -33 -22t5 -68l9 -22h90v-26h-89v-196q0 -45 9.5 -55t52.5 -14v-11h-183v10q33 4 39 14.5t6 56.5v196h-43v26h43z" />
    <glyph glyph-name="g.superior" horiz-adv-x="324" 
d="M34 646v-2q0 45 32.5 72.5t84.5 27.5q24 0 48 -8l117 3v-26l-78 1q31 -28 31 -69q0 -46 -33 -73t-85 -27q-24 0 -39 4q-25 -19 -25 -36q0 -19 36 -20l64 -4q63 -2 91 -16.5t28 -51.5q0 -43 -43.5 -76.5t-122.5 -33.5q-57 0 -91 18.5t-34 47.5q0 35 78 54q-55 10 -55 51
q0 32 58 74q-62 24 -62 90zM188 425v-1l-74 2h-4q-38 -15 -38 -46q0 -47 80 -47q43 0 75.5 15t32.5 41q0 19 -16.5 26.5t-55.5 9.5zM104 643q0 -81 47 -81q48 0 48 81t-48 81q-47 0 -47 -81z" />
    <glyph glyph-name="h.superior" horiz-adv-x="349" 
d="M7 851h-1l123 39q-2 -62 -2 -126v-73q34 54 90 54q37 0 59.5 -26.5t22.5 -80.5v-120q0 -46 6.5 -56.5t38.5 -14.5v-10h-158v10q26 4 31.5 15t5.5 56v106q0 71 -47 71q-31 0 -48 -20v-157q0 -46 5.5 -56.5t32.5 -14.5v-10h-159v10q33 4 39 14.5t6 56.5v262q0 40 -7.5 50
t-37.5 12v9z" />
    <glyph glyph-name="i.superior" horiz-adv-x="192" 
d="M136 621v-1v-102q0 -46 6.5 -56.5t38.5 -14.5v-10h-166v10q33 4 39 14.5t6 56.5v118q0 38 -7.5 49t-37.5 13v9l123 39q-2 -62 -2 -125zM95 792q-20 0 -34.5 14t-14.5 34t14.5 33.5t34.5 13.5t34 -13.5t14 -33.5t-14 -34t-34 -14z" />
    <glyph glyph-name="j.superior" horiz-adv-x="182" 
d="M91 793q-20 0 -34 14t-14 34t14 33.5t34 13.5t34.5 -13.5t14.5 -33.5t-14.5 -34t-34.5 -14zM57 485v1v152q0 38 -7.5 49t-37.5 13v9l123 39q0 -12 -1 -52.5t-1 -72.5v-126q0 -74 -28.5 -116t-99.5 -77l-5 7q34 37 45.5 77.5t11.5 96.5z" />
    <glyph glyph-name="k.superior" horiz-adv-x="356" 
d="M52 519v262q0 40 -7.5 50t-37.5 12v9l123 39q-2 -62 -2 -126v-246q0 -46 6.5 -56.5t38.5 -14.5v-10h-166v10q33 4 39 14.5t6 56.5zM195 438l1 -1v10q28 2 30.5 8t-14.5 30l-83 114l86 82q49 49 -7 49v10h126v-10q-25 0 -43.5 -10t-46.5 -38l-50 -47l113 -157
q22 -29 55 -30v-10h-167z" />
    <glyph glyph-name="l.superior" horiz-adv-x="193" 
d="M62 519v262q0 39 -7.5 49.5t-37.5 12.5v9l123 39q-2 -62 -2 -126v-246q0 -46 6 -56.5t39 -14.5v-10h-166v10q32 4 38.5 14.5t6.5 56.5z" />
    <glyph glyph-name="m.superior" horiz-adv-x="521" 
d="M300 639l-1 -1v-120q0 -46 5.5 -56.5t32.5 -14.5v-10h-151v10q27 4 32 14.5t5 56.5v106q0 70 -47 70q-32 0 -48 -19v-157q0 -46 5 -56.5t32 -14.5v-10h-159v10q32 4 39 15t7 56v118q0 38 -8 49t-38 13v9l121 39v-55q37 55 91 55q58 0 76 -60q39 60 97 60q37 0 59 -26.5
t22 -80.5v-120q0 -46 6.5 -56.5t38.5 -14.5v-10h-158v10q27 4 32 14.5t5 56.5v106q0 70 -46 70q-35 0 -53 -22q3 -15 3 -34z" />
    <glyph glyph-name="o.superior" horiz-adv-x="348" 
d="M172 746q65 0 109.5 -44.5t44.5 -112.5q0 -65 -43 -111.5t-108 -46.5q-66 0 -110 45.5t-44 114.5q0 62 43 108.5t108 46.5zM167 726q-66 0 -66 -117q0 -24 3.5 -48.5t12 -50.5t25 -42.5t39.5 -16.5q34 0 49.5 34t15.5 85q0 32 -6 64.5t-25 62t-48 29.5z" />
    <glyph glyph-name="p.superior" horiz-adv-x="351" 
d="M122 746l-1 -1v-55q13 23 37 39t54 16q52 0 85 -44t33 -104q0 -73 -43 -120t-101 -47q-38 0 -62 14v-48q0 -44 8 -55t48 -15v-11h-177v11q32 4 38.5 14.5t6.5 55.5v240q0 38 -7.5 49t-37.5 13v9zM123 677v-197q18 -31 61 -31q68 0 68 115q0 54 -23 92.5t-60 38.5
q-31 0 -46 -18z" />
    <glyph glyph-name="q.superior" horiz-adv-x="347" 
d="M226 397v85q-31 -51 -88 -51q-52 0 -84.5 43.5t-32.5 105.5q0 73 42.5 119.5t101.5 46.5q33 0 63 -15l75 13q-1 -31 -1 -128v-219q0 -45 6.5 -55.5t38.5 -14.5v-11h-177v11q40 4 48 14.5t8 55.5zM166 726h1q-33 0 -50 -30.5t-17 -82.5q0 -56 22.5 -94t59.5 -38
q30 0 45 19v196q-19 30 -61 30z" />
    <glyph glyph-name="r.superior" horiz-adv-x="253" 
d="M9 438v11q32 4 38.5 14t6.5 55v125q0 40 -6.5 47.5t-38.5 7.5v9l120 39l1 -56q39 54 74 54q19 0 34 -11.5t15 -33.5t-12 -32t-29 -10q-13 0 -23 11l-18 22q-5 5 -9 5q-12 0 -32 -26v-151q0 -41 9.5 -54t49.5 -15v-11h-180z" />
    <glyph glyph-name="s.superior" horiz-adv-x="274" 
d="M146 746l-1 1q48 0 79 -14l3 -93h-10q-9 41 -31 63.5t-48 22.5q-51 0 -51 -35q0 -22 42 -48l32 -17q47 -26 67 -46.5t20 -53.5q0 -44 -36.5 -69.5t-83.5 -25.5q-55 0 -95 19v107h11q17 -103 86 -103q58 0 58 44q0 26 -45 50l-30 17q-27 15 -41 25t-26.5 28.5t-12.5 41.5
q0 42 34 64t79 22z" />
    <glyph glyph-name="t.superior" horiz-adv-x="211" 
d="M124 431q-77 0 -77 93v191h-47v26h49v40l74 58v-98h75v-26h-75v-179q0 -33 8.5 -47t29.5 -14q23 0 42 19l6 -6q-33 -57 -85 -57z" />
    <glyph glyph-name="u.superior" horiz-adv-x="336" 
d="M284 624v-87q0 -41 6.5 -50t36.5 -11v-10l-109 -33l-9 57q-29 -59 -86 -59q-83 0 -83 109v113q0 26 -1.5 36.5t-10.5 19t-29 9.5v9l118 15q0 -12 -1 -49t-1 -67v-72q0 -75 44 -75q29 0 49 26v148q0 26 -1.5 36.5t-10.5 19t-28 9.5v9l118 15q0 -12 -1 -50t-1 -68z" />
    <glyph glyph-name="v.superior" horiz-adv-x="324" 
d="M176 434v1h-39l-100 259q-8 20 -15 28.5t-23 10.5v9h155v-9q-28 -2 -33.5 -14.5t4.5 -32.5l60 -167l54 140q18 39 15 54.5t-32 18.5v9h103v-9q-21 -2 -30 -12.5t-22 -41.5z" />
    <glyph glyph-name="w.superior" horiz-adv-x="456" 
d="M289 434h1l-62 208l-65 -208h-44l-81 259q-6 19 -14 27.5t-24 10.5v10h153v-10q-28 -2 -33 -12.5t3 -32.5l44 -157l65 212h43l62 -214l39 133q12 43 7.5 56t-28.5 15v10h103v-10q-22 -2 -30.5 -11.5t-19.5 -41.5l-74 -244h-45z" />
    <glyph glyph-name="x.superior" horiz-adv-x="364" 
d="M105 520h-1l44 55l-84 122q-18 28 -45 34v10h153v-10q-24 -3 -25.5 -11t13.5 -30l37 -54l28 36q18 22 23 33t-0.5 17.5t-26.5 8.5v10h116v-10q-23 -2 -42 -17.5t-51 -54.5l-34 -43l93 -134q19 -28 45 -34v-10h-152v10q24 3 26.5 11t-13.5 30l-47 67l-38 -49
q-18 -22 -23 -33t0.5 -17.5t26.5 -8.5v-10h-116v10q23 2 42 17.5t51 54.5z" />
    <glyph glyph-name="y.superior" horiz-adv-x="330" 
d="M69 313l-1 1q-25 0 -41 4v80h10q10 -28 20 -39.5t27 -11.5q34 0 57 61l11 26l-116 261q-1 2 -3.5 8t-3.5 7.5t-3.5 6t-4.5 6t-5.5 4t-7.5 3.5t-9 2v10h165v-10q-29 -2 -36 -12.5t1 -31.5l62 -162l53 134q10 27 12.5 40t-4.5 21t-27 10v10h105v-10q-21 -2 -29.5 -11.5
t-21.5 -41.5l-109 -274q-21 -51 -45 -71t-56 -20z" />
    <glyph glyph-name="z.superior" horiz-adv-x="315" 
d="M280 438h-258v5l175 276h-43q-49 0 -69 -22t-28 -85h-12v129h242v-6l-174 -275h62q46 0 65 22.5t29 84.5h11v-129z" />
    <glyph glyph-name="zero.slashed.superior" horiz-adv-x="390" 
d="M30 644q0 86 46.5 149t118.5 63t119 -63t47 -149q0 -85 -47 -149t-119 -64t-118.5 64t-46.5 149zM114 644v1q0 -44 2 -57l156 122q-15 126 -77 126q-81 0 -81 -192zM276 645l1 1q0 25 -1 38l-156 -122q16 -110 75 -110q23 0 39.5 16.5t25 45.5t12.5 61.5t4 69.5z" />
    <glyph glyph-name="period.superior" horiz-adv-x="197" 
d="M51 478q0 20 13.5 33.5t33.5 13.5t34 -13.5t14 -33.5t-14 -33.5t-34 -13.5t-33.5 13.5t-13.5 33.5z" />
    <glyph glyph-name="hyphen.superior" horiz-adv-x="205" 
d="M27 567v51h151v-51h-151z" />
    <glyph glyph-name="comma.superior" horiz-adv-x="198" 
d="M52 478v1q0 19 13.5 33t33.5 14q21 0 34 -15t13 -38q0 -42 -33.5 -84.5t-76.5 -64.5l-4 7q65 49 65 100q-20 1 -32.5 14t-12.5 33z" />
    <glyph glyph-name="a.inferior" horiz-adv-x="306" 
d="M258 76l2 -1l-3 -130q-1 -43 18 -43q9 0 23 14l8 -7q-27 -43 -66 -43q-48 0 -52 55q-31 -57 -88 -57q-34 0 -58 22t-24 53q0 53 81 87q36 14 88 30v23q4 78 -51 78t-51 -74h-63q8 45 45.5 71t82.5 26q46 0 78 -25.5t30 -78.5zM138 -88v2q32 0 49 21l1 97q-48 -10 -73 -26
q-26 -17 -26 -45q0 -23 14 -36t35 -13z" />
    <glyph glyph-name="b.inferior" horiz-adv-x="347" 
d="M119 199v-71q33 52 89 52q51 0 84 -44.5t33 -103.5q0 -73 -43 -120t-102 -47q-51 0 -89 29l-41 -26h-9q2 21 2 96v251q0 40 -7.5 50t-37.5 12v9l123 39q-2 -62 -2 -126zM119 111v-195q17 -30 60 -30q68 0 68 113q0 54 -23 92.5t-60 38.5q-29 0 -45 -19z" />
    <glyph glyph-name="c.inferior" horiz-adv-x="288" 
d="M163 156q-34 0 -53.5 -30t-19.5 -76q0 -59 30 -93.5t78 -34.5q44 0 70 26l7 -5q-15 -31 -44 -54.5t-70 -23.5q-66 0 -103 43.5t-37 109.5q0 68 46 115.5t109 47.5q43 0 68.5 -18t25.5 -43q0 -14 -9.5 -23t-25.5 -9q-21 0 -29 17l-19 38q-6 13 -24 13z" />
    <glyph glyph-name="d.inferior" horiz-adv-x="353" 
d="M166 160h1q-33 0 -50 -30.5t-17 -82.5q0 -56 22.5 -94t59.5 -38q30 0 45 19v196q-19 30 -61 30zM227 165h1v50q0 39 -8.5 48.5t-42.5 11.5v9l129 41q-2 -62 -2 -126v-228q0 -40 6 -50.5t35 -10.5v-10l-107 -33l-7 53q-12 -22 -37 -38.5t-55 -16.5q-52 0 -84.5 43.5
t-32.5 105.5q0 73 42.5 119.5t101.5 46.5q34 0 61 -15z" />
    <glyph glyph-name="e.inferior" horiz-adv-x="301" 
d="M162 -135q-65 0 -103 42.5t-38 106.5q0 71 42 118.5t101 47.5q54 0 86.5 -32t33.5 -89h-195v-13q0 -58 31.5 -91t81.5 -33q49 0 76 27l7 -6q-48 -78 -123 -78zM154 157q-26 0 -43.5 -19t-21.5 -57h120q1 76 -55 76z" />
    <glyph glyph-name="f.inferior" horiz-adv-x="223" 
d="M60 175l2 -1v8q0 60 38.5 95t83.5 35q34 0 54 -15.5t20 -36.5q0 -16 -9.5 -25.5t-24.5 -9.5q-18 0 -28 15l-21 33q-10 13 -21 13q-23 0 -33 -22t5 -68l9 -22h90v-26h-89v-196q0 -45 9.5 -55t52.5 -14v-11h-183v10q33 4 39 14.5t6 56.5v196h-43v26h43z" />
    <glyph glyph-name="g.inferior" horiz-adv-x="324" 
d="M34 80v-2q0 45 32.5 72.5t84.5 27.5q24 0 48 -8l117 3v-26l-78 1q31 -28 31 -69q0 -46 -33 -73t-85 -27q-24 0 -39 4q-25 -19 -25 -36q0 -19 36 -20l64 -4q63 -2 91 -16.5t28 -51.5q0 -43 -43.5 -76.5t-122.5 -33.5q-57 0 -91 18.5t-34 47.5q0 35 78 54q-55 10 -55 51
q0 32 58 74q-62 24 -62 90zM188 -141v-1l-74 2h-4q-38 -15 -38 -46q0 -47 80 -47q43 0 75.5 15t32.5 41q0 19 -16.5 26.5t-55.5 9.5zM104 77q0 -81 47 -81q48 0 48 81t-48 81q-47 0 -47 -81z" />
    <glyph glyph-name="h.inferior" horiz-adv-x="349" 
d="M7 285h-1l123 39q-2 -62 -2 -126v-73q34 54 90 54q37 0 59.5 -26.5t22.5 -80.5v-120q0 -46 6.5 -56.5t38.5 -14.5v-10h-158v10q26 4 31.5 15t5.5 56v106q0 71 -47 71q-31 0 -48 -20v-157q0 -46 5.5 -56.5t32.5 -14.5v-10h-159v10q33 4 39 14.5t6 56.5v262q0 40 -7.5 50
t-37.5 12v9z" />
    <glyph glyph-name="i.inferior" horiz-adv-x="192" 
d="M136 55v-1v-102q0 -46 6.5 -56.5t38.5 -14.5v-10h-166v10q33 4 39 14.5t6 56.5v118q0 38 -7.5 49t-37.5 13v9l123 39q-2 -62 -2 -125zM95 226q-20 0 -34.5 14t-14.5 34t14.5 33.5t34.5 13.5t34 -13.5t14 -33.5t-14 -34t-34 -14z" />
    <glyph glyph-name="j.inferior" horiz-adv-x="182" 
d="M91 227q-20 0 -34 14t-14 34t14 33.5t34 13.5t34.5 -13.5t14.5 -33.5t-14.5 -34t-34.5 -14zM57 -81v1v152q0 38 -7.5 49t-37.5 13v9l123 39q0 -12 -1 -52.5t-1 -72.5v-126q0 -74 -28.5 -116t-99.5 -77l-5 7q34 37 45.5 77.5t11.5 96.5z" />
    <glyph glyph-name="k.inferior" horiz-adv-x="356" 
d="M52 -47v262q0 40 -7.5 50t-37.5 12v9l123 39q-2 -62 -2 -126v-246q0 -46 6.5 -56.5t38.5 -14.5v-10h-166v10q33 4 39 14.5t6 56.5zM195 -128l1 -1v10q28 2 30.5 8t-14.5 30l-83 114l86 82q49 49 -7 49v10h126v-10q-25 0 -43.5 -10t-46.5 -38l-50 -47l113 -157
q22 -29 55 -30v-10h-167z" />
    <glyph glyph-name="l.inferior" horiz-adv-x="193" 
d="M62 -47v262q0 39 -7.5 49.5t-37.5 12.5v9l123 39q-2 -62 -2 -126v-246q0 -46 6 -56.5t39 -14.5v-10h-166v10q32 4 38.5 14.5t6.5 56.5z" />
    <glyph glyph-name="m.inferior" horiz-adv-x="521" 
d="M300 73l-1 -1v-120q0 -46 5.5 -56.5t32.5 -14.5v-10h-151v10q27 4 32 14.5t5 56.5v106q0 70 -47 70q-32 0 -48 -19v-157q0 -46 5 -56.5t32 -14.5v-10h-159v10q32 4 39 15t7 56v118q0 38 -8 49t-38 13v9l121 39v-55q37 55 91 55q58 0 76 -60q39 60 97 60q37 0 59 -26.5
t22 -80.5v-120q0 -46 6.5 -56.5t38.5 -14.5v-10h-158v10q27 4 32 14.5t5 56.5v106q0 70 -46 70q-35 0 -53 -22q3 -15 3 -34z" />
    <glyph glyph-name="n.inferior" horiz-adv-x="349" 
d="M8 132l-1 -1v9l121 39l-1 -55q37 55 91 55q38 0 60.5 -26.5t22.5 -80.5v-120q0 -46 6 -56.5t39 -14.5v-10h-159v10q27 4 32.5 14.5t5.5 56.5v106q0 70 -48 70q-32 0 -48 -19v-157q0 -46 5 -56.5t32 -14.5v-10h-158v10q32 4 38.5 14.5t6.5 56.5v118q0 38 -7.5 49t-37.5 13
z" />
    <glyph glyph-name="o.inferior" horiz-adv-x="348" 
d="M172 180q65 0 109.5 -44.5t44.5 -112.5q0 -65 -43 -111.5t-108 -46.5q-66 0 -110 45.5t-44 114.5q0 62 43 108.5t108 46.5zM167 160q-66 0 -66 -117q0 -24 3.5 -48.5t12 -50.5t25 -42.5t39.5 -16.5q34 0 49.5 34t15.5 85q0 32 -6 64.5t-25 62t-48 29.5z" />
    <glyph glyph-name="p.inferior" horiz-adv-x="351" 
d="M122 180l-1 -1v-55q13 23 37 39t54 16q52 0 85 -44t33 -104q0 -73 -43 -120t-101 -47q-38 0 -62 14v-48q0 -44 8 -55t48 -15v-11h-177v11q32 4 38.5 14.5t6.5 55.5v240q0 38 -7.5 49t-37.5 13v9zM123 111v-197q18 -31 61 -31q68 0 68 115q0 54 -23 92.5t-60 38.5
q-31 0 -46 -18z" />
    <glyph glyph-name="q.inferior" horiz-adv-x="347" 
d="M226 -169v85q-31 -51 -88 -51q-52 0 -84.5 43.5t-32.5 105.5q0 73 42.5 119.5t101.5 46.5q33 0 63 -15l75 13q-1 -31 -1 -128v-219q0 -45 6.5 -55.5t38.5 -14.5v-11h-177v11q40 4 48 14.5t8 55.5zM166 160h1q-33 0 -50 -30.5t-17 -82.5q0 -56 22.5 -94t59.5 -38
q30 0 45 19v196q-19 30 -61 30z" />
    <glyph glyph-name="r.inferior" horiz-adv-x="253" 
d="M9 -128v11q32 4 38.5 14t6.5 55v125q0 40 -6.5 47.5t-38.5 7.5v9l120 39l1 -56q39 54 74 54q19 0 34 -11.5t15 -33.5t-12 -32t-29 -10q-13 0 -23 11l-18 22q-5 5 -9 5q-12 0 -32 -26v-151q0 -41 9.5 -54t49.5 -15v-11h-180z" />
    <glyph glyph-name="s.inferior" horiz-adv-x="274" 
d="M146 180l-1 1q48 0 79 -14l3 -93h-10q-9 41 -31 63.5t-48 22.5q-51 0 -51 -35q0 -22 42 -48l32 -17q47 -26 67 -46.5t20 -53.5q0 -44 -36.5 -69.5t-83.5 -25.5q-55 0 -95 19v107h11q17 -103 86 -103q58 0 58 44q0 26 -45 50l-30 17q-27 15 -41 25t-26.5 28.5t-12.5 41.5
q0 42 34 64t79 22z" />
    <glyph glyph-name="t.inferior" horiz-adv-x="211" 
d="M124 -135q-77 0 -77 93v191h-47v26h49v40l74 58v-98h75v-26h-75v-179q0 -33 8.5 -47t29.5 -14q23 0 42 19l6 -6q-33 -57 -85 -57z" />
    <glyph glyph-name="u.inferior" horiz-adv-x="336" 
d="M284 58v-87q0 -41 6.5 -50t36.5 -11v-10l-109 -33l-9 57q-29 -59 -86 -59q-83 0 -83 109v113q0 26 -1.5 36.5t-10.5 19t-29 9.5v9l118 15q0 -12 -1 -49t-1 -67v-72q0 -75 44 -75q29 0 49 26v148q0 26 -1.5 36.5t-10.5 19t-28 9.5v9l118 15q0 -12 -1 -50t-1 -68z" />
    <glyph glyph-name="v.inferior" horiz-adv-x="324" 
d="M176 -132v1h-39l-100 259q-8 20 -15 28.5t-23 10.5v9h155v-9q-28 -2 -33.5 -14.5t4.5 -32.5l60 -167l54 140q18 39 15 54.5t-32 18.5v9h103v-9q-21 -2 -30 -12.5t-22 -41.5z" />
    <glyph glyph-name="w.inferior" horiz-adv-x="456" 
d="M289 -132h1l-62 208l-65 -208h-44l-81 259q-6 19 -14 27.5t-24 10.5v10h153v-10q-28 -2 -33 -12.5t3 -32.5l44 -157l65 212h43l62 -214l39 133q12 43 7.5 56t-28.5 15v10h103v-10q-22 -2 -30.5 -11.5t-19.5 -41.5l-74 -244h-45z" />
    <glyph glyph-name="x.inferior" horiz-adv-x="364" 
d="M105 -46h-1l44 55l-84 122q-18 28 -45 34v10h153v-10q-24 -3 -25.5 -11t13.5 -30l37 -54l28 36q18 22 23 33t-0.5 17.5t-26.5 8.5v10h116v-10q-23 -2 -42 -17.5t-51 -54.5l-34 -43l93 -134q19 -28 45 -34v-10h-152v10q24 3 26.5 11t-13.5 30l-47 67l-38 -49
q-18 -22 -23 -33t0.5 -17.5t26.5 -8.5v-10h-116v10q23 2 42 17.5t51 54.5z" />
    <glyph glyph-name="y.inferior" horiz-adv-x="330" 
d="M69 -253l-1 1q-25 0 -41 4v80h10q10 -28 20 -39.5t27 -11.5q34 0 57 61l11 26l-116 261q-1 2 -3.5 8t-3.5 7.5t-3.5 6t-4.5 6t-5.5 4t-7.5 3.5t-9 2v10h165v-10q-29 -2 -36 -12.5t1 -31.5l62 -162l53 134q10 27 12.5 40t-4.5 21t-27 10v10h105v-10q-21 -2 -29.5 -11.5
t-21.5 -41.5l-109 -274q-21 -51 -45 -71t-56 -20z" />
    <glyph glyph-name="z.inferior" horiz-adv-x="315" 
d="M280 -128h-258v5l175 276h-43q-49 0 -69 -22t-28 -85h-12v129h242v-6l-174 -275h62q46 0 65 22.5t29 84.5h11v-129z" />
    <glyph glyph-name="zero.slashed.inferior" horiz-adv-x="390" 
d="M30 78q0 86 46.5 149t118.5 63t119 -63t47 -149q0 -85 -47 -149t-119 -64t-118.5 64t-46.5 149zM114 78v1q0 -44 2 -57l156 122q-15 126 -77 126q-81 0 -81 -192zM276 79l1 1q0 25 -1 38l-156 -122q16 -110 75 -110q23 0 39.5 16.5t25 45.5t12.5 61.5t4 69.5z" />
    <glyph glyph-name="period.inferior" horiz-adv-x="197" 
d="M51 -88q0 20 13.5 33.5t33.5 13.5t34 -13.5t14 -33.5t-14 -33.5t-34 -13.5t-33.5 13.5t-13.5 33.5z" />
    <glyph glyph-name="hyphen.inferior" horiz-adv-x="205" 
d="M27 1v51h151v-51h-151z" />
    <glyph glyph-name="comma.inferior" horiz-adv-x="198" 
d="M52 -88v1q0 19 13.5 33t33.5 14q21 0 34 -15t13 -38q0 -42 -33.5 -84.5t-76.5 -64.5l-4 7q65 49 65 100q-20 1 -32.5 14t-12.5 33z" />
    <glyph glyph-name="equal.inferior" horiz-adv-x="382" 
d="M331 65h-280v44h280v-44zM331 -51h-280v44h280v-44z" />
    <glyph glyph-name="plus.inferior" horiz-adv-x="382" 
d="M215 -128h-48v132h-131v44h131v128h48v-128h131v-44h-131v-132z" />
    <glyph glyph-name="minus.inferior" horiz-adv-x="382" 
d="M39 48h304v-44h-304v44z" />
    <glyph glyph-name="one.numerator" horiz-adv-x="291" 
d="M192 732v-333q0 -44 8 -55t50 -17v-10h-201v11q47 4 57 15t10 56v264h-77v12q97 11 141 57h12z" />
    <glyph glyph-name="two.numerator" horiz-adv-x="314" 
d="M274 632l1 2q0 -41 -19 -70.5t-85 -95.5q-41 -40 -84 -81h199v-70h-300v7q122 106 166.5 171t44.5 112q0 77 -75 77q-73 0 -90 -65h-17q10 56 46 86t93 30q51 0 85.5 -27t34.5 -76z" />
    <glyph glyph-name="three.numerator" horiz-adv-x="335" 
d="M130 310l1 -1q-58 0 -100 20v104h10q12 -51 37.5 -76t59.5 -25q37 0 59.5 22t22.5 57q0 33 -24.5 66t-84.5 42v12l13 6q38 16 56.5 42.5t18.5 50.5q0 53 -67 53q-31 0 -55.5 -17t-30.5 -48h-18q10 56 46 86t93 30q45 0 76.5 -20.5t31.5 -56.5q0 -30 -26.5 -55.5
t-57.5 -37.5v-2q49 -15 77.5 -47t28.5 -76q0 -59 -50.5 -94t-116.5 -35z" />
    <glyph glyph-name="four.numerator" horiz-adv-x="345" 
d="M262 317h-77v101h-177v42l188 265h66v-244h68v-63h-68v-101zM185 481v185l-131 -185h131z" />
    <glyph glyph-name="five.numerator" horiz-adv-x="315" 
d="M43 534h1l68 191h183l-21 -69h-162l-21 -58q96 -7 147.5 -45.5t51.5 -101.5q0 -64 -46.5 -102.5t-111.5 -38.5q-55 0 -101 18v103h11q11 -47 37 -72.5t60 -25.5q35 0 55.5 22.5t20.5 58.5q0 49 -41.5 81.5t-130.5 38.5z" />
    <glyph glyph-name="six.numerator" horiz-adv-x="375" 
d="M191 310h1q-71 0 -112 44.5t-41 121.5q0 99 77.5 171t188.5 95l5 -15q-156 -49 -184 -183q34 46 92 46q50 0 84.5 -35t34.5 -93q0 -64 -42.5 -108t-103.5 -44zM185 549q-36 0 -61 -22q-2 -24 -2 -38q0 -70 17 -114.5t53 -44.5q65 0 65 108q0 49 -19 80t-53 31z" />
    <glyph glyph-name="seven.numerator" horiz-adv-x="299" 
d="M9 656h1v69h288v-70q-83 -78 -124.5 -155t-41.5 -183h-86q2 61 21.5 113t56 94t70.5 70.5t82 61.5h-267z" />
    <glyph glyph-name="eight.numerator" horiz-adv-x="376" 
d="M184 310v-1q-62 0 -104 27.5t-42 79.5q0 34 24.5 60t64.5 41q-71 45 -71 111q0 47 38.5 76.5t94.5 29.5q53 0 90.5 -23t37.5 -63q0 -31 -25 -55t-61 -38q53 -26 80 -52.5t27 -70.5q0 -56 -45.5 -89t-108.5 -33zM94 418q0 -40 23 -64t67 -24t67 19.5t23 48.5
q0 28 -19.5 47t-59.5 38l-41 19l-12 5q-48 -24 -48 -89zM264 643q0 69 -75 69q-34 0 -53.5 -16.5t-19.5 -41.5q0 -44 72 -79l30 -14q46 29 46 82z" />
    <glyph glyph-name="nine.numerator" horiz-adv-x="375" 
d="M185 735q70 0 111 -45t41 -123q0 -98 -77 -169t-189 -97l-5 15q154 49 182 183q-35 -46 -91 -46q-50 0 -84.5 36t-34.5 95q0 64 42.5 107.5t104.5 43.5zM191 496q39 0 60 21q3 19 3 39q0 69 -17 113.5t-53 44.5q-65 0 -65 -108q0 -49 19 -79.5t53 -30.5z" />
    <glyph glyph-name="zero.numerator" horiz-adv-x="390" 
d="M114 523q0 -37 4 -69.5t12.5 -61.5t25 -45.5t39.5 -16.5t39.5 16.5t25 45.5t12.5 61.5t4 69.5q0 192 -81 192t-81 -192zM30 523q0 86 46.5 149t118.5 63t119 -63t47 -149q0 -85 -47 -149t-119 -64t-118.5 64t-46.5 149z" />
    <glyph glyph-name="zero.slashed.numerator" horiz-adv-x="390" 
d="M30 523q0 86 46.5 149t118.5 63t119 -63t47 -149q0 -85 -47 -149t-119 -64t-118.5 64t-46.5 149zM114 523v1q0 -44 2 -57l156 122q-15 126 -77 126q-81 0 -81 -192zM276 524l1 1q0 25 -1 38l-156 -122q16 -110 75 -110q23 0 39.5 16.5t25 45.5t12.5 61.5t4 69.5z" />
    <glyph glyph-name="one.denominator" horiz-adv-x="291" 
d="M192 415v-333q0 -44 8 -55t50 -17v-10h-201v11q47 4 57 15t10 56v264h-77v12q97 11 141 57h12z" />
    <glyph glyph-name="two.denominator" horiz-adv-x="314" 
d="M274 315l1 2q0 -41 -19 -70.5t-85 -95.5q-41 -41 -84 -81h199v-70h-300v7q122 106 166.5 171t44.5 112q0 77 -75 77q-73 0 -90 -65h-17q10 56 46 86t93 30q51 0 85.5 -27t34.5 -76z" />
    <glyph glyph-name="three.denominator" horiz-adv-x="335" 
d="M130 -7l1 -1q-58 0 -100 20v104h10q12 -51 37.5 -76t59.5 -25q37 0 59.5 22t22.5 57q0 33 -24.5 66t-84.5 42v12l13 6q38 16 56.5 42.5t18.5 50.5q0 53 -67 53q-31 0 -55.5 -17t-30.5 -48h-18q10 56 46 86t93 30q45 0 76.5 -20.5t31.5 -56.5q0 -30 -26.5 -55.5
t-57.5 -37.5v-2q49 -15 77.5 -47t28.5 -76q0 -59 -50.5 -94t-116.5 -35z" />
    <glyph glyph-name="four.denominator" horiz-adv-x="345" 
d="M262 0h-77v101h-177v42l188 265h66v-244h68v-63h-68v-101zM185 164v185l-131 -185h131z" />
    <glyph glyph-name="five.denominator" horiz-adv-x="315" 
d="M43 217h1l68 191h183l-21 -69h-162l-21 -58q96 -7 147.5 -45.5t51.5 -101.5q0 -64 -46.5 -102.5t-111.5 -38.5q-55 0 -101 18v103h11q11 -47 37 -72.5t60 -25.5q35 0 55.5 22.5t20.5 58.5q0 49 -41.5 81.5t-130.5 38.5z" />
    <glyph glyph-name="six.denominator" horiz-adv-x="375" 
d="M191 -7h1q-71 0 -112 44.5t-41 121.5q0 99 77.5 171t188.5 95l5 -15q-156 -49 -184 -183q34 46 92 46q50 0 84.5 -35t34.5 -93q0 -64 -42.5 -108t-103.5 -44zM185 232q-36 0 -61 -22q-2 -24 -2 -38q0 -70 17 -114.5t53 -44.5q65 0 65 108q0 49 -19 80t-53 31z" />
    <glyph glyph-name="seven.denominator" horiz-adv-x="299" 
d="M9 339h1v69h288v-70q-83 -78 -124.5 -155t-41.5 -183h-86q2 61 21.5 113t56 94t70.5 70.5t82 61.5h-267z" />
    <glyph glyph-name="eight.denominator" horiz-adv-x="376" 
d="M184 -7v-1q-62 0 -104 27.5t-42 79.5q0 34 24.5 60t64.5 41q-71 45 -71 111q0 47 38.5 76.5t94.5 29.5q53 0 90.5 -23t37.5 -63q0 -31 -25 -55t-61 -38q53 -26 80 -52.5t27 -70.5q0 -56 -45.5 -89t-108.5 -33zM94 101q0 -40 23 -64t67 -24t67 19.5t23 48.5q0 28 -19.5 47
t-59.5 38l-41 19l-12 5q-48 -24 -48 -89zM264 326q0 69 -75 69q-34 0 -53.5 -16.5t-19.5 -41.5q0 -45 72 -79l30 -14q46 29 46 82z" />
    <glyph glyph-name="nine.denominator" horiz-adv-x="375" 
d="M185 418q70 0 111 -45t41 -123q0 -98 -77 -169t-189 -97l-5 15q154 49 182 183q-35 -46 -91 -46q-50 0 -84.5 36t-34.5 95q0 64 42.5 107.5t104.5 43.5zM191 179q39 0 60 21q3 20 3 39q0 69 -17 113.5t-53 44.5q-65 0 -65 -108q0 -49 19 -79.5t53 -30.5z" />
    <glyph glyph-name="zero.denominator" horiz-adv-x="390" 
d="M114 206q0 -37 4 -69.5t12.5 -61.5t25 -45.5t39.5 -16.5t39.5 16.5t25 45.5t12.5 61.5t4 69.5q0 192 -81 192t-81 -192zM30 206q0 86 46.5 149t118.5 63t119 -63t47 -149q0 -85 -47 -149t-119 -64t-118.5 64t-46.5 149z" />
    <glyph glyph-name="zero.slashed.denominator" horiz-adv-x="390" 
d="M30 206q0 86 46.5 149t118.5 63t119 -63t47 -149q0 -85 -47 -149t-119 -64t-118.5 64t-46.5 149zM114 206v1q0 -44 2 -57l156 122q-15 126 -77 126q-81 0 -81 -192zM276 207l1 1q0 25 -1 38l-156 -122q16 -110 75 -110q23 0 39.5 16.5t25 45.5t12.5 61.5t4 69.5z" />
    <glyph glyph-name="ampersand.case" horiz-adv-x="732" 
d="M294 -13l2 1q-110 0 -183.5 65t-73.5 159q0 139 201 207q-76 92 -76 169q0 71 53.5 112.5t137.5 41.5q73 0 121.5 -34.5t48.5 -97.5q0 -53 -47 -97.5t-115 -71.5l194 -218q40 95 28 228h81q-5 -137 -82 -260l118 -133l-81 -70l-99 110q-52 -59 -103.5 -85t-124.5 -26z
M256 401v-1q-45 -21 -70 -66.5t-25 -97.5q0 -84 46 -140t124 -56q96 0 167 88l-240 271zM454 608v-1q0 50 -26.5 75t-73.5 25q-45 0 -67.5 -24.5t-22.5 -61.5q0 -42 20.5 -77.5t62.5 -84.5q107 50 107 149z" />
    <glyph glyph-name="hyphen.case" horiz-adv-x="391" 
d="M55 329v88h281v-88h-281z" />
    <glyph glyph-name="endash.case" horiz-adv-x="485" 
d="M450 340h-415v66h415v-66z" />
    <glyph glyph-name="emdash.case" horiz-adv-x="710" 
d="M676 340h-642v66h642v-66z" />
    <glyph glyph-name="question.case" horiz-adv-x="645" 
d="M347 709v-1q-90 0 -146 -51t-83 -172h-18l16 218q107 41 227 41q114 0 190.5 -37.5t76.5 -106.5q0 -40 -22.5 -71.5t-56.5 -51.5t-73.5 -43t-73.5 -44.5t-56.5 -57t-22.5 -80.5v-35h-38v39q0 66 22.5 114.5t54.5 76t63.5 50t54 49t22.5 60.5q0 46 -33 74.5t-104 28.5z
M218 58q0 29 21.5 50.5t50.5 21.5t50.5 -21.5t21.5 -50.5t-21.5 -50.5t-50.5 -21.5t-50.5 21.5t-21.5 50.5z" />
    <glyph glyph-name="questiondown.case" horiz-adv-x="645" 
d="M363 23q90 0 146 51t83 172h18l-16 -218q-107 -41 -227 -41q-114 0 -190.5 37.5t-76.5 106.5q0 47 31.5 82.5t76 59.5t89.5 49t76.5 65t31.5 93v35h38v-39q0 -66 -22.5 -114.5t-54.5 -76t-63.5 -50t-54 -49t-22.5 -60.5q0 -46 33 -74.5t104 -28.5zM348 673
q0 29 21.5 50.5t50.5 21.5t50.5 -21.5t21.5 -50.5t-21.5 -50.5t-50.5 -21.5t-50.5 21.5t-21.5 50.5z" />
    <glyph glyph-name="exclam.case" horiz-adv-x="424" 
d="M151 474v243q0 17 30.5 24.5t60.5 0t30 -24.5v-244l-50 -261h-20zM140 59q0 29 21.5 50.5t50.5 21.5t50.5 -21.5t21.5 -50.5t-21.5 -50.5t-50.5 -21.5t-50.5 21.5t-21.5 50.5z" />
    <glyph glyph-name="exclamdown.case" horiz-adv-x="424" 
d="M151 15v240l51 262h20l50 -261v-241q0 -17 -30 -24.5t-60.5 0t-30.5 24.5zM140 673q0 29 21.5 50.5t50.5 21.5t50.5 -21.5t21.5 -50.5t-21.5 -50.5t-50.5 -21.5t-50.5 21.5t-21.5 50.5z" />
    <glyph glyph-name="guilsinglleft.case" horiz-adv-x="361" 
d="M236 136l-203 235l203 234h49l-133 -234l133 -235h-49z" />
    <glyph glyph-name="guilsinglright.case" horiz-adv-x="362" 
d="M329 371l-203 -235h-50l134 235l-134 234h50z" />
    <glyph glyph-name="guillemotleft.case" horiz-adv-x="566" 
d="M440 136l-203 235l203 234h49l-133 -234l133 -235h-49zM236 136l-203 235l203 234h49l-133 -234l133 -235h-49z" />
    <glyph glyph-name="guillemotright.case" horiz-adv-x="566" 
d="M533 371l-203 -235h-50l134 235l-134 234h50zM329 371l-203 -235h-50l134 235l-134 234h50z" />
    <glyph glyph-name="parenleft.case" horiz-adv-x="329" 
d="M162 362q0 -292 129 -421l-19 -16q-108 81 -162.5 194t-54.5 243q0 129 55 243.5t162 194.5l19 -17q-129 -129 -129 -421z" />
    <glyph glyph-name="parenright.case" horiz-adv-x="329" 
d="M167 362q0 292 -129 421l19 17q107 -80 162 -194.5t55 -243.5t-55 -243.5t-162 -194.5l-19 16q129 129 129 422z" />
    <glyph glyph-name="bracketleft.case" horiz-adv-x="330" 
d="M87 -38v801h195v-38h-92v-725h92v-38h-195z" />
    <glyph glyph-name="bracketright.case" horiz-adv-x="330" 
d="M243 763v-801h-194v38h91v725h-91v38h194z" />
    <glyph glyph-name="braceleft.case" horiz-adv-x="369" 
d="M320 -38h-49q-88 0 -117.5 27.5t-29.5 95.5v144q0 117 -80 117v33q80 0 80 117v144q0 68 29.5 95.5t117.5 27.5h49v-38h-13q-51 0 -66 -17.5t-15 -66.5v-135q0 -119 -110 -142v-3q110 -23 110 -142v-135q0 -49 15 -66.5t66 -17.5h13v-38z" />
    <glyph glyph-name="braceright.case" horiz-adv-x="369" 
d="M98 -38h-49v38h13q51 0 66 17.5t15 66.5v135q0 119 110 142v3q-110 23 -110 142v135q0 49 -15 66.5t-66 17.5h-13v38h49q88 0 117.5 -27.5t29.5 -95.5v-144q0 -117 80 -117v-33q-80 0 -80 -117v-144q0 -68 -29.5 -95.5t-117.5 -27.5z" />
    <glyph glyph-name="bar.case" horiz-adv-x="242" 
d="M157 0h-72v725h72v-725z" />
    <glyph glyph-name="brokenbar.case" horiz-adv-x="242" 
d="M85 725h72v-260h-72v260zM85 260h72v-260h-72v260z" />
    <glyph glyph-name="periodcentered.case" horiz-adv-x="358" 
d="M107 377q0 29 21.5 50.5t50.5 21.5t50.5 -21.5t21.5 -50.5t-21.5 -50.5t-50.5 -21.5t-50.5 21.5t-21.5 50.5z" />
    <glyph glyph-name="bullet.case" horiz-adv-x="453" 
d="M44 381q0 75 52.5 127.5t126.5 52.5q79 0 133 -52.5t54 -127.5q0 -78 -54 -132t-133 -54q-74 0 -126.5 54t-52.5 132z" />
    <glyph glyph-name="plus.case" 
d="M374 95h-70v242h-242v66h242v230h70v-230h242v-66h-242v-242z" />
    <glyph glyph-name="minus.case" 
d="M79 403h520v-66h-520v66z" />
    <glyph glyph-name="divide.case" 
d="M294 157v101h95v-101h-95zM294 480v101h95v-101h-95zM597 335h-515v66h515v-66z" />
    <glyph glyph-name="multiply.case" 
d="M574 182l-50 -49l-186 186l-185 -185l-49 49l185 186l-185 185l49 49l185 -185l185 185l49 -49l-184 -185z" />
    <glyph glyph-name="equal.case" 
d="M581 444h-483v66h483v-66zM581 237h-483v67h483v-67z" />
    <glyph glyph-name="plusminus.case" 
d="M305 458v176h69v-176h240v-66h-240v-182h-69v182h-240v66h240zM614 95h-549v66h549v-66z" />
    <glyph glyph-name="less.case" 
d="M69 402l521 237v-76l-438 -194l438 -192v-75l-521 235v65z" />
    <glyph glyph-name="greater.case" 
d="M610 402v-65l-521 -235v75l439 192l-439 194v76z" />
    <glyph glyph-name="lessequal.case" 
d="M157 428l456 -142v-72l-547 182v64l547 182v-72zM65 95v66h549v-66h-549z" />
    <glyph glyph-name="greaterequal.case" 
d="M522 428l-456 142v72l547 -182v-64l-547 -182v72zM614 95h-549v66h549v-66z" />
    <glyph glyph-name="notequal.case" 
d="M92 440v70h288l82 143l61 -33l-64 -110h128v-70h-168l-76 -133h244v-70h-285l-95 -166l-61 32l77 134h-131v70h171l76 133h-247z" />
    <glyph glyph-name="acute.case" horiz-adv-x="280" 
d="M260 922l-219 -129h-21l83 129h157z" />
    <glyph glyph-name="breve.case" horiz-adv-x="310" 
d="M154 826q82 0 88 96h48q0 -54 -35 -94.5t-101 -40.5q-65 0 -99.5 40.5t-34.5 94.5h48q5 -96 86 -96z" />
    <glyph glyph-name="caron.case" horiz-adv-x="346" 
d="M165 793l-145 139h23l130 -59l130 59h23l-145 -139h-16z" />
    <glyph glyph-name="cedilla.case" horiz-adv-x="244" 
d="M48 -119h1l72 122h38l-51 -86q17 9 42 9q34 0 54.5 -20.5t20.5 -50.5q0 -46 -33 -70t-73 -24q-48 0 -99 29l10 22q26 -14 64 -14q28 0 45 12t17 35q0 33 -36.5 40.5t-62.5 -9.5z" />
    <glyph glyph-name="circumflex.case" horiz-adv-x="346" 
d="M165 932h16l145 -139h-23l-130 59l-130 -59h-23z" />
    <glyph glyph-name="dieresis.case" horiz-adv-x="392" 
d="M248 859q0 27 17.5 45t44.5 18q26 0 44 -18.5t18 -44.5q0 -27 -18 -45t-44 -18q-27 0 -44.5 17.5t-17.5 45.5zM20 859q0 27 17.5 45t44.5 18q26 0 43.5 -18.5t17.5 -44.5q0 -28 -17.5 -45.5t-43.5 -17.5q-27 0 -44.5 17.5t-17.5 45.5z" />
    <glyph glyph-name="dotaccent.case" horiz-adv-x="155" 
d="M16 859q0 27 17.5 45t44.5 18q26 0 43.5 -18.5t17.5 -44.5q0 -28 -17.5 -45.5t-43.5 -17.5q-27 0 -44.5 17.5t-17.5 45.5z" />
    <glyph glyph-name="grave.case" horiz-adv-x="280" 
d="M14 922h157l83 -129h-21z" />
    <glyph glyph-name="hungarumlaut.case" horiz-adv-x="451" 
d="M438 922l-219 -129h-21l83 129h157zM261 922l-219 -129h-21l83 129h157z" />
    <glyph glyph-name="macron.case" horiz-adv-x="341" 
d="M319 818h-296v68h296v-68z" />
    </font>
</defs>
</svg>
